<svg width="24" height="24" viewBox="0 0 24 24" xmlns="http://www.w3.org/2000/svg">
    <g fill="#000" fill-rule="nonzero" stroke="#000" stroke-width=".1">
        <path d="M21.884 4.51h-.024V.726A.732.732 0 0 0 21.124 0H2.876a.732.732 0 0 0-.736.727V4.51h-.024A1.11 1.11 0 0 0 1 5.612v12.776c0 .608.5 1.103 1.116 1.103h.024v3.782c0 .4.33.727.736.727h18.248a.732.732 0 0 0 .736-.727V19.49h.024A1.11 1.11 0 0 0 23 18.388V5.612c0-.608-.5-1.103-1.116-1.103zM12.356.702h8.768c.013 0 .024.011.024.024V4.51h-8.792V.703zM2.852.727c0-.013.01-.024.024-.024h8.768V4.51H2.852V.727zm18.296 22.546a.024.024 0 0 1-.024.024h-8.768V19.49h8.792v3.782zm1.14-14.255h-1.924a.354.354 0 0 0-.356.352c0 .194.16.351.356.351h1.925v8.667c0 .22-.182.4-.405.4H4.777a.354.354 0 0 0-.356.351c0 .195.16.352.356.352h6.867v3.806H2.876a.024.024 0 0 1-.024-.024V19.49h.405a.354.354 0 0 0 .355-.352.354.354 0 0 0-.355-.351H2.116a.403.403 0 0 1-.405-.4V9.72h17.132a.354.354 0 0 0 .355-.351.354.354 0 0 0-.355-.352H1.71V5.612c0-.22.182-.4.405-.4h19.768c.223 0 .405.18.405.4v3.406z"/>
        <path d="M5.157 10.897A1.11 1.11 0 0 1 6.273 12v1.994c.227.124.38.363.38.636v.752a.727.727 0 0 1-.38.636v.988a1.11 1.11 0 0 1-.994 1.097l-.122.006h-1.14a1.113 1.113 0 0 1-1.11-.983l-.006-.12-.001-.988a.727.727 0 0 1-.38-.636v-.752c0-.273.154-.512.38-.636V12c0-.608.501-1.103 1.117-1.103zm.404 5.212H3.61l.001.897c0 .193.14.355.323.392l.082.008h1.14a.404.404 0 0 0 .397-.32l.008-.08-.001-.897zm.357-1.503H3.256a.024.024 0 0 0-.024.024v.752c0 .013.011.024.024.024h2.662c.013 0 .024-.01.024-.024v-.752a.024.024 0 0 0-.024-.024zm-.76-3.006H4.016a.403.403 0 0 0-.405.4v1.903h1.95V12c0-.22-.182-.4-.405-.4zM10.157 10.897A1.11 1.11 0 0 1 11.273 12v1.994c.227.124.38.363.38.636v.752a.727.727 0 0 1-.38.636v.988a1.11 1.11 0 0 1-.994 1.097l-.122.006h-1.14a1.113 1.113 0 0 1-1.11-.983l-.006-.12-.001-.988a.727.727 0 0 1-.38-.636v-.752c0-.273.154-.512.38-.636V12c0-.608.501-1.103 1.117-1.103zm.404 5.212H8.61l.001.897c0 .193.14.355.323.392l.082.008h1.14a.404.404 0 0 0 .397-.32l.008-.08-.001-.897zm.357-1.503H8.256a.024.024 0 0 0-.024.024v.752c0 .013.011.024.024.024h2.662c.013 0 .024-.01.024-.024v-.752a.024.024 0 0 0-.024-.024zm-.76-3.006H9.016a.403.403 0 0 0-.405.4v1.903h1.95V12c0-.22-.182-.4-.405-.4zM15.157 10.897A1.11 1.11 0 0 1 16.273 12v1.994c.227.124.38.363.38.636v.752a.727.727 0 0 1-.38.636v.988a1.11 1.11 0 0 1-.994 1.097l-.122.006h-1.14a1.113 1.113 0 0 1-1.11-.983l-.006-.12-.001-.988a.727.727 0 0 1-.38-.636v-.752c0-.273.154-.512.38-.636V12c0-.608.501-1.103 1.117-1.103zm.404 5.212h-1.95l.001.897c0 .193.14.355.323.392l.082.008h1.14a.404.404 0 0 0 .397-.32l.008-.08-.001-.897zm.357-1.503h-2.662a.024.024 0 0 0-.024.024v.752c0 .013.011.024.024.024h2.662c.013 0 .024-.01.024-.024v-.752a.024.024 0 0 0-.024-.024zm-.76-3.006h-1.141a.403.403 0 0 0-.405.4v1.903h1.95V12c0-.22-.182-.4-.405-.4zM20.157 10.897A1.11 1.11 0 0 1 21.273 12v1.994c.227.124.38.363.38.636v.752a.727.727 0 0 1-.38.636v.988a1.11 1.11 0 0 1-.994 1.097l-.122.006h-1.14a1.113 1.113 0 0 1-1.11-.983l-.006-.12-.001-.988a.727.727 0 0 1-.38-.636v-.752c0-.273.154-.512.38-.636V12c0-.608.501-1.103 1.117-1.103zm.404 5.212h-1.95l.001.897c0 .193.14.355.323.392l.082.008h1.14a.404.404 0 0 0 .397-.32l.008-.08-.001-.897zm.357-1.503h-2.662a.024.024 0 0 0-.024.024v.752c0 .013.011.024.024.024h2.662c.013 0 .024-.01.024-.024v-.752a.024.024 0 0 0-.024-.024zm-.76-3.006h-1.141a.403.403 0 0 0-.405.4v1.903h1.95V12c0-.22-.182-.4-.405-.4zM9.339 1.503a1.11 1.11 0 0 0-1.116 1.103c0 .608.5 1.103 1.116 1.103a1.11 1.11 0 0 0 1.116-1.103c0-.608-.5-1.103-1.116-1.103zm0 1.503a.403.403 0 0 1-.405-.4c0-.22.182-.4.405-.4.223 0 .405.18.405.4 0 .22-.182.4-.405.4zM5.157 1.503a1.11 1.11 0 0 0-1.116 1.103c0 .608.5 1.103 1.116 1.103a1.11 1.11 0 0 0 1.116-1.103c0-.608-.5-1.103-1.116-1.103zm0 1.503a.403.403 0 0 1-.404-.4c0-.22.181-.4.404-.4.223 0 .405.18.405.4 0 .22-.182.4-.405.4zM18.843 1.503a1.11 1.11 0 0 0-1.116 1.103c0 .608.5 1.103 1.116 1.103a1.11 1.11 0 0 0 1.116-1.103c0-.608-.5-1.103-1.116-1.103zm0 1.503a.403.403 0 0 1-.405-.4c0-.22.182-.4.405-.4.223 0 .404.18.404.4 0 .22-.181.4-.404.4zM14.661 1.503a1.11 1.11 0 0 0-1.116 1.103c0 .608.5 1.103 1.116 1.103a1.11 1.11 0 0 0 1.116-1.103c0-.608-.5-1.103-1.116-1.103zm0 1.503a.403.403 0 0 1-.404-.4c0-.22.181-.4.404-.4.223 0 .405.18.405.4 0 .22-.182.4-.405.4zM14.661 20.29a1.11 1.11 0 0 0-1.116 1.104c0 .608.5 1.103 1.116 1.103a1.11 1.11 0 0 0 1.116-1.103c0-.608-.5-1.103-1.116-1.103zm0 1.504a.403.403 0 0 1-.404-.4c0-.22.181-.4.404-.4.223 0 .405.18.405.4 0 .22-.182.4-.405.4zM18.843 20.29a1.11 1.11 0 0 0-1.116 1.104c0 .608.5 1.103 1.116 1.103a1.11 1.11 0 0 0 1.116-1.103c0-.608-.5-1.103-1.116-1.103zm0 1.504a.403.403 0 0 1-.405-.4c0-.22.182-.4.405-.4.223 0 .404.18.404.4 0 .22-.181.4-.404.4zM5.157 20.29a1.11 1.11 0 0 0-1.116 1.104c0 .608.5 1.103 1.116 1.103a1.11 1.11 0 0 0 1.116-1.103c0-.608-.5-1.103-1.116-1.103zm0 1.504a.403.403 0 0 1-.404-.4c0-.22.181-.4.404-.4.223 0 .405.18.405.4 0 .22-.182.4-.405.4zM9.339 20.29a1.11 1.11 0 0 0-1.116 1.104c0 .608.5 1.103 1.116 1.103a1.11 1.11 0 0 0 1.116-1.103c0-.608-.5-1.103-1.116-1.103zm0 1.504a.403.403 0 0 1-.405-.4c0-.22.182-.4.405-.4.223 0 .405.18.405.4 0 .22-.182.4-.405.4zM5.537 7.14h-1.9a.354.354 0 0 0-.356.351c0 .194.16.352.356.352h1.9a.354.354 0 0 0 .356-.352.354.354 0 0 0-.356-.352zM10.48 7.14H8.578a.354.354 0 0 0-.356.351c0 .194.16.352.356.352h1.9a.354.354 0 0 0 .356-.352.354.354 0 0 0-.356-.352zM15.421 7.14h-1.9a.354.354 0 0 0-.356.351c0 .194.16.352.356.352h1.9a.354.354 0 0 0 .356-.352.354.354 0 0 0-.356-.352zM20.363 7.14h-1.9a.354.354 0 0 0-.356.351c0 .194.16.352.356.352h1.9a.354.354 0 0 0 .356-.352.354.354 0 0 0-.356-.352z"/>
    </g>
</svg>
