<svg xmlns="http://www.w3.org/2000/svg" width="24" height="24" viewBox="0 0 24 24">
    <defs>
        <filter id="e90d7g684a">
            <feColorMatrix in="SourceGraphic" values="0 0 0 0 0.215686 0 0 0 0 0.227451 0 0 0 0 0.215686 0 0 0 1.000000 0"/>
        </filter>
    </defs>
    <g fill="none" fill-rule="evenodd">
        <g>
            <g>
                <g filter="url(#e90d7g684a)" transform="translate(-110 -234) translate(98 222) translate(12 12)">
                    <g fill="#000" fill-rule="nonzero">
                        <path d="M16.406 11.385c-.193 0-.37-.124-.438-.304s-.016-.391.13-.518c.15-.13.37-.153.542-.053.172.099.265.303.226.497-.044.216-.238.378-.46.378z" transform="translate(1.35)"/>
                        <path d="M16.617 8.68l.011-.007c.305-.189.305-.635 0-.824l-.01-.007-5.76-2.997c-.137-.071-.298-.071-.434 0l-5.764 3-.019.01c-.147.086-.237.244-.235.414v7.47c0 .175.098.335.253.416l5.765 3c.135.068.295.069.43.002l.003-.002 5.766-3c.192-.1.252-.33.252-.553v-2.56c0-.25-.188-.467-.438-.484-.273-.017-.5.199-.5.468v2.428l-4.828 2.513v-6.42l5.508-2.867zm-5.976-2.891l4.75 2.472-4.75 2.472-4.75-2.472 4.75-2.472zM5.344 9.033l4.828 2.513v6.421l-4.828-2.512V9.032z" transform="translate(1.35)"/>
                        <path d="M19.854 15.751V8.255c.81-.208 1.41-.945 1.41-1.82 0-1.035-.843-1.878-1.88-1.878-.55 0-1.045.238-1.39.616L12.473 2.3c.03-.135.047-.276.047-.42C12.52.843 11.677 0 10.641 0S8.762.843 8.762 1.879c0 .144.016.285.047.42L3.287 5.173c-.344-.378-.84-.616-1.39-.616-1.037 0-1.88.843-1.88 1.879 0 .874.6 1.61 1.41 1.82v7.495c-.81.21-1.41.946-1.41 1.82 0 1.036.843 1.878 1.88 1.878.552 0 1.05-.24 1.394-.62L8.809 21.7c-.03.135-.047.276-.047.42 0 1.036.843 1.879 1.879 1.879s1.878-.843 1.878-1.879c0-.144-.016-.285-.047-.42l5.519-2.872c.344.38.841.62 1.394.62 1.036 0 1.879-.842 1.879-1.878 0-.874-.6-1.61-1.41-1.82zm-.47-10.256c.52 0 .942.422.942.94 0 .52-.422.942-.941.942-.52 0-.941-.422-.941-.941 0-.52.422-.941.94-.941zM10.642.937c.519 0 .94.423.94.942 0 .519-.421.94-.94.94-.52 0-.942-.421-.942-.94 0-.52.423-.942.942-.942zM.955 6.436c0-.52.422-.941.941-.941.52 0 .942.422.942.94 0 .52-.423.942-.942.942-.519 0-.94-.422-.94-.941zm.941 12.076c-.519 0-.94-.422-.94-.941 0-.52.421-.941.94-.941.52 0 .942.422.942.94 0 .52-.423.942-.942.942zm8.745 4.55c-.52 0-.942-.422-.942-.94 0-.52.423-.942.942-.942.519 0 .94.422.94.941 0 .52-.421.942-.94.942zm1.399-2.193c-.344-.384-.844-.626-1.4-.626-.555 0-1.054.242-1.399.626l-5.515-2.87c.032-.138.049-.281.049-.428 0-.874-.6-1.61-1.41-1.82V8.255c.81-.208 1.41-.945 1.41-1.82 0-.148-.018-.293-.05-.433L9.24 3.131c.345.384.844.626 1.4.626.555 0 1.054-.242 1.399-.626l5.517 2.871c-.033.14-.05.285-.05.434 0 .874.6 1.61 1.41 1.82v7.495c-.81.21-1.41.946-1.41 1.82 0 .147.016.29.048.427L12.04 20.87zm7.345-2.357c-.52 0-.941-.422-.941-.941 0-.52.422-.941.94-.941.52 0 .942.422.942.94 0 .52-.422.942-.941.942z" transform="translate(1.35)"/>
                    </g>
                </g>
            </g>
        </g>
    </g>
</svg>
