<?xml version="1.0" encoding="UTF-8"?>
<svg width="24px" height="24px" viewBox="0 0 24 24" version="1.1" xmlns="http://www.w3.org/2000/svg" xmlns:xlink="http://www.w3.org/1999/xlink">
    <title>01 Icons/02 Categories/ic-billing</title>
    <g id="01-Icons/02-Categories/ic-billing" stroke="none" stroke-width="1" fill="none" fill-rule="evenodd">
        <path d="M5.43007059,11.8254844 C6.22009412,12.3405469 6.72635294,12.4700625 7.45162353,12.4951875 L7.45162353,13.2602812 C7.45162353,13.519125 7.66235294,13.7290312 7.92221176,13.7290312 C8.18207059,13.7290312 8.3928,13.519125 8.3928,13.2602812 L8.3928,12.4602656 C8.92814118,12.37275 9.41289412,12.1401094 9.81331765,11.7738281 C10.2776941,11.3489531 10.5910588,10.7731875 10.6957176,10.15275 C10.9082824,8.89265625 10.2452706,7.79695312 9.00677647,7.36129687 C8.78494118,7.28320312 8.58094118,7.20848437 8.3928,7.13639062 L8.3928,4.07460937 C8.96922353,4.16704687 9.31552941,4.464375 9.3408,4.48673437 C9.532,4.65998437 9.82785882,4.64732812 10.0033412,4.45785937 C10.1795765,4.26759375 10.1675765,3.97101562 9.97661176,3.79546875 C9.94282353,3.76439062 9.3544,3.23620312 8.39284706,3.12825 L8.39284706,2.44190625 C8.39284706,2.1830625 8.18211765,1.97315625 7.92225882,1.97315625 C7.6624,1.97315625 7.45167059,2.1830625 7.45167059,2.44190625 L7.45167059,3.16621875 C7.33369412,3.18839062 7.2128,3.21675 7.08842353,3.25401562 C6.27764706,3.49729687 5.67176471,4.18973437 5.50715294,5.061 C5.35792941,5.85089062 5.60955294,6.61026562 6.164,7.04301562 C6.4848,7.293 6.888,7.52175 7.45162353,7.76648437 L7.45162353,11.5579219 C6.88795294,11.5358906 6.54574118,11.4324375 5.94550588,11.041125 C5.72790588,10.8993281 5.43632941,10.9600781 5.29402353,11.1766406 C5.15171765,11.3932031 5.21261176,11.6837344 5.43007059,11.8254844 L5.43007059,11.8254844 Z M8.3928,8.13764062 C8.4896,8.1729375 8.58941176,8.20875 8.69322353,8.2453125 C9.89312941,8.66732812 9.81887059,9.69309375 9.76757647,9.99740625 C9.66084706,10.6300781 9.19284706,11.3057812 8.3928,11.5044844 L8.3928,8.13764062 Z M6.74418824,6.304875 C6.46767059,6.0890625 6.34809412,5.67890625 6.43204706,5.23434375 C6.50988235,4.82217187 6.79454118,4.3213125 7.35967059,4.15171875 C7.39063529,4.1424375 7.42117647,4.13423437 7.45157647,4.1263125 L7.45157647,6.73303125 C7.15722353,6.58753125 6.92748235,6.44770312 6.74418824,6.304875 L6.74418824,6.304875 Z" id="Shape" fill="#373A37"></path>
        <path d="M21.8840941,0 C21.7747765,0 21.4653176,0 21.4128941,0 L5.1512,0 C3.99745882,0 3.05882353,0.9345 3.05882353,2.083125 L3.05882353,19.2835781 L0.494117647,19.2835781 C0.234258824,19.2835781 0.0235294118,19.4934844 0.0235294118,19.7523281 L0.0235294118,21.9154687 C0.0235294118,23.0649375 0.962164706,24 2.11590588,24 L6.6408,24 C6.90065882,24 7.11138824,23.7900938 7.11138824,23.53125 C7.11138824,23.2724062 6.90065882,23.0625 6.6408,23.0625 L2.11590588,23.0625 C1.48112941,23.0625 0.964705882,22.5479531 0.964705882,21.9155156 L0.964705882,20.221125 L16.5468706,20.221125 L16.5468706,21.9155156 C16.5468706,22.3390313 16.6746353,22.7332031 16.8933176,23.0625 L10.8707765,23.0625 C10.6109176,23.0625 10.4001882,23.2724062 10.4001882,23.53125 C10.4001882,23.7900938 10.6109176,24 10.8707765,24 L18.6392471,24 C19.7936941,24 20.7329412,23.0649375 20.7329412,21.9155156 L20.7329412,6.5911875 L23.5058824,6.5911875 C23.7657412,6.5911875 23.9764706,6.38128125 23.9764706,6.1224375 L23.9764706,2.083125 C23.9764706,0.9345 23.0378353,0 21.8840941,0 L21.8840941,0 Z M19.7917647,2.083125 L19.7917647,21.9155156 C19.7917647,22.5479531 19.2747765,23.0625 18.6392471,23.0625 C18.0044706,23.0625 17.4880471,22.5479531 17.4880471,21.9155156 L17.4880471,19.752375 C17.4880471,19.4935313 17.2773176,19.283625 17.0174588,19.283625 L4,19.283625 L4,2.083125 C4,1.4514375 4.51642353,0.9375 5.1512,0.9375 L20.1378353,0.9375 C19.9193882,1.26642188 19.7917647,1.66017188 19.7917647,2.083125 Z M23.0352941,5.6536875 L20.7329412,5.6536875 L20.7329412,2.083125 C20.7329412,1.45139063 21.2493647,0.9375 21.8840941,0.9375 C22.5188706,0.9375 23.0352941,1.4514375 23.0352941,2.083125 L23.0352941,5.6536875 Z" id="Shape" fill="#373A37"></path>
        <path d="M12.5512941,13.7290312 L17.5767529,13.7290312 C18.0216941,13.7290312 18.3836706,13.369125 18.3836706,12.9268125 L18.3836706,9.2675625 C18.3836706,8.82445312 18.0216941,8.4639375 17.5767529,8.4639375 L12.5512941,8.4639375 C12.1063059,8.4639375 11.7443294,8.82440625 11.7443294,9.2675625 L11.7443294,12.9268125 C11.7443294,13.369125 12.1063059,13.7290312 12.5512941,13.7290312 Z M12.6854588,9.40139062 L17.4424941,9.40139062 L17.4424941,12.7914844 L12.6854588,12.7914844 L12.6854588,9.40139062 Z" id="Shape" fill="#373A37"></path>
        <path d="M15.0339765,2.91065625 L17.9131294,2.91065625 C18.1729882,2.91065625 18.3837176,2.70075 18.3837176,2.44190625 C18.3837176,2.1830625 18.1729882,1.97315625 17.9131294,1.97315625 L15.0339765,1.97315625 C14.7741176,1.97315625 14.5633882,2.1830625 14.5633882,2.44190625 C14.5633882,2.70075 14.7740706,2.91065625 15.0339765,2.91065625 Z" id="Path" fill="#373A37"></path>
        <path d="M12.2148706,2.91065625 L13.1505882,2.91065625 C13.4104471,2.91065625 13.6211765,2.70075 13.6211765,2.44190625 C13.6211765,2.1830625 13.4104471,1.97315625 13.1505882,1.97315625 L12.2148706,1.97315625 C11.9550118,1.97315625 11.7442824,2.1830625 11.7442824,2.44190625 C11.7442824,2.70075 11.9550118,2.91065625 12.2148706,2.91065625 Z" id="Path" fill="#373A37"></path>
        <path d="M12.2148706,7.23825 L13.1505882,7.23825 C13.4104471,7.23825 13.6211765,7.02834375 13.6211765,6.7695 C13.6211765,6.51065625 13.4104471,6.30075 13.1505882,6.30075 L12.2148706,6.30075 C11.9550118,6.30075 11.7442824,6.51065625 11.7442824,6.7695 C11.7442824,7.02834375 11.9550118,7.23825 12.2148706,7.23825 Z" id="Path" fill="#373A37"></path>
        <path d="M12.2148706,5.07379688 L13.1505882,5.07379688 C13.4104471,5.07379688 13.6211765,4.86389063 13.6211765,4.60504688 C13.6211765,4.34620312 13.4104471,4.13629688 13.1505882,4.13629688 L12.2148706,4.13629688 C11.9550118,4.13629688 11.7442824,4.34620312 11.7442824,4.60504688 C11.7442824,4.86389063 11.9550118,5.07379688 12.2148706,5.07379688 Z" id="Path" fill="#373A37"></path>
        <path d="M15.0339765,7.23825 L17.9131294,7.23825 C18.1729882,7.23825 18.3837176,7.02834375 18.3837176,6.7695 C18.3837176,6.51065625 18.1729882,6.30075 17.9131294,6.30075 L15.0339765,6.30075 C14.7741176,6.30075 14.5633882,6.51065625 14.5633882,6.7695 C14.5633882,7.02834375 14.7740706,7.23825 15.0339765,7.23825 Z" id="Path" fill="#373A37"></path>
        <path d="M15.0339765,5.07379688 L17.9131294,5.07379688 C18.1729882,5.07379688 18.3837176,4.86389063 18.3837176,4.60504688 C18.3837176,4.34620312 18.1729882,4.13629688 17.9131294,4.13629688 L15.0339765,4.13629688 C14.7741176,4.13629688 14.5633882,4.34620312 14.5633882,4.60504688 C14.5633882,4.86389063 14.7740706,5.07379688 15.0339765,5.07379688 Z" id="Path" fill="#373A37"></path>
        <path d="M17.9130824,17.1191719 L15.4397176,17.1191719 C15.1798588,17.1191719 14.9691294,17.3290781 14.9691294,17.5879219 C14.9691294,17.8467656 15.1798588,18.0566719 15.4397176,18.0566719 L17.9130824,18.0566719 C18.1729412,18.0566719 18.3836706,17.8467656 18.3836706,17.5879219 C18.3836706,17.3290781 18.1729882,17.1191719 17.9130824,17.1191719 Z" id="Path" fill="#373A37"></path>
        <path d="M17.9130824,14.9560313 L10.5144,14.9560313 C10.2545412,14.9560313 10.0438118,15.1659375 10.0438118,15.4247813 C10.0438118,15.683625 10.2545412,15.8935313 10.5144,15.8935313 L17.9131294,15.8935313 C18.1729882,15.8935313 18.3837176,15.683625 18.3837176,15.4247813 C18.3837176,15.1659375 18.1729882,14.9560313 17.9130824,14.9560313 Z" id="Path" fill="#373A37"></path>
        <path d="M12.6153412,17.1191719 L5.68776471,17.1191719 C5.42790588,17.1191719 5.21717647,17.3290781 5.21717647,17.5879219 C5.21717647,17.8467656 5.42790588,18.0566719 5.68776471,18.0566719 L12.6153412,18.0566719 C12.8752,18.0566719 13.0859294,17.8467656 13.0859294,17.5879219 C13.0859294,17.3290781 12.8752471,17.1191719 12.6153412,17.1191719 Z" id="Path" fill="#373A37"></path>
        <path d="M5.68776471,15.8935313 L7.68865882,15.8935313 C7.94851765,15.8935313 8.15924706,15.683625 8.15924706,15.4247813 C8.15924706,15.1659375 7.94851765,14.9560313 7.68865882,14.9560313 L5.68776471,14.9560313 C5.42790588,14.9560313 5.21717647,15.1659375 5.21717647,15.4247813 C5.21717647,15.683625 5.42790588,15.8935313 5.68776471,15.8935313 L5.68776471,15.8935313 Z" id="Path" fill="#373A37"></path>
        <path d="M8.75515294,23.0625 C8.49529412,23.0625 8.28456471,23.2724062 8.28456471,23.53125 C8.28456471,23.7900938 8.49529412,24 8.75515294,24 L8.75783529,24 C9.01769412,24 9.22710588,23.7900938 9.22710588,23.53125 C9.22710588,23.2724062 9.01501176,23.0625 8.75515294,23.0625 Z" id="Path" fill="#373A37"></path>
    </g>
</svg>