<?xml version="1.0" encoding="UTF-8"?>
<svg width="24px" height="24px" viewBox="0 0 24 24" version="1.1" xmlns="http://www.w3.org/2000/svg" xmlns:xlink="http://www.w3.org/1999/xlink">
    <title>01 Icons/02 Categories/ic-battery</title>
    <g id="01-Icons/02-Categories/ic-battery" stroke="none" stroke-width="1" fill="none" fill-rule="evenodd">
        <g id="01-Icons/ic-ess" transform="translate(-0.000000, 0.000000)" fill="#000000" fill-rule="nonzero">
            <path d="M22.4234591,3.80058628 L11.9376415,3.80058628 C11.2816603,1.6057477 9.24644637,0 6.84105531,0 C4.43566425,0 2.4004503,1.6057477 1.7444691,3.80058628 L1.14017589,3.80058628 C0.511558914,3.80058628 0,4.3121452 0,4.94076217 L0,19.7630487 C0,20.3916656 0.511558914,20.9032246 1.14017589,20.9032246 L2.30657582,20.9032246 C2.49470484,22.4006556 3.77322206,23.563635 5.3208208,23.563635 C6.86841953,23.563635 8.14693676,22.4006556 8.33506578,20.9032246 L15.2289492,20.9032246 C15.4170783,22.4006556 16.6955955,23.563635 18.2431942,23.563635 C19.790793,23.563635 21.0693102,22.4006556 21.2574392,20.9032246 L22.4234591,20.9032246 C23.052076,20.9032246 23.563635,20.3916656 23.563635,19.7630487 L23.563635,4.94076217 C23.563635,4.3121452 23.052076,3.80058628 22.4234591,3.80058628 L22.4234591,3.80058628 Z M22.4234591,4.56070354 C22.6332514,4.56070354 22.8035177,4.73134986 22.8035177,4.94076217 L22.8035177,15.9624624 L20.5231659,15.9624624 L20.5231659,15.2023451 L20.9032246,15.2023451 C21.5318415,15.2023451 22.0434004,14.6907862 22.0434004,14.0621692 L22.0434004,12.5419347 C22.0434004,11.9133178 21.5318415,11.4017589 20.9032246,11.4017589 L20.5231659,11.4017589 L20.5231659,10.6416416 L20.9032246,10.6416416 C21.5318415,10.6416416 22.0434004,10.1300827 22.0434004,9.50146571 L22.0434004,7.9812312 C22.0434004,7.35261422 21.5318415,6.84105531 20.9032246,6.84105531 L20.5231659,6.84105531 L20.5231659,6.46099668 C20.5231659,6.25120432 20.3532797,6.08093805 20.1431073,6.08093805 L12.1010667,6.08093805 C12.1367922,5.83199965 12.1618761,5.57964072 12.1618761,5.3208208 C12.1618761,5.06200087 12.1371723,4.80964194 12.1010667,4.56070354 L22.4234591,4.56070354 Z M3.80058628,9.68123344 C4.66331937,10.2847665 5.71076095,10.6416416 6.84105531,10.6416416 C8.77783408,10.6416416 10.4709953,9.59838066 11.4017589,8.0473614 L11.4017589,15.9624624 L3.80058628,15.9624624 L3.80058628,9.68123344 Z M12.1618761,6.84105531 L19.7630487,6.84105531 L19.7630487,15.9624624 L12.1618761,15.9624624 L12.1618761,6.84105531 Z M20.5231659,7.60117257 L20.9032246,7.60117257 C21.1130169,7.60117257 21.2832832,7.77181889 21.2832832,7.9812312 L21.2832832,9.50146571 C21.2832832,9.71087801 21.1130169,9.88152434 20.9032246,9.88152434 L20.5231659,9.88152434 L20.5231659,7.60117257 Z M20.5231659,12.1618761 L20.9032246,12.1618761 C21.1130169,12.1618761 21.2832832,12.3321424 21.2832832,12.5419347 L21.2832832,14.0621692 C21.2832832,14.2719616 21.1130169,14.4422279 20.9032246,14.4422279 L20.5231659,14.4422279 L20.5231659,12.1618761 Z M6.84105531,0.760117257 C9.35590325,0.760117257 11.4017589,2.80597285 11.4017589,5.3208208 C11.4017589,7.83566874 9.35590325,9.88152434 6.84105531,9.88152434 C4.32620737,9.88152434 2.28035177,7.83566874 2.28035177,5.3208208 C2.28035177,2.80597285 4.32620737,0.760117257 6.84105531,0.760117257 Z M1.14017589,4.56070354 L1.58104389,4.56070354 C1.54493832,4.80964194 1.52023451,5.06200087 1.52023451,5.3208208 C1.52023451,6.76656382 2.10172421,8.07776609 3.04046903,9.03741412 L3.04046903,15.9624624 L0.760117257,15.9624624 L0.760117257,4.94076217 C0.760117257,4.73134986 0.930383522,4.56070354 1.14017589,4.56070354 Z M5.3208208,22.8035177 C4.0632068,22.8035177 3.04046903,21.7807799 3.04046903,20.5231659 C3.04046903,19.2655519 4.0632068,18.2428142 5.3208208,18.2428142 C6.5784348,18.2428142 7.60117257,19.2655519 7.60117257,20.5231659 C7.60117257,21.7807799 6.5784348,22.8035177 5.3208208,22.8035177 Z M18.2428142,22.8035177 C16.9852002,22.8035177 15.9624624,21.7807799 15.9624624,20.5231659 C15.9624624,19.2655519 16.9852002,18.2428142 18.2428142,18.2428142 C19.5004282,18.2428142 20.5231659,19.2655519 20.5231659,20.5231659 C20.5231659,21.7807799 19.5004282,22.8035177 18.2428142,22.8035177 Z M22.4234591,20.1431073 L21.2570591,20.1431073 C21.0689301,18.6456763 19.7904129,17.4826969 18.2428142,17.4826969 C16.6952154,17.4826969 15.4166982,18.6456763 15.2285692,20.1431073 L8.33506578,20.1431073 C8.14693676,18.6456763 6.86841953,17.4826969 5.3208208,17.4826969 C3.77322206,17.4826969 2.49470484,18.6456763 2.30657582,20.1431073 L1.14017589,20.1431073 C0.930383522,20.1431073 0.760117257,19.972841 0.760117257,19.7630487 L0.760117257,16.7225796 L22.8035177,16.7225796 L22.8035177,19.7630487 C22.8035177,19.972841 22.6332514,20.1431073 22.4234591,20.1431073 Z" id="Shape"></path>
            <path d="M18.5454534,19.1999989 C17.7031626,19.1999989 17.0181808,19.8849806 17.0181808,20.7272715 C17.0181808,21.5695624 17.7031626,22.2545441 18.5454534,22.2545441 C19.3877443,22.2545441 20.0727261,21.5695624 20.0727261,20.7272715 C20.0727261,19.8849806 19.3877443,19.1999989 18.5454534,19.1999989 Z M18.5454534,21.4909078 C18.124308,21.4909078 17.7818171,21.1484169 17.7818171,20.7272715 C17.7818171,20.3061261 18.124308,19.9636352 18.5454534,19.9636352 C18.9665989,19.9636352 19.3090898,20.3061261 19.3090898,20.7272715 C19.3090898,21.1484169 18.9665989,21.4909078 18.5454534,21.4909078 Z" id="Shape"></path>
            <path d="M5.45454513,19.1999989 C4.61225427,19.1999989 3.92727249,19.8849806 3.92727249,20.7272715 C3.92727249,21.5695624 4.61225427,22.2545441 5.45454513,22.2545441 C6.29683599,22.2545441 6.98181777,21.5695624 6.98181777,20.7272715 C6.98181777,19.8849806 6.29683599,19.1999989 5.45454513,19.1999989 Z M5.45454513,21.4909078 C5.0333997,21.4909078 4.69090881,21.1484169 4.69090881,20.7272715 C4.69090881,20.3061261 5.0333997,19.9636352 5.45454513,19.9636352 C5.87569056,19.9636352 6.21818145,20.3061261 6.21818145,20.7272715 C6.21818145,21.1484169 5.87569056,21.4909078 5.45454513,21.4909078 Z" id="Shape"></path>
            <path d="M10.1090905,11.3454539 L6.47272689,11.3454539 C6.27163599,11.3454539 6.10909054,11.5213957 6.10909054,11.7381811 L6.10909054,14.8799991 C6.10909054,15.0971773 6.27163599,15.2727264 6.47272689,15.2727264 L10.1090905,15.2727264 C10.3101812,15.2727264 10.4727266,15.0971773 10.4727266,14.8799991 L10.4727266,11.7381811 C10.4727266,11.5213957 10.3101812,11.3454539 10.1090905,11.3454539 Z M9.74545396,12.9163629 L8.65454494,12.9163629 L8.65454494,12.1309084 L9.74545396,12.1309084 L9.74545396,12.9163629 Z M7.92727225,12.1309084 L7.92727225,12.9163629 L6.83636323,12.9163629 L6.83636323,12.1309084 L7.92727225,12.1309084 Z M6.83636323,13.7018174 L7.92727225,13.7018174 L7.92727225,14.4872719 L6.83636323,14.4872719 L6.83636323,13.7018174 Z M8.65454494,14.4872719 L8.65454494,13.7018174 L9.74545396,13.7018174 L9.74545396,14.4872719 L8.65454494,14.4872719 Z" id="Shape"></path>
            <path d="M18.8181807,7.41818138 L13.4727265,7.41818138 C13.261581,7.41818138 13.0909083,7.58923591 13.0909083,7.79999954 L13.0909083,10.0909085 C13.0909083,10.3016721 13.261581,10.4727266 13.4727265,10.4727266 L18.8181807,10.4727266 C19.0293261,10.4727266 19.1999989,10.3016721 19.1999989,10.0909085 L19.1999989,7.79999954 C19.1999989,7.58923591 19.0293261,7.41818138 18.8181807,7.41818138 Z M18.4363625,9.70909033 L13.8545446,9.70909033 L13.8545446,8.18181769 L18.4363625,8.18181769 L18.4363625,9.70909033 Z" id="Shape"></path>
            <path d="M4.72749906,6.19622247 L5.71613279,6.19622247 L5.10237268,8.70257397 C5.06019485,8.87468394 5.1434597,9.0534706 5.30126295,9.12876871 C5.35034922,9.15250802 5.4027079,9.16363582 5.45470298,9.16363582 C5.56814679,9.16363582 5.67831818,9.10948052 5.74885696,9.01081403 L8.65767262,4.93062067 C8.73839226,4.81785897 8.74966392,4.66837552 8.68748798,4.54411508 C8.62567565,4.41985465 8.50023298,4.34158912 8.36351864,4.34158912 L7.32834387,4.34158912 L7.6326787,2.1687007 C7.65631283,1.99881628 7.56286713,1.83449577 7.40615469,1.77106731 C7.25126025,1.70875163 7.07127728,1.76290692 6.97455916,1.90348813 L4.42934546,5.61275482 C4.35153464,5.72588745 4.34208099,5.87388719 4.40498413,5.99666392 C4.46752366,6.11906972 4.59187553,6.19622247 4.72749906,6.19622247 L4.72749906,6.19622247 Z M6.69749447,3.60121949 L6.54914487,4.6598442 C6.53423719,4.76630016 6.56550696,4.87423982 6.63422773,4.95547276 C6.7036757,5.0367057 6.80366624,5.08344246 6.90911081,5.08344246 L7.64940439,5.08344246 L6.26153572,7.03080747 L6.53460079,5.91543098 C6.56187094,5.8045239 6.53750961,5.68731108 6.46842524,5.5971759 C6.39934086,5.50704072 6.2938963,5.45436913 6.18190689,5.45436913 L5.42597842,5.45436913 L6.69749447,3.60121949 Z" id="Shape"></path>
        </g>
    </g>
</svg>