<svg xmlns="http://www.w3.org/2000/svg" width="24" height="24" viewBox="0 0 24 24">
    <g fill="none" fill-rule="evenodd">
        <g fill="#000" fill-rule="nonzero">
            <g>
                <g>
                    <g>
                        <g>
                            <path d="M8.118 18.097h-.993c-.19 0-.342-.154-.342-.343 0-.189.153-.342.342-.342h.993c.189 0 .342.153.342.342 0 .19-.153.343-.342.343z" transform="translate(-110 -381) translate(98 222) translate(0 147) translate(12 12) translate(0 3)"/>
                            <path d="M21.741 18.097h-7.813c-.19 0-.342-.154-.342-.343 0-.189.153-.342.342-.342h7.813V6.456H2.225v10.956h2.503c.19 0 .343.153.343.342 0 .19-.154.343-.343.343H2.225c-.378 0-.684-.307-.684-.685V6.113c0-.189.153-.342.342-.342h20.2c.19 0 .343.153.343.342v11.299c0 .378-.307.685-.685.685z" transform="translate(-110 -381) translate(98 222) translate(0 147) translate(12 12) translate(0 3)"/>
                            <path d="M11.531 18.097h-1.017c-.189 0-.342-.154-.342-.343 0-.189.153-.342.342-.342h1.017c.19 0 .343.153.343.342 0 .19-.154.343-.343.343zM23.282 6.456H.685C.307 6.456 0 6.149 0 5.77V4.059c0-.378.307-.685.685-.685h22.597c.378 0 .685.307.685.685v1.712c0 .378-.307.685-.685.685zM.685 4.059v1.712h22.597V4.059H.685z" transform="translate(-110 -381) translate(98 222) translate(0 147) translate(12 12) translate(0 3)"/>
                            <path d="M21.228 4.06h-5.136c-.19 0-.343-.154-.343-.343V2.422c0-.42.34-.76.76-.76h4.301c.42 0 .76.34.76.76v1.295c0 .189-.153.342-.342.342zm-4.794-.686h4.451v-.952c0-.041-.033-.075-.075-.075h-4.3c-.042 0-.076.034-.076.075v.952z" transform="translate(-110 -381) translate(98 222) translate(0 147) translate(12 12) translate(0 3)"/>
                            <path d="M20.03 2.347h-2.74c-.189 0-.342-.153-.342-.342V.706c0-.37.3-.67.67-.67h2.083c.37 0 .67.3.67.67v1.299c0 .189-.153.342-.342.342zm-2.401-.685h2.058V.706l-2.069.015.01.941zM7.875 4.06H2.739c-.19 0-.342-.154-.342-.343V2.422c0-.42.34-.76.76-.76h4.3c.42 0 .76.34.76.76v1.295c0 .189-.153.342-.342.342zM3.08 3.373h4.451v-.952c0-.02-.008-.039-.022-.053-.014-.014-.033-.022-.053-.022h-4.3c-.042 0-.076.034-.076.075v.952z" transform="translate(-110 -381) translate(98 222) translate(0 147) translate(12 12) translate(0 3)"/>
                            <path d="M6.676 2.347H3.937c-.189 0-.342-.153-.342-.342V.706c0-.37.3-.67.67-.67h2.083c.37 0 .67.3.67.67v1.299c0 .189-.153.342-.342.342zm-2.4-.685h2.058V.706L4.265.721l.011.941zM10.483 15.491c-.107 0-.208-.05-.273-.135-.065-.085-.086-.195-.057-.298l.795-2.882h-1.35c-.118 0-.226-.06-.288-.16-.063-.098-.07-.222-.02-.327l1.457-3.116c.056-.12.176-.197.308-.198h2.243c.118 0 .227.061.29.16.062.1.069.225.018.33l-.708 1.484 1.49.084c.131.008.246.09.297.211.05.121.027.26-.06.359l-3.887 4.373c-.065.073-.158.115-.255.115zm-.349-4h1.264c.107 0 .207.05.272.135.065.085.086.196.058.299l-.524 1.897 2.44-2.744-1.294-.074c-.114-.006-.217-.07-.275-.167-.058-.099-.064-.22-.014-.322l.694-1.454h-1.482l-1.139 2.43z" transform="translate(-110 -381) translate(98 222) translate(0 147) translate(12 12) translate(0 3)"/>
                        </g>
                    </g>
                </g>
            </g>
        </g>
    </g>
</svg>
