<?xml version="1.0" encoding="UTF-8"?>
<svg width="24px" height="24px" viewBox="0 0 24 24" version="1.1" xmlns="http://www.w3.org/2000/svg" xmlns:xlink="http://www.w3.org/1999/xlink">
    <title>01 Icons/02 Categories/ic-ddr (1)</title>
    <g id="01-Icons/02-Categories/ic-ddr-(1)" stroke="none" stroke-width="1" fill="none" fill-rule="evenodd">
        <g id="motor" transform="translate(0.000000, 4.000000)" fill="#000000" fill-rule="nonzero">
            <path d="M14.000061,8.97214286 L12.9508667,8.97214286 L13.4820557,7.24571429 C13.5545654,7.00946427 13.5084229,6.75357143 13.3573608,6.55589285 C13.2064819,6.3580357 12.9684448,6.24142857 12.7155762,6.24160693 L11.1507568,6.24160693 C10.7979126,6.24321426 10.4873657,6.46857143 10.3844604,6.79785714 L9.4244385,9.91857143 C9.35174559,10.1548214 9.39807131,10.4107143 9.54913331,10.6085714 C9.70019531,10.80625 9.93823242,10.9228571 10.1912842,10.9226786 L11.4979248,10.9226786 L10.473999,13.9201786 C10.4133911,14.0980357 10.4910278,14.2926786 10.6587525,14.3839286 C10.8264771,14.4751786 11.0372315,14.4371429 11.1604614,14.2933929 L14.6140137,10.2521429 C14.8128662,10.0196429 14.8557129,9.69589285 14.7242432,9.42178569 C14.5927734,9.14749998 14.3104248,8.97232142 14.000061,8.97214286 L14.000061,8.97214286 Z M11.9036865,12.2057143 L12.4332276,10.6558928 C12.473877,10.5367857 12.4533691,10.4058928 12.3779297,10.3042857 C12.3026733,10.2025 12.1818237,10.1423214 12.0532837,10.1425 L10.1912842,10.1425 L11.151123,7.02178569 L12.7159424,7.02178569 L12.1847534,8.74821431 C12.1122436,8.98446427 12.1583862,9.24017856 12.3092651,9.43785714 C12.460144,9.63571429 12.697998,9.75232142 12.9508667,9.75232142 L14.000061,9.75232142 L11.9036865,12.2057143 Z" id="Shape"></path>
            <path d="M23.2000122,4.29107145 L22.4000244,4.29107145 C21.9581909,4.29107145 21.6000366,4.64035712 21.6000366,5.07125001 L21.6000366,7.02178569 L20.8000488,7.02178569 L20.8000488,5.07125001 C20.8000488,4.42482144 20.2628174,3.90089285 19.5999756,3.90089285 L13.2000732,3.90089285 L13.2000732,3.12071429 L15.1999512,3.12071429 C15.6417847,3.12071429 15.999939,2.77142857 15.999939,2.34053573 L15.999939,1.95053573 C15.9986573,0.873749989 15.1040039,0.00125000229 14.000061,0 L9.99993895,0 C8.89599609,0.00125000229 8.00134275,0.873749989 8.00006105,1.95053573 L8.00006105,2.34053573 C8.00006105,2.77142857 8.35821534,3.12071429 8.80004883,3.12071429 L10.7999268,3.12071429 L10.7999268,3.90089285 L10.3639526,3.90089285 C10.0477295,3.90267858 9.73883058,3.99321426 9.47406005,4.1619643 L6.4883423,6.1080357 C6.35375977,6.19392859 6.19683839,6.24017856 6.03607177,6.24160713 L4.79992678,6.24160713 C4.13726808,6.24160713 3.60003661,6.76553573 3.60003661,7.41178569 L3.60003661,10.1425 L2.39996339,10.1425 L2.39996339,8.1919643 C2.39996339,7.76107145 2.04180909,7.41178569 1.59997556,7.41178569 L0.799987781,7.41178569 C0.358154297,7.41178569 0,7.76107145 0,8.1919643 L0,14.4335714 C0,14.8644643 0.358154297,15.21375 0.799987781,15.21375 L1.59997556,15.21375 C2.04180909,15.21375 2.39996339,14.8644643 2.39996339,14.4335714 L2.39996339,12.4830357 L3.60003661,12.4830357 L3.60003661,14.8235714 C3.60003661,15.47 4.13726808,15.9939286 4.79992678,15.9939286 L13.2000732,15.9939286 C13.5461426,15.9930357 13.8826904,15.88375 14.1599121,15.6817857 L18.3200684,12.6391072 C18.4588623,12.5383929 18.6269531,12.48375 18.7999878,12.4830357 L19.5999756,12.4830357 C20.2628174,12.4830357 20.8000488,11.9591072 20.8000488,11.3126786 L20.8000488,9.36232142 L21.6000366,9.36232142 L21.6000366,11.3126786 C21.6000366,11.7435714 21.9581909,12.0930357 22.4000244,12.0930357 L23.2000122,12.0930357 C23.6418457,12.0930357 24,11.7435714 24,11.3126786 L24,5.07125001 C24,4.64035712 23.6418457,4.29107145 23.2000122,4.29107145 L23.2000122,4.29107145 Z M8.80004883,1.95053573 C8.80004883,1.30410715 9.33728025,0.78017856 9.99993895,0.78017856 L14.000061,0.78017856 C14.6627197,0.78017856 15.1999512,1.30410715 15.1999512,1.95053573 L15.1999512,2.34053573 L8.80004883,2.34053573 L8.80004883,1.95053573 Z M11.5999146,3.12071429 L12.4000854,3.12071429 L12.4000854,3.90089285 L11.5999146,3.90089285 L11.5999146,3.12071429 Z M1.59997556,14.4335714 L0.799987781,14.4335714 L0.799987781,8.1919643 L1.59997556,8.1919643 L1.59997556,14.4335714 Z M2.39996339,11.7028571 L2.39996339,10.9226786 L3.60003661,10.9226786 L3.60003661,11.7028571 L2.39996339,11.7028571 Z M20.000061,11.3126786 C20.000061,11.5282143 19.8209839,11.7028571 19.5999756,11.7028571 L18.7999878,11.7028571 C18.4539185,11.7035714 18.1173706,11.8130357 17.8399658,12.015 L13.6799927,15.0576786 C13.5411987,15.1583929 13.3729248,15.2130357 13.2000732,15.21375 L4.79992678,15.21375 C4.57910156,15.21375 4.40002444,15.0391072 4.40002444,14.8235714 L4.40002444,7.41178569 C4.40002444,7.19642857 4.57910156,7.02178569 4.79992678,7.02178569 L6.03607177,7.02178569 C6.35229492,7.02 6.66119386,6.92946427 6.92596434,6.76071429 L9.91168214,4.81464283 C10.0462646,4.72874999 10.203186,4.68250002 10.3639526,4.68107145 L19.5999756,4.68107145 C19.8209839,4.68107145 20.000061,4.85571429 20.000061,5.07125001 L20.000061,11.3126786 Z M20.8000488,8.58214286 L20.8000488,7.8019643 L21.6000366,7.8019643 L21.6000366,8.58214286 L20.8000488,8.58214286 Z M23.2000122,11.3126786 L22.4000244,11.3126786 L22.4000244,5.07125001 L23.2000122,5.07125001 L23.2000122,11.3126786 Z" id="Shape"></path>
            <path d="M5.88391116,7.915 C5.72351072,7.77071429 5.47631836,7.77071429 5.31591797,7.915 C5.28076172,7.9530357 5.25238036,7.99642857 5.23205569,8.04374999 C5.2095337,8.09 5.19854737,8.14089285 5.20001222,8.1919643 C5.19799805,8.35071429 5.29504397,8.49482144 5.44519041,8.55625001 C5.59533694,8.61767858 5.76873778,8.58428571 5.88354492,8.47160713 C5.99835206,8.35910715 6.03186037,8.18982144 5.96795653,8.04374999 C5.94763181,7.99642857 5.9192505,7.9530357 5.88391116,7.915 Z" id="Path"></path>
            <path d="M5.59991456,9.36232142 C5.37908934,9.36232142 5.20001222,9.5369643 5.20001222,9.75232142 L5.20001222,13.2632143 C5.20001222,13.47875 5.37908934,13.6533929 5.59991456,13.6533929 C5.82092287,13.6533929 6,13.47875 6,13.2632143 L6,9.75232142 C6,9.5369643 5.82092287,9.36232142 5.59991456,9.36232142 Z" id="Path"></path>
        </g>
    </g>
</svg>