<?xml version="1.0" encoding="UTF-8"?>
<svg width="24px" height="24px" viewBox="0 0 24 24" version="1.1" xmlns="http://www.w3.org/2000/svg" xmlns:xlink="http://www.w3.org/1999/xlink">
    <title>01 Icons/02 Categories/ic-ess (1)</title>
    <g id="01-Icons/02-Categories/ic-ess-(1)" stroke="none" stroke-width="1" fill="none" fill-rule="evenodd">
        <g id="01-Icons/ic-ddr" transform="translate(0.000000, 0.000000)" fill="#000000" fill-rule="nonzero">
            <path d="M20.0442632,12.6148125 L20.0442632,10.8028594 C21.4137153,10.7672812 22.5166099,9.68015625 22.5166099,8.34801562 L22.5166099,6.83010937 C22.9537177,6.8278125 23.3086583,6.4839375 23.3086583,6.06126562 L23.3086583,4.23829687 C23.3086583,3.81421875 22.9514352,3.46926562 22.5122879,3.46926562 L21.7589921,3.46926562 L21.7589921,0.46875 C21.7589921,0.20990625 21.5415308,-1.33226763e-15 21.2733707,-1.33226763e-15 C21.0052106,-1.33226763e-15 20.7877494,0.20990625 20.7877494,0.46875 L20.7877494,3.46926562 L18.3295828,3.46926562 L18.3295828,0.46875 C18.3295828,0.20990625 18.1121216,-1.33226763e-15 17.8439615,-1.33226763e-15 C17.5758014,-1.33226763e-15 17.3583402,0.20990625 17.3583402,0.46875 L17.3583402,3.46926562 L16.6064041,3.46926562 C16.1664797,3.46926562 15.8086254,3.81421875 15.8086254,4.23829687 L15.8086254,6.0613125 C15.8086254,6.48351562 16.1634203,6.8270625 16.6007223,6.8300625 L16.6007223,8.34801562 C16.6007223,9.68020312 17.7036169,10.7673281 19.0730691,10.8028594 L19.0730691,12.6148125 C16.9252631,12.8486719 15.2503551,14.6141719 15.2503551,16.7507813 C15.2503551,18.8880938 16.9252631,20.6541094 19.0730691,20.8880625 L19.0730691,21.2577656 C19.0730691,22.252875 18.2354694,23.0624531 17.2059522,23.0624531 L8.53474629,23.0624531 C7.50522908,23.0624531 6.66762941,22.252875 6.66762941,21.2577656 L6.66762941,19.9314375 L11.0098611,19.9314375 C11.7439263,19.9314375 12.341192,19.3545469 12.341192,18.6455156 L12.341192,13.1100469 C12.341192,12.8512031 12.1237307,12.6412969 11.8555706,12.6412969 C11.5874105,12.6412969 11.3699493,12.8512031 11.3699493,13.1100469 L11.3699493,18.6455156 C11.3699493,18.834375 11.2050809,18.9939375 11.0099096,18.9939375 L1.35556338,18.9939375 C1.16039217,18.9939375 0.995523724,18.8344219 0.995523724,18.6455156 L0.995523724,3.36403125 C0.995523724,3.17517187 1.16039217,3.01560937 1.35556338,3.01560937 L2.7581349,3.01560937 L9.60592982,3.01560937 L11.0098611,3.01560937 C11.2050323,3.01560937 11.3699007,3.175125 11.3699007,3.36403125 L11.3699007,8.90076562 C11.3699007,9.15960937 11.5873134,9.36951562 11.8555221,9.36951562 C12.1237307,9.36951562 12.3411434,9.15960937 12.3411434,8.90076562 L12.3411434,3.36403125 C12.3411434,2.655 11.7439263,2.07810937 11.0098125,2.07810937 L10.0915026,2.07810937 L10.0915026,1.50778125 C10.0915511,0.67640625 9.39133376,-1.33226763e-15 8.53061851,-1.33226763e-15 L3.83339765,-1.33226763e-15 C2.97273096,-1.33226763e-15 2.27251357,0.67640625 2.27251357,1.50778125 L2.27251357,2.07810937 L1.35556338,2.07810937 C0.621498177,2.07810937 0.0242810664,2.655 0.0242810664,3.36403125 L0.0242810664,18.6456094 C0.0242810664,19.3546406 0.621498177,19.9315312 1.35556338,19.9315312 L5.69638675,19.9315312 L5.69638675,21.2578125 C5.69638675,22.7698594 6.96968587,24 8.53474629,24 L17.2059036,24 C18.7710126,24 20.0442632,22.7698594 20.0442632,21.2578125 L20.0442632,20.8881094 C22.1928462,20.65425 23.8682883,18.8881406 23.8682883,16.7507812 C23.8682883,14.614125 22.1928462,12.848625 20.0442632,12.6148125 L20.0442632,12.6148125 Z M3.24375623,1.50778125 C3.24375623,1.19334375 3.50827417,0.9375 3.83339765,0.9375 L8.53061851,0.9375 C8.85579055,0.9375 9.12030849,1.19334375 9.12030849,1.50778125 L9.12030849,2.07810937 L3.24375623,2.07810937 L3.24375623,1.50778125 Z M16.7798195,4.40676562 L22.3373671,4.40676562 L22.3373671,5.89284375 L16.7798195,5.89284375 L16.7798195,4.40676562 Z M17.5719164,8.34801563 L17.5719164,6.83034375 L21.5453673,6.83034375 L21.5453673,8.34801563 C21.5453673,9.185625 20.8410221,9.86704688 19.9752564,9.86704688 L19.1419787,9.86704688 C18.2762616,9.86704688 17.5719164,9.185625 17.5719164,8.34801563 Z M19.5586418,19.9772344 C17.7185741,19.9772344 16.2215492,18.529875 16.2215492,16.7508281 C16.2215492,14.9724844 17.7185741,13.5257344 19.5586418,13.5257344 C21.399438,13.5257344 22.8970457,14.9724844 22.8970457,16.7508281 C22.8970457,18.529875 21.399438,19.9772344 19.5586418,19.9772344 Z" id="Shape"></path>
            <path d="M20.3603055,16.2820781 L19.5408681,16.2820781 L20.1886384,15.0249844 C20.3081012,14.7932344 20.2102485,14.5118437 19.9701088,14.3965781 C19.729969,14.2812187 19.4384506,14.3757187 19.3190848,14.6075156 L18.3222014,16.5420937 C18.1647629,16.8482812 18.4037372,17.2195781 18.7579979,17.2195781 L19.5770954,17.2195781 L18.9297622,18.4783594 C18.8104936,18.71025 18.9085406,18.9915469 19.148826,19.106625 C19.2182213,19.1398594 19.2918415,19.1556094 19.3643447,19.1556094 C19.5430048,19.1556094 19.7149148,19.060125 19.7997043,18.8951719 L20.7952765,16.9592344 C20.8043091,16.9416562 20.8119334,16.9231406 20.8186349,16.904625 C20.9261515,16.6059844 20.6888769,16.2820781 20.3603055,16.2820781 L20.3603055,16.2820781 Z" id="Path"></path>
            <path d="M2.54771518,4.04728125 C2.27950652,4.04728125 2.06209385,4.2571875 2.06209385,4.51603125 L2.06209385,17.4935625 C2.06209385,17.7524062 2.27950652,17.9623125 2.54771518,17.9623125 L9.81766072,17.9623125 C10.0858694,17.9623125 10.303282,17.7524062 10.303282,17.4935625 L10.303282,4.51603125 C10.303282,4.2571875 10.0858694,4.04728125 9.81766072,4.04728125 L2.54771518,4.04728125 Z M9.33203939,17.0248125 L3.03333651,17.0248125 L3.03333651,14.7760312 L9.33203939,14.7760312 L9.33203939,17.0248125 Z M9.33203939,13.8385781 L3.03333651,13.8385781 L3.03333651,11.7492187 L9.33203939,11.7492187 L9.33203939,13.8385781 Z M9.33203939,10.8117187 L3.03333651,10.8117187 L3.03333651,8.44603125 L9.33203939,8.44603125 L9.33203939,10.8117187 Z M9.33203939,7.50857812 L3.03333651,7.50857812 L3.03333651,4.98478125 L9.33203939,4.98478125 L9.33203939,7.50857812 Z" id="Shape"></path>
            <path d="M11.8555221,10.5367031 C11.5873134,10.5367031 11.3699007,10.7466094 11.3699007,11.0054531 L11.3699007,11.0067656 C11.3699007,11.2656094 11.5873134,11.4748594 11.8555221,11.4748594 C12.1237307,11.4748594 12.3411434,11.2642969 12.3411434,11.0054063 C12.3411434,10.7465156 12.1237307,10.5367031 11.8555221,10.5367031 L11.8555221,10.5367031 Z" id="Path"></path>
        </g>
    </g>
</svg>