<?xml version="1.0" encoding="UTF-8"?>
<svg width="24px" height="24px" viewBox="0 0 24 24" version="1.1" xmlns="http://www.w3.org/2000/svg" xmlns:xlink="http://www.w3.org/1999/xlink">
    <title>01 Icons/02 Categories/ic-electric</title>
    <g id="01-Icons/02-Categories/ic-electric" stroke="none" stroke-width="1" fill="none" fill-rule="evenodd">
        <g id="generator" fill="#000000" fill-rule="nonzero">
            <path d="M22.8,4.8 L20,4.8 L20,4 L20.4,4 C20.6209139,4 20.8,3.8209139 20.8,3.6 L20.8,3.2 L21.2,3.2 C21.8627417,3.2 22.4,2.6627417 22.4,2 L22.4,0 L21.6,0 L21.6,2 C21.6,2.2209139 21.4209139,2.4 21.2,2.4 L20.8,2.4 L20.8,2 C20.8,1.7790861 20.6209139,1.6 20.4,1.6 L13.2,1.6 C12.9790861,1.6 12.8,1.7790861 12.8,2 L12.8,3.6 C12.8,3.8209139 12.9790861,4 13.2,4 L13.6,4 L13.6,4.8 L1.2,4.8 C0.5372583,4.8 0,5.3372583 0,6 L0,22 C0,22.2209139 0.1790861,22.4 0.4,22.4 L2,22.4 L2,23.6 C2,23.8209139 2.1790861,24 2.4,24 L6.4,24 C6.6209139,24 6.8,23.8209139 6.8,23.6 L6.8,22.4 L17.2,22.4 L17.2,23.6 C17.2,23.8209139 17.3790861,24 17.6,24 L21.6,24 C21.8209139,24 22,23.8209139 22,23.6 L22,22.4 L23.6,22.4 C23.8209139,22.4 24,22.2209139 24,22 L24,6 C24,5.3372583 23.4627417,4.8 22.8,4.8 Z M13.6,2.4 L20,2.4 L20,3.2 L13.6,3.2 L13.6,2.4 Z M19.2,4 L19.2,4.8 L18.4,4.8 L18.4,4 L19.2,4 Z M17.6,4 L17.6,4.8 L16,4.8 L16,4 L17.6,4 Z M15.2,4 L15.2,4.8 L14.4,4.8 L14.4,4 L15.2,4 Z M6,23.2 L2.8,23.2 L2.8,22.4 L6,22.4 L6,23.2 Z M21.2,23.2 L18,23.2 L18,22.4 L21.2,22.4 L21.2,23.2 Z M23.2,21.6 L0.8,21.6 L0.8,20 L23.2,20 L23.2,21.6 Z M3.6,17.2 L2.8,17.2 L2.8,16.4 L3.6,16.4 L3.6,17.2 Z M3.6,9.2 L2.8,9.2 L2.8,8.4 L3.6,8.4 L3.6,9.2 Z M4.4,19.2 L4.4,7.2 L10,7.2 L10,19.2 L4.4,19.2 Z M10.8,19.2 L10.8,7.2 L12.4,7.2 L12.4,19.2 L10.8,19.2 Z M13.2,19.2 L13.2,7.2 L20.4,7.2 L20.4,19.2 L13.2,19.2 Z M23.2,19.2 L21.2,19.2 L21.2,6.8 C21.2,6.5790861 21.0209139,6.4 20.8,6.4 L4,6.4 C3.7790861,6.4 3.6,6.5790861 3.6,6.8 L3.6,7.6 L2.4,7.6 C2.1790861,7.6 2,7.7790861 2,8 L2,9.6 C2,9.8209139 2.1790861,10 2.4,10 L3.6,10 L3.6,15.6 L2.4,15.6 C2.1790861,15.6 2,15.7790861 2,16 L2,17.6 C2,17.8209139 2.1790861,18 2.4,18 L3.6,18 L3.6,19.2 L0.8,19.2 L0.8,6 C0.8,5.7790861 0.9790861,5.6 1.2,5.6 L22.8,5.6 C23.0209139,5.6 23.2,5.7790861 23.2,6 L23.2,19.2 Z" id="Shape"></path>
            <path d="M8.8,8 L5.6,8 C5.3790861,8 5.2,8.1790861 5.2,8.4 L5.2,11.6 C5.2,11.8209139 5.3790861,12 5.6,12 L8.8,12 C9.0209139,12 9.2,11.8209139 9.2,11.6 L9.2,8.4 C9.2,8.1790861 9.0209139,8 8.8,8 Z M8.4,11.2 L6,11.2 L6,8.8 L8.4,8.8 L8.4,11.2 Z" id="Shape"></path>
            <path d="M16.7156,14.2456 L19.5156,10.6456 C19.6093927,10.5250281 19.626325,10.3615645 19.5592372,10.2243279 C19.4921494,10.0870913 19.3527568,10.0000467 19.2,10 L17.9068,10 L18.7428,8.606 C18.8170307,8.48244694 18.819048,8.32851182 18.7480806,8.20305594 C18.6771131,8.07760007 18.5441373,8 18.4,8 L16.4,8 C16.2547858,8 16.1209741,8.07868873 16.0504,8.2056 L14.0504,11.8056 C13.9815046,11.9294924 13.9833299,12.0805958 14.0551979,12.2027878 C14.1270659,12.3249798 14.25824,12.4000058 14.4,12.4 L16,12.4 L16,14 C16.0000098,14.1709567 16.1086652,14.32301 16.2704,14.3784 C16.312132,14.3926235 16.3559108,14.39992 16.4,14.4 C16.5233826,14.4 16.6398431,14.3429866 16.7156,14.2456 L16.7156,14.2456 Z M15.08,11.6 L16.636,8.8 L17.6936,8.8 L16.8576,10.194 C16.783406,10.3174918 16.7813513,10.471341 16.8522208,10.5967702 C16.9230903,10.7221993 17.0559343,10.7998286 17.2,10.8 L18.382,10.8 L16.8,12.834 L16.8,12 C16.8,11.7790861 16.6209139,11.6 16.4,11.6 L15.08,11.6 Z" id="Shape"></path>
            <polygon id="Path" points="5.2 12.8 9.2 12.8 9.2 13.6 5.2 13.6"></polygon>
            <polygon id="Path" points="5.2 14.4 6.8 14.4 6.8 15.2 5.2 15.2"></polygon>
            <polygon id="Path" points="7.6 14.4 9.2 14.4 9.2 15.2 7.6 15.2"></polygon>
            <path d="M18.8,17.6 L18,17.6 L18,18.4 L19.2,18.4 C19.4209139,18.4 19.6,18.2209139 19.6,18 L19.6,15.6 L18.8,15.6 L18.8,17.6 Z" id="Path"></path>
            <polygon id="Path" points="16.4 17.6 17.2 17.6 17.2 18.4 16.4 18.4"></polygon>
            <polygon id="Path" points="14.8 17.6 15.6 17.6 15.6 18.4 14.8 18.4"></polygon>
        </g>
    </g>
</svg>