<?xml version="1.0" encoding="UTF-8"?>
<svg width="24px" height="24px" viewBox="0 0 24 24" version="1.1" xmlns="http://www.w3.org/2000/svg" xmlns:xlink="http://www.w3.org/1999/xlink">
    <title>01 Icons/02 Categories/ic-ev</title>
    <g id="01-Icons/02-Categories/ic-ev" stroke="none" stroke-width="1" fill="none" fill-rule="evenodd">
        <g id="01-Icons/ic-ev" transform="translate(0.000000, 0.000000)" fill="#000000" fill-rule="nonzero">
            <path d="M4.38030439,19.403118 C3.55558553,19.403118 2.8870188,20.1210579 2.8870188,21.0066815 C2.8870188,21.8923052 3.55558553,22.610245 4.38030439,22.610245 C5.20502324,22.610245 5.87358997,21.8923052 5.87358997,21.0066815 C5.87265731,20.121473 5.20463661,19.4041196 4.38030439,19.403118 L4.38030439,19.403118 Z M4.38030439,21.7550111 C3.99543559,21.7550111 3.68343778,21.4199726 3.68343778,21.0066815 C3.68343778,20.5933905 3.99543559,20.2583519 4.38030439,20.2583519 C4.76517319,20.2583519 5.07717099,20.5933905 5.07717099,21.0066815 C5.07675948,21.4197894 4.7650026,21.7545692 4.38030439,21.7550111 Z" id="Shape"></path>
            <path d="M20.6571173,19.403118 C19.8323984,19.403118 19.1638317,20.1210579 19.1638317,21.0066815 C19.1638317,21.8923052 19.8323984,22.610245 20.6571173,22.610245 C21.4818361,22.610245 22.1504029,21.8923052 22.1504029,21.0066815 C22.1494702,20.121473 21.4814495,19.4041196 20.6571173,19.403118 L20.6571173,19.403118 Z M20.6571173,21.7550111 C20.2722485,21.7550111 19.9602507,21.4199726 19.9602507,21.0066815 C19.9602507,20.5933905 20.2722485,20.2583519 20.6571173,20.2583519 C21.0419861,20.2583519 21.3539839,20.5933905 21.3539839,21.0066815 C21.3535724,21.4197894 21.0418155,21.7545692 20.6571173,21.7550111 Z" id="Shape"></path>
            <path d="M23.7622553,16.8417461 L19.8946457,13.0657283 C19.4915608,12.6719394 18.9661039,12.4539129 18.421171,12.454343 L12.8578858,12.454343 L14.218916,10.9928018 C14.3328093,10.8705039 14.3668812,10.6865728 14.3052434,10.5267791 C14.2436057,10.3669855 14.0983974,10.2627999 13.9373321,10.2628062 L12.9076122,10.2628062 L13.8173715,9.28596882 C16.0803785,9.09644292 17.8213653,7.05952372 17.8036616,4.62209033 C17.7859579,2.18465694 16.0155955,0.177147495 13.7501108,0.0255505729 C11.4846261,-0.126046349 9.4958742,1.62991861 9.19651958,4.04613576 C8.89716496,6.46235291 10.3891983,8.71561254 12.6127878,9.20536303 C12.6557944,9.21487751 12.6993486,9.22220045 12.7427534,9.23032517 L11.664651,10.3880445 C11.5507514,10.5103493 11.5166826,10.6942934 11.5783331,10.8540919 C11.6399837,11.0138903 11.7852104,11.118068 11.9462847,11.1180401 L12.9760047,11.1180401 L11.7316,12.454343 L10.6974002,12.454343 C10.1162855,12.452545 9.55866122,12.7005166 9.14886303,13.1429666 L9.14886303,13.1429666 L9.14886303,13.1429666 L7.00281253,15.4476615 L3.33052462,15.4476615 C2.63101429,15.4485998 1.95246528,15.7041864 1.4056795,16.172686 L1.15635058,16.387029 C0.984907292,16.5343031 0.828722763,16.7009644 0.690495255,16.8841336 L0.68795667,16.8872873 C0.68755846,16.8878753 0.687060698,16.8883563 0.686662489,16.8889443 C0.267542375,17.4464964 0.027499746,18.134607 0.00233948075,18.850637 C0.000647090421,18.8902984 -1.25683074e-06,18.9304944 -1.25683074e-06,18.9701559 L-1.25683074e-06,19.4651225 C-0.000929811301,20.5714734 0.514102604,21.6048245 1.37188147,22.2176392 C1.43730629,22.2645089 1.51419054,22.2895249 1.59283796,22.2895323 L1.91747825,22.2895323 C2.37496639,23.3029686 3.33152224,23.9465507 4.38030439,23.9465507 C5.42908653,23.9465507 6.38564239,23.3029686 6.84313053,22.2895323 L18.1942911,22.2895323 C18.7400401,23.4982833 19.9794437,24.1559414 21.2050918,23.8871374 C22.4307399,23.6183335 23.3307485,22.4914685 23.3914227,21.1497194 L23.7004831,20.3221737 C23.8275138,19.981266 23.8925696,19.617432 23.8925696,19.250245 L23.8925696,17.1581292 C23.8925696,17.037665 23.8452538,16.9227884 23.7622553,16.8417461 Z M15.0821844,4.65033408 L15.0821844,5.98663697 C15.0821844,6.16361693 14.8624226,6.36080178 14.5470904,6.36080178 L12.4316025,6.36080178 C12.1162704,6.36080178 11.8965085,6.16361693 11.8965085,5.98663697 L11.8965085,4.65033408 L15.0821844,4.65033408 Z M13.091137,7.21603563 L13.887556,7.21603563 L13.887556,8.42057906 C13.6228938,8.45208856 13.3557992,8.45208856 13.091137,8.42057906 L13.091137,7.21603563 Z M9.95523724,4.65033408 C9.95547349,2.72281434 11.3011992,1.10163086 13.0843367,0.880736645 C14.8674741,0.659842428 16.5215953,1.9094063 16.9305213,3.78623921 C17.3394473,5.66307212 16.3732794,7.57098299 14.6839749,8.22253898 L14.6839749,7.20956793 C15.3541117,7.14606682 15.8786034,6.62159465 15.8786034,5.98663697 L15.8786034,4.22271715 C15.8786034,3.98655084 15.7003189,3.79510022 15.4803939,3.79510022 L15.0821844,3.79510022 L15.0821844,2.51224944 C15.0821844,2.27608314 14.9039,2.08463252 14.6839749,2.08463252 C14.4640499,2.08463252 14.2857654,2.27608314 14.2857654,2.51224944 L14.2857654,3.79510022 L12.6929275,3.79510022 L12.6929275,2.51224944 C12.6929275,2.27608314 12.514643,2.08463252 12.294718,2.08463252 C12.074793,2.08463252 11.8965085,2.27608314 11.8965085,2.51224944 L11.8965085,3.79510022 L11.498299,3.79510022 C11.278374,3.79510022 11.1000895,3.98655084 11.1000895,4.22271715 L11.1000895,5.98663697 C11.1000895,6.62186192 11.6245812,7.14606682 12.294718,7.20956793 L12.294718,8.22253898 C10.8938438,7.67731869 9.95934469,6.25041128 9.95523724,4.65033408 Z M15.3170782,21.4342984 L8.76060877,21.4342984 L8.76060877,16.3028953 L15.9283796,16.3028953 L15.9283796,20.4496036 L15.3170782,21.4342984 Z M15.5301701,15.4476615 L15.5301701,13.3095768 L16.9580996,13.3095768 L18.6675133,15.1453363 C18.7146854,15.1959766 18.7288043,15.2721453 18.7032862,15.3383233 C18.6777682,15.4045013 18.6176387,15.4476615 18.5509375,15.4476615 L15.5301701,15.4476615 Z M14.7337511,13.3095708 L14.7337511,15.4476615 L8.12914808,15.4476615 L9.7120308,13.7478842 C9.97284588,13.46628 10.3277449,13.3084474 10.6975993,13.3095708 L14.7337511,13.3095708 Z M1.19567377,17.5857461 L1.74495398,17.5857461 L1.34674449,18.44098 L0.851172784,18.44098 C0.91444847,18.1350167 1.03136134,17.8447771 1.19567377,17.5857461 L1.19567377,17.5857461 Z M4.38030439,23.091314 C3.30816987,23.091314 2.43903312,22.1579923 2.43903312,21.0066815 C2.43903312,19.8553708 3.30816987,18.922049 4.38030439,18.922049 C5.4524389,18.922049 6.32157565,19.8553708 6.32157565,21.0066815 C6.32036867,22.157455 5.45193855,23.0900179 4.38030439,23.091314 Z M4.38030439,18.0668151 C3.59156864,18.0653956 2.84071639,18.4299521 2.32071464,19.0667944 C1.80071288,19.7036368 1.56226667,20.5506669 1.66665604,21.3902004 C1.11686305,20.9258996 0.796048374,20.2162157 0.796418659,19.4651225 L0.796418659,19.2962138 L1.59283796,19.2962138 C1.74365787,19.2962083 1.88153236,19.2047051 1.94898657,19.0598486 L2.74540555,17.3493808 C2.80713096,17.2168268 2.80054072,17.0594031 2.72798845,16.9333312 C2.65543617,16.8072594 2.52726791,16.7305173 2.38925694,16.7305122 L2.04241647,16.7305122 C2.42220247,16.4526304 2.87095991,16.3036551 3.33052462,16.3028953 L7.96418979,16.3028953 L7.96418979,21.4342984 L7.08872623,21.4342984 C7.20477378,20.5890149 6.97250652,19.7313457 6.45243059,19.0847157 C5.93235466,18.4380856 5.17596559,18.066521 4.38030439,18.0668151 L4.38030439,18.0668151 Z M16.2742245,21.4342984 L16.6578994,20.8162851 C16.7015052,20.746031 16.7247817,20.663494 16.7247986,20.5790646 L16.7247986,16.3028953 L18.5509375,16.3028953 C18.9397528,16.3028405 19.2902616,16.0513064 19.4390544,15.6655598 C19.5878473,15.2798131 19.5056293,14.8358014 19.2307309,14.5405256 L18.0843853,13.3095766 L18.421171,13.3095766 C18.7679442,13.3093618 19.102314,13.4481036 19.3588548,13.6986548 L23.0961504,17.3472962 L23.0961504,19.2501915 C23.0960024,19.3613388 23.0873621,19.4722856 23.0703166,19.5819154 C22.6147649,18.6484276 21.7261604,18.013363 20.7068935,18.013363 C19.1959373,18.013363 17.919427,19.3841425 17.919427,21.0066815 C17.9195226,21.1497937 17.9293045,21.2927092 17.9486954,21.4342984 L16.2742245,21.4342984 Z M20.6571173,23.091314 C19.5854831,23.0900179 18.717053,22.157455 18.715846,21.0066815 C18.715846,19.8476793 19.6275964,18.8685969 20.7068935,18.8685969 C21.7498539,18.8685969 22.5983885,19.8277416 22.5983885,21.0066815 C22.5971816,22.157455 21.7287514,23.0900179 20.6571173,23.091314 Z" id="Shape"></path>
            <rect id="Rectangle" x="9.55702775" y="19.7238307" width="3.9820949" height="1"></rect>
            <rect id="Rectangle" x="14.3355416" y="19.7238307" width="1" height="1"></rect>
            <rect id="Rectangle" x="9.55702775" y="17.1581292" width="1.59283796" height="1"></rect>
        </g>
    </g>
</svg>