<?xml version="1.0" encoding="UTF-8"?>
<svg width="24px" height="24px" viewBox="0 0 24 24" version="1.1" xmlns="http://www.w3.org/2000/svg" xmlns:xlink="http://www.w3.org/1999/xlink">
    <title>01 Icons/02 Categories/ic-fleet</title>
    <g id="01-Icons/02-Categories/ic-fleet" stroke="none" stroke-width="1" fill="none" fill-rule="evenodd">
        <g id="solar-power" transform="translate(0.000000, 3.000000)" fill="#000000" fill-rule="nonzero">
            <path d="M18.6095625,15.7965937 C18.4858125,15.7965937 18.3653438,15.8467031 18.2781562,15.9339375 C18.1905,16.021125 18.1408125,16.1420625 18.1408125,16.2653437 C18.1408125,16.388625 18.1905,16.5095625 18.2781562,16.5967031 C18.3653438,16.6838906 18.4858594,16.7340937 18.6095625,16.7340937 C18.7328438,16.7340937 18.8537812,16.6839375 18.9409687,16.5967031 C19.0281094,16.5095625 19.0783125,16.388625 19.0783125,16.2653437 C19.0783125,16.1420625 19.0281562,16.021125 18.9409687,15.9339375 C18.8533125,15.8467031 18.7328438,15.7965937 18.6095625,15.7965937 Z" id="XMLID_337_"></path>
            <path d="M5.96503125,15.7965937 C5.84128125,15.7965937 5.7208125,15.8467031 5.63315625,15.9339375 C5.54596875,16.021125 5.49628125,16.1420625 5.49628125,16.2653437 C5.49628125,16.388625 5.54596875,16.5095625 5.63315625,16.5967031 C5.7208125,16.6838906 5.84128125,16.7340937 5.96503125,16.7340937 C6.0883125,16.7340937 6.20925,16.6839375 6.2964375,16.5967031 C6.38357813,16.5095625 6.43378125,16.388625 6.43378125,16.2653437 C6.43378125,16.1420625 6.383625,16.021125 6.2964375,15.9339375 C6.20925,15.8467031 6.0883125,15.7965937 5.96503125,15.7965937 L5.96503125,15.7965937 Z" id="XMLID_463_"></path>
            <path d="M23.8621875,9.84014063 L19.5028125,5.48076563 C19.414875,5.392875 19.2956719,5.34346875 19.1713594,5.34346875 L14.8125,5.34346875 L14.8125,0.51534375 C14.8125,0.2565 14.6025937,0.04659375 14.34375,0.04659375 L9.50967187,0.04659375 C9.25082812,0.04659375 9.04092187,0.2565 9.04092187,0.51534375 C9.04092187,0.7741875 9.25082812,0.98409375 9.50967187,0.98409375 L13.875,0.98409375 L13.875,13.5465937 L0.9375,13.5465937 L0.9375,0.98409375 L5.29092187,0.98409375 C5.54976563,0.98409375 5.75967187,0.7741875 5.75967187,0.51534375 C5.75967187,0.2565 5.54976563,0.04659375 5.29092187,0.04659375 L0.46875,0.04659375 C0.20990625,0.04659375 0,0.2565 0,0.51534375 L0,16.2653437 C0,16.5241875 0.20990625,16.7340937 0.46875,16.7340937 L3.28739062,16.7340937 C3.51023437,18.0105 4.625625,18.9840937 5.96484375,18.9840937 C7.3040625,18.9840937 8.41945312,18.0105 8.64229687,16.7340937 L15.9319219,16.7340937 C16.1547656,18.0105 17.2701562,18.9840937 18.609375,18.9840937 C19.9485938,18.9840937 21.0639844,18.0105 21.2868281,16.7340937 L23.5306875,16.7340937 C23.7895312,16.7340937 23.9994375,16.5241875 23.9994375,16.2653437 L23.9994375,10.1715937 C23.9994375,10.0472813 23.9500781,9.92807813 23.8621875,9.84014063 Z M22.1244375,12.6090937 L23.0619375,12.6090937 L23.0619375,13.5465937 L22.488,13.5465937 C22.2875625,13.5465937 22.1244375,13.3835156 22.1244375,13.1830313 L22.1244375,12.6090937 Z M23.0619375,11.6715938 L19.9052344,11.6715938 L22.1364844,9.44029688 L23.0619375,10.36575 L23.0619375,11.6715938 Z M17.4375,11.6715938 L17.4375,10.8189375 L20.4763125,7.780125 L21.4735781,8.77739063 L18.5794219,11.6715938 L17.4375,11.6715938 Z M19.8133594,7.11717188 L17.4375,9.49307813 L17.4375,6.28101563 L18.9771563,6.28101563 L19.8133594,7.11717188 Z M13.875,15.7965937 L8.64229688,15.7965937 C8.55557813,15.2999531 8.33385937,14.8494844 8.0161875,14.4840937 L13.875,14.4840937 L13.875,15.7965937 Z M0.9375,14.4840937 L3.9135,14.4840937 C3.59578125,14.8494844 3.3740625,15.2999531 3.28739063,15.7965937 L0.9375,15.7965937 L0.9375,14.4840937 Z M5.96484375,18.0465937 C4.98267187,18.0465937 4.18359375,17.2475156 4.18359375,16.2653437 C4.18359375,15.2831719 4.98267187,14.4840937 5.96484375,14.4840937 C6.94701563,14.4840937 7.74609375,15.2831719 7.74609375,16.2653437 C7.74609375,17.2475156 6.94701563,18.0465937 5.96484375,18.0465937 Z M18.609375,18.0465937 C17.6272031,18.0465937 16.828125,17.2475156 16.828125,16.2653437 C16.828125,15.2831719 17.6272031,14.4840937 18.609375,14.4840937 C19.5915469,14.4840937 20.390625,15.2831719 20.390625,16.2653437 C20.390625,17.2475156 19.5915469,18.0465937 18.609375,18.0465937 Z M21.2868281,15.7965937 C21.0639844,14.5201875 19.9485938,13.5465937 18.609375,13.5465937 C17.2701562,13.5465937 16.1547656,14.5201875 15.9319219,15.7965937 L14.8125,15.7965937 L14.8125,6.28096875 L16.5,6.28096875 L16.5,12.1403437 C16.5,12.3991875 16.7099062,12.6090937 16.96875,12.6090937 L21.1869375,12.6090937 L21.1869375,13.1830312 C21.1869375,13.9004531 21.7705781,14.4840937 22.488,14.4840937 L23.0619375,14.4840937 L23.0619375,15.7965937 L21.2868281,15.7965937 Z" id="XMLID_487_"></path>
            <path d="M2.671875,7.26534375 C2.671875,9.87585937 4.79573438,11.9997188 7.40625,11.9997188 C10.0167656,11.9997188 12.140625,9.87585938 12.140625,7.26534375 C12.140625,4.65482812 10.0167656,2.53096875 7.40625,2.53096875 C4.79573438,2.53096875 2.671875,4.65482813 2.671875,7.26534375 Z M11.203125,7.26534375 C11.203125,9.35892187 9.49982813,11.0622188 7.40625,11.0622188 C5.31267187,11.0622188 3.609375,9.35892188 3.609375,7.26534375 C3.609375,5.17176563 5.31267188,3.46846875 7.40625,3.46846875 C9.49982813,3.46846875 11.203125,5.17176563 11.203125,7.26534375 Z" id="XMLID_519_"></path>
            <path d="M6.6695625,4.9479375 L5.92040625,7.11201563 C5.8708125,7.2553125 5.89359375,7.41375 5.98157812,7.53721875 C6.06951563,7.66078125 6.21178125,7.73409375 6.36342187,7.73409375 L7.77895312,7.73409375 L7.24509375,9.27609375 C7.16039062,9.52073437 7.29009375,9.7876875 7.53473437,9.8724375 C7.5855,9.89001562 7.63725,9.89835937 7.68810937,9.89835937 C7.8823125,9.89835937 8.06395312,9.77667187 8.13103125,9.58284375 L8.8801875,7.41876562 C8.92978125,7.27546875 8.907,7.11703125 8.81901562,6.9935625 C8.73107812,6.87 8.5888125,6.7966875 8.43717187,6.7966875 L7.02164062,6.7966875 L7.5555,5.2546875 C7.64020312,5.01004687 7.5105,4.74309375 7.26585937,4.65834375 C7.0215,4.57364062 6.75426563,4.70325 6.6695625,4.9479375 L6.6695625,4.9479375 Z" id="XMLID_520_"></path>
            <path d="M7.40034375,0.98409375 C7.523625,0.98409375 7.6445625,0.9339375 7.73175,0.846703125 C7.81889062,0.7595625 7.86909375,0.638625 7.86909375,0.51534375 C7.86909375,0.3920625 7.8189375,0.271125 7.73175,0.1839375 C7.6445625,0.09675 7.523625,0.04659375 7.40034375,0.04659375 C7.2770625,0.04659375 7.156125,0.096703125 7.0689375,0.1839375 C6.98179687,0.271125 6.93159375,0.3920625 6.93159375,0.51534375 C6.93159375,0.638625 6.98175,0.7595625 7.0689375,0.846703125 C7.156125,0.9339375 7.2770625,0.98409375 7.40034375,0.98409375 Z" id="XMLID_521_"></path>
        </g>
    </g>
</svg>