<?xml version="1.0" encoding="UTF-8"?>
<svg width="24px" height="24px" viewBox="0 0 24 24" version="1.1" xmlns="http://www.w3.org/2000/svg" xmlns:xlink="http://www.w3.org/1999/xlink">
    <title>01 Icons/02 Categories/ic-facility</title>
    <g id="01-Icons/02-Categories/ic-facility" stroke="none" stroke-width="1" fill="none" fill-rule="evenodd">
        <g id="buildings" transform="translate(0.000000, 2.000000)" fill="#000000" fill-rule="nonzero">
            <path d="M21.8630137,19.2634058 L21.8630137,17.7732442 C22.6594286,17.6079925 23.260227,16.8938014 23.260227,16.040476 C23.260227,15.0651587 22.4754599,14.2716658 21.5107632,14.2716658 C20.5460665,14.2716658 19.7612994,15.0651587 19.7612994,16.040476 C19.7612994,16.8938489 20.3620978,17.6079925 21.1585127,17.7732442 L21.1585127,19.2634058 L19.0561879,19.2634058 L19.0561879,0.0159553334 L9.19251663,0.0159553334 L9.19251663,3.05820054 L4.9667319,6.24024485 L4.9667319,19.2634058 L2.82584736,19.2634058 L2.82584736,17.7732442 C3.62226223,17.6079925 4.22306067,16.8938014 4.22306067,16.040476 C4.22306067,15.0651587 3.43824658,14.2716658 2.47359687,14.2716658 C1.50894716,14.2716658 0.724133072,15.0651587 0.724133072,16.040476 C0.724133072,16.8938489 1.32493151,17.6079925 2.12134638,17.7732442 L2.12134638,19.2634058 L-1.33226763e-15,19.2634058 L-1.33226763e-15,19.9756975 L24,19.9756975 L24,19.2634058 L21.8630137,19.2634058 Z M20.4658474,16.040476 C20.4658474,15.4578689 20.9345753,14.9839575 21.5108102,14.9839575 C22.087045,14.9839575 22.555773,15.4578689 22.555773,16.040476 C22.555773,16.6230831 22.087045,17.0969945 21.5108102,17.0969945 C20.9345753,17.0969945 20.4658474,16.6230831 20.4658474,16.040476 Z M1.42863405,16.040476 C1.42863405,15.4578689 1.89736204,14.9839575 2.47359687,14.9839575 C3.0498317,14.9839575 3.51855969,15.4578689 3.51855969,16.040476 C3.51855969,16.6230831 3.04978474,17.0969945 2.47359687,17.0969945 C1.897409,17.0969945 1.42863405,16.6230831 1.42863405,16.040476 Z M5.67123288,7.15511227 L8.45401174,7.15511227 L8.45401174,6.4428206 L5.877182,6.4428206 L9.19251663,3.94638076 L9.19251663,16.3903062 L9.89701761,16.3903062 L9.89701761,3.23703323 L9.89701761,2.5276857 L9.89701761,0.728247002 L18.3516869,0.728247002 L18.3516869,2.8808874 L10.5675147,2.8808874 L10.5675147,3.59317907 L18.3516869,3.59317907 L18.3516869,19.2634058 L17.6119609,19.2634058 L17.6119609,15.7017101 L10.5897299,15.7017101 L10.5897299,19.2634058 L9.89701761,19.2634058 L9.89701761,18.5271812 L9.19251663,18.5271812 L9.19251663,19.2634058 L5.67123288,19.2634058 L5.67123288,7.15511227 Z M16.9074599,19.2634058 L11.2942309,19.2634058 L11.2942309,16.4140017 L16.9074599,16.4140017 L16.9074599,19.2634058 Z" id="Shape"></path>
            <polygon id="Path" points="9.19251663 17.1025978 9.89701761 17.1025978 9.89701761 17.8148895 9.19251663 17.8148895"></polygon>
            <path d="M6.36399217,7.8675464 L6.36399217,10.0042789 L8.47735421,10.0042789 L8.47735421,7.8675464 L6.36399217,7.8675464 Z M7.77285323,9.29198728 L7.06849315,9.29198728 L7.06849315,8.57983806 L7.77285323,8.57983806 L7.77285323,9.29198728 Z" id="Shape"></path>
            <path d="M6.36399217,12.8534931 L8.47735421,12.8534931 L8.47735421,10.7167606 L6.36399217,10.7167606 L6.36399217,12.8534931 Z M7.06849315,11.4290522 L7.77285323,11.4290522 L7.77285323,12.1412014 L7.06849315,12.1412014 L7.06849315,11.4290522 Z" id="Shape"></path>
            <path d="M6.36399217,15.7026598 L8.47735421,15.7026598 L8.47735421,13.5659747 L6.36399217,13.5659747 L6.36399217,15.7026598 Z M7.06849315,14.2782664 L7.77285323,14.2782664 L7.77285323,14.9903681 L7.06849315,14.9903681 L7.06849315,14.2782664 Z" id="Shape"></path>
            <path d="M6.36399217,18.5518739 L8.47735421,18.5518739 L8.47735421,16.4151414 L6.36399217,16.4151414 L6.36399217,18.5518739 Z M7.06849315,17.1274331 L7.77285323,17.1274331 L7.77285323,17.8395823 L7.06849315,17.8395823 L7.06849315,17.1274331 Z" id="Shape"></path>
            <polygon id="Path" points="11.9765166 5.69890318 11.2942309 5.69890318 11.2942309 5.01828475 16.9074599 5.01828475 16.9074599 5.69890318 12.6810176 5.69890318 12.6810176 6.41119485 17.6119609 6.41119485 17.6119609 4.30599308 10.5897299 4.30599308 10.5897299 6.41119485 11.9765166 6.41119485"></polygon>
            <polygon id="Path" points="17.6119609 7.17144749 16.2035225 7.17144749 16.2035225 7.88373916 16.9074599 7.88373916 16.9074599 8.56431011 11.2942309 8.56431011 11.2942309 7.88373916 15.5333542 7.88373916 15.5333542 7.17144749 10.5897299 7.17144749 10.5897299 9.27660178 17.6119609 9.27660178"></polygon>
            <polygon id="Path" points="17.6119609 9.98941579 12.6810176 9.98941579 12.6810176 10.7017075 16.9074599 10.7017075 16.9074599 11.429812 11.2942309 11.429812 11.2942309 10.7017075 11.9765166 10.7017075 11.9765166 9.98941579 10.5897299 9.98941579 10.5897299 12.1421037 17.6119609 12.1421037"></polygon>
            <polygon id="Path" points="17.6119609 12.8549177 16.2035225 12.8549177 16.2035225 13.5672094 16.9074599 13.5672094 16.9074599 14.2953139 11.2942309 14.2953139 11.2942309 13.5672094 15.4990215 13.5672094 15.4990215 12.8549177 10.5897299 12.8549177 10.5897299 15.0076056 17.6119609 15.0076056"></polygon>
            <polygon id="Path" points="12.3630998 1.42458334 13.0676008 1.42458334 13.0676008 2.13687501 12.3630998 2.13687501"></polygon>
            <polygon id="Path" points="13.7721018 1.42458334 14.4766027 1.42458334 14.4766027 2.13687501 13.7721018 2.13687501"></polygon>
            <polygon id="Path" points="15.1811037 1.42458334 15.8856047 1.42458334 15.8856047 2.13687501 15.1811037 2.13687501"></polygon>
        </g>
    </g>
</svg>