<svg width="24" height="24" viewBox="0 0 24 24" xmlns="http://www.w3.org/2000/svg">
    <g fill="#000" fill-rule="nonzero" stroke="#000" stroke-width=".1">
        <path d="M10.5 6.023H6.375a.352.352 0 0 0-.352.352v11.25c0 .194.158.352.352.352h11.25a.352.352 0 0 0 .352-.352v-6.188a.352.352 0 1 0-.704 0v5.836H6.727V6.727H10.5a.352.352 0 1 0 0-.704zM17.625 10.148a.352.352 0 0 0 .352-.351V6.375a.352.352 0 0 0-.352-.352h-5.46a.352.352 0 1 0 0 .704h5.108v3.07c0 .194.158.351.352.351z"/>
        <path d="M8.869 12.75a.72.72 0 0 0 .648.4h1.616l-.947 2.191a.961.961 0 0 0 .884 1.346c.302 0 .59-.144.771-.385l.62-.826a.352.352 0 0 0-.562-.422l-.62.826a.262.262 0 0 1-.427-.013.258.258 0 0 1-.02-.247l1.159-2.682a.352.352 0 0 0-.323-.491H9.517c-.007 0-.014 0-.02-.012-.005-.012-.001-.017.003-.022L12.72 8.12a.262.262 0 0 1 .426.013c.024.035.072.13.022.247l-1.16 2.682a.352.352 0 0 0 .323.491h2.151c.007 0 .014 0 .02.012.005.012.001.017-.003.022l-1.617 2.155a.352.352 0 0 0 .563.422l1.617-2.155a.72.72 0 0 0 .068-.759.72.72 0 0 0-.648-.4h-1.616l.947-2.191a.961.961 0 0 0-.884-1.347.968.968 0 0 0-.771.386L8.937 11.99a.72.72 0 0 0-.068.758z"/>
        <path d="M22.695 15.75c-.59 0-1.087.396-1.24.937h-.816a.117.117 0 0 1-.083-.035l-1.173-1.173v-3.127h2.088c.153.54.651.937 1.24.937.71 0 1.289-.578 1.289-1.289 0-.71-.578-1.29-1.29-1.29-.588 0-1.086.398-1.239.938h-2.088v-3.08l1.173-1.174a.116.116 0 0 1 .083-.034h.816c.153.54.65.938 1.24.938a1.29 1.29 0 0 0 0-2.578c-.59 0-1.087.397-1.24.937h-.816a.815.815 0 0 0-.58.24l-.676.676V5.672c0-.582-.473-1.055-1.055-1.055h-1.917l.693-.692a.815.815 0 0 0 .24-.58v-.816c.54-.153.937-.651.937-1.24C18.281.58 17.703 0 16.992 0c-.71 0-1.289.578-1.289 1.29 0 .588.397 1.086.938 1.239v.816c0 .03-.013.061-.035.083-.016.018-1.168 1.165-1.188 1.19h-3.043V2.521c.528-.16.914-.653.914-1.233C13.29.58 12.711 0 12 0c-.71 0-1.29.578-1.29 1.29 0 .596.41 1.1.962 1.246v2.081H8.629c-.016-.02-1.176-1.176-1.188-1.19a.118.118 0 0 1-.035-.082v-.816c.54-.153.938-.651.938-1.24a1.29 1.29 0 0 0-2.578 0c0 .589.397 1.087.937 1.24v.816c0 .219.085.425.24.58l.693.692H5.672c-.582 0-1.055.473-1.055 1.055V7.59l-.692-.693a.815.815 0 0 0-.58-.24h-.816a1.291 1.291 0 0 0-1.24-.937C.58 5.72 0 6.298 0 7.009c0 .71.578 1.289 1.29 1.289.588 0 1.086-.397 1.239-.938h.816c.031 0 .06.012.083.035.018.016 1.165 1.168 1.19 1.188v.792a.352.352 0 1 0 .702 0V5.672c0-.194.158-.352.352-.352h12.656c.194 0 .352.158.352.352v12.656a.352.352 0 0 1-.352.352H5.672a.352.352 0 0 1-.352-.352v-7.312a.352.352 0 1 0-.703 0v.632H2.53a1.291 1.291 0 0 0-1.24-.937C.58 10.71 0 11.289 0 12c0 .71.578 1.289 1.29 1.289.588 0 1.086-.397 1.239-.937h2.088v3.112c-.02.016-1.176 1.176-1.19 1.188a.116.116 0 0 1-.082.035h-.816a1.291 1.291 0 0 0-1.24-.938 1.29 1.29 0 0 0 0 2.578c.589 0 1.087-.397 1.24-.937h.816c.22 0 .425-.086.58-.24l.692-.693v1.871c0 .582.473 1.055 1.055 1.055h1.964l-.693.692a.815.815 0 0 0-.24.58v.816c-.54.153-.937.651-.937 1.24 0 .71.578 1.289 1.289 1.289.71 0 1.289-.578 1.289-1.29 0-.588-.397-1.086-.938-1.239v-.816c0-.03.013-.061.035-.083.016-.018 1.168-1.165 1.188-1.19h3.043v2.082A1.29 1.29 0 0 0 12 24c.71 0 1.29-.578 1.29-1.29 0-.58-.387-1.071-.915-1.232v-2.095h3.043c.016.02 1.176 1.175 1.188 1.19a.118.118 0 0 1 .035.082v.816c-.54.153-.938.651-.938 1.24a1.29 1.29 0 0 0 2.578 0c0-.589-.397-1.087-.937-1.24v-.816a.815.815 0 0 0-.24-.58l-.693-.692h1.917c.582 0 1.055-.473 1.055-1.055v-1.855l.676.676c.155.155.36.24.58.24h.816c.153.541.65.938 1.24.938.71 0 1.289-.578 1.289-1.289 0-.71-.578-1.289-1.29-1.289zm.016-4.336a.587.587 0 1 1-.001 1.173.587.587 0 0 1 0-1.173zm-.016-4.991a.587.587 0 1 1-.002 1.173.587.587 0 0 1 .002-1.173zm-6.289-5.134a.587.587 0 1 1 1.173.001.587.587 0 0 1-1.173 0zm-4.992 0a.587.587 0 1 1 1.173.001.587.587 0 0 1-1.173 0zm-4.945 0a.587.587 0 1 1 1.173.001.587.587 0 0 1-1.173 0zm-5.18 6.306A.587.587 0 1 1 1.29 6.42a.587.587 0 0 1 0 1.174zm0 4.99a.587.587 0 1 1 .001-1.172.587.587 0 0 1 0 1.173zm0 5.04a.587.587 0 1 1 .001-1.174.587.587 0 0 1 0 1.173zm6.352 5.086a.587.587 0 1 1-1.174-.001.587.587 0 0 1 1.174 0zm4.945 0a.587.587 0 1 1-1.173-.001.587.587 0 0 1 1.173 0zm4.992 0a.587.587 0 1 1-1.173-.001.587.587 0 0 1 1.173 0zm5.117-5.087a.587.587 0 1 1 .001-1.173.587.587 0 0 1-.001 1.173z"/>
    </g>
</svg>
  