<?xml version="1.0" encoding="UTF-8"?>
<svg width="24px" height="24px" viewBox="0 0 24 24" version="1.1" xmlns="http://www.w3.org/2000/svg" xmlns:xlink="http://www.w3.org/1999/xlink">
    <title>01 Icons/02 Categories/ic-hydro</title>
    <g id="01-Icons/02-Categories/ic-hydro" stroke="none" stroke-width="1" fill="none" fill-rule="evenodd">
        <g id="sustainability" fill="#000000" fill-rule="nonzero">
            <path d="M18.09375,14.8125 C18.09375,12.1088906 16.4587969,9.80578125 14.8776562,7.5785625 C13.8560625,6.13945313 12.8910937,4.78017188 12.4455469,3.41690625 C12.3825469,3.22410938 12.2027813,3.09375 12,3.09375 C11.7972187,3.09375 11.6174062,3.22415625 11.5544531,3.41690625 C11.1075937,4.78439063 10.1419688,6.14357812 9.11971875,7.5825 C7.53989062,9.80625 5.90625,12.1057031 5.90625,14.8125 C5.90625,18.37125 8.82510938,20.90625 12,20.90625 C15.3601406,20.90625 18.09375,18.1726406 18.09375,14.8125 Z M6.84375,14.8125 C6.84375,12.4048125 8.3893125,10.2293437 9.88392188,8.12545312 C10.688625,6.9928125 11.4594844,5.90770313 12.0001406,4.79639063 C12.5398594,5.90489063 13.3097344,6.9894375 14.1131719,8.12123438 C15.6092344,10.2286406 17.15625,12.4078125 17.15625,14.8125 C17.15625,17.6556562 14.8431562,19.96875 12,19.96875 C9.52026563,19.96875 6.84375,17.9974219 6.84375,14.8125 Z M5.36934375,20.9110313 C5.1635625,20.7538125 4.86942188,20.7930938 4.71225,20.9987344 C4.55503125,21.2044219 4.59426563,21.4986094 4.79995313,21.6558281 C6.67776562,23.0911875 8.90095312,23.9016563 11.2293281,23.999625 C11.49075,24.0103125 11.7066094,23.80725 11.7173906,23.5510313 C11.7282656,23.2923281 11.5274062,23.0738438 11.2687969,23.0629688 C9.13354687,22.9730625 7.0935,22.2289687 5.36934375,20.9110313 Z" id="Shape"></path>
            <path d="M24.0000077,12.0005156 C24.0069844,5.70951563 19.2520781,0.273140625 12.7705781,0.000421875 C12.5123437,-0.0103125 12.2934375,0.190453125 12.2825625,0.4490625 C12.2716875,0.707671875 12.4725469,0.926203125 12.7312031,0.937078125 C18.5310469,1.1810625 23.0691094,6.04026563 23.0625,11.9994844 C23.0587031,15.5487656 21.2305781,19.1382188 18.4667812,21.1094063 L18.1407656,20.4104531 C18.0720937,20.2632188 17.932125,20.1620625 17.7707812,20.1430781 C17.6091562,20.1240938 17.4497344,20.19 17.3487656,20.3172187 L15.3940781,22.7800312 C15.2837344,22.9191094 15.261375,23.108625 15.3364219,23.2695469 C15.4115156,23.4304687 15.5709844,23.5351406 15.7485,23.5400156 C15.7485,23.5400156 18.9004687,23.6259375 18.9047344,23.6259375 C19.0623281,23.6259375 19.2097969,23.5466719 19.2965625,23.4143906 C19.3856719,23.2785937 19.3981406,23.1062813 19.3294687,22.9590469 L18.8691562,21.9720937 C21.8768437,19.9048594 23.9956875,16.0236562 24.0000077,12.0005156 Z M16.7113125,22.6283906 L17.6117344,21.4939688 L18.1592812,22.6679062 L16.7113125,22.6283906 Z" id="Shape"></path>
            <path d="M12.4070156,17.8575469 L15.2195156,12.9356719 C15.3024375,12.7905937 15.3018281,12.612375 15.2179687,12.4678594 C15.1341094,12.3233437 14.9795625,12.234375 14.8125,12.234375 L13.0874062,12.234375 L12.4596094,9.09557812 C12.4213125,8.90385937 12.2679844,8.75610937 12.0750469,8.72479687 C11.8822969,8.69367187 11.6899687,8.78521875 11.5929844,8.95495312 L8.78048437,13.8768281 C8.6975625,14.0219063 8.69817187,14.200125 8.78203125,14.3446406 C8.86589062,14.4891563 9.0204375,14.578125 9.1875,14.578125 L10.9125937,14.578125 L11.5403906,17.7169219 C11.5786875,17.9086406 11.7320156,18.0563906 11.9249531,18.0877031 C12.1169062,18.1188281 12.3095156,18.028125 12.4070156,17.8575469 L12.4070156,17.8575469 Z M11.7565312,14.0174531 C11.7127031,13.7983125 11.5203281,13.640625 11.296875,13.640625 L9.99520312,13.640625 L11.7858281,10.5069844 L12.2434687,12.7950469 C12.2872969,13.0141875 12.4796719,13.171875 12.703125,13.171875 L14.0047969,13.171875 L12.2141719,16.3055156 L11.7565312,14.0174531 Z" id="Shape"></path>
            <circle id="Oval" cx="3.515625" cy="19.875" r="1"></circle>
            <path d="M2.51390625,18.5745 C2.73342187,18.4372031 2.80003125,18.1479844 2.66278125,17.9285156 C1.53473437,16.1249063 0.93815625,14.0748281 0.9375,11.9998125 C0.9361875,8.44753125 2.64389062,5.18498437 5.53195313,3.169125 L5.85923437,3.87079687 C5.93554688,4.03434375 6.10017187,4.14135937 6.2840625,4.14135937 C6.42604687,4.14135937 6.56170313,4.07676562 6.6511875,3.96403125 L8.605875,1.50121875 C8.71621875,1.36214062 8.73857812,1.172625 8.66353125,1.01170312 C8.5884375,0.85078125 8.42896875,0.746109375 8.25145312,0.741234375 L5.10801562,0.655330299 C4.94657812,0.651140625 4.79254687,0.731015625 4.70334375,0.866859375 C4.61423437,1.00265625 4.60176562,1.17496875 4.6704375,1.32220312 L5.130375,2.3083125 C1.85582812,4.53271875 -0.00140625,8.19220313 -7.98001878e-07,12.0001406 C0.000703125,14.2510313 0.646640625,16.4729063 1.86792187,18.425625 C2.00540625,18.6454688 2.29485937,18.7115156 2.51390625,18.5745 Z M7.2886875,1.65285937 L6.38826562,2.78728125 L5.84071875,1.61334375 L7.2886875,1.65285937 Z" id="Shape"></path>
        </g>
    </g>
</svg>