<svg width="24" height="24" viewBox="0 0 24 24" xmlns="http://www.w3.org/2000/svg">
    <g fill="#000" fill-rule="nonzero">
        <path d="M20.148 0H3.852C2.83 0 2 .868 2 1.935v14.71c0 1.067.83 1.936 1.852 1.936h1.111v2.322c0 .214.165.387.37.387h1.852v2.323c0 .213.166.387.37.387h1.482c.205 0 .37-.174.37-.387V21.29h1.482v2.323c0 .213.165.387.37.387h1.482c.205 0 .37-.174.37-.387V21.29h1.482v2.323c0 .213.165.387.37.387h1.481c.205 0 .37-.174.37-.387V21.29h1.853c.205 0 .37-.173.37-.387v-2.322h1.111c1.021 0 1.852-.869 1.852-1.936V1.935C22 .868 21.17 0 20.148 0zM8.667 23.226h-.741V21.29h.74v1.936zm3.703 0h-.74V21.29h.74v1.936zm3.704 0h-.74V21.29h.74v1.936zm2.222-2.71H5.704v-1.935h12.592v1.935zm2.963-3.87c0 .64-.498 1.16-1.11 1.16H3.851c-.613 0-1.111-.52-1.111-1.16V1.935c0-.64.498-1.162 1.11-1.162h16.297c.613 0 1.111.521 1.111 1.161v14.71z" stroke="#000" stroke-width=".1"/>
        <path d="M10.334 13.2h.906l-.563 2.365a.356.356 0 0 0 .182.402A.314.314 0 0 0 11 16a.328.328 0 0 0 .27-.144l2.666-3.85a.364.364 0 0 0 .028-.365.332.332 0 0 0-.297-.191h-.95l.28-2.05a.353.353 0 0 0-.208-.376.326.326 0 0 0-.396.125l-2.333 3.5a.364.364 0 0 0-.022.363.332.332 0 0 0 .296.188zm1.805-2.449-.136 1c-.013.1.015.201.078.278.064.077.156.12.252.12h.679l-1.272 1.838.25-1.052a.363.363 0 0 0-.06-.3.328.328 0 0 0-.263-.135h-.693l1.165-1.749z"/>
        <path d="M19.778 1.548H4.222c-.408 0-.74.348-.74.775v13.935c0 .427.332.774.74.774h15.556c.408 0 .74-.347.74-.774V2.323c0-.427-.332-.775-.74-.775zM4.222 16.258V2.323h15.556v13.935H4.222z" stroke="#000" stroke-width=".1"/>
        <path d="M6.815 3.097H5.333a.379.379 0 0 0-.37.387v3.87c0 .214.165.388.37.388h1.482c.205 0 .37-.174.37-.387V3.484a.379.379 0 0 0-.37-.387zm-.37 3.87h-.741V3.872h.74v3.097zM8.296 7.742h1.482c.205 0 .37-.174.37-.387V3.484a.379.379 0 0 0-.37-.387H8.296a.379.379 0 0 0-.37.387v3.87c0 .214.165.388.37.388zm.37-3.871h.741v3.097h-.74V3.87zM15.704 3.097h-1.482a.379.379 0 0 0-.37.387v3.87c0 .214.165.388.37.388h1.482c.205 0 .37-.174.37-.387V3.484a.379.379 0 0 0-.37-.387zm-.37 3.87h-.741V3.872h.74v3.097zM18.667 3.097h-1.482a.379.379 0 0 0-.37.387v3.87c0 .214.165.388.37.388h1.482c.205 0 .37-.174.37-.387V3.484a.379.379 0 0 0-.37-.387zm-.37 3.87h-.741V3.872h.74v3.097zM11.26 7.742h1.48c.206 0 .371-.174.371-.387V3.484a.379.379 0 0 0-.37-.387h-1.482a.379.379 0 0 0-.37.387v3.87c0 .214.165.388.37.388zm.37-3.871h.74v3.097h-.74V3.87zM15.333 11.613h.741v.774h-.74zM16.815 11.613h.74v.774h-.74zM18.296 11.613h.741v.774h-.74zM4.963 11.613h.74v.774h-.74zM6.444 11.613h.741v.774h-.74zM7.926 11.613h.74v.774h-.74z" stroke="#000" stroke-width=".1"/>
    </g>
</svg>
