<?xml version="1.0" encoding="UTF-8"?>
<svg width="24px" height="24px" viewBox="0 0 24 24" version="1.1" xmlns="http://www.w3.org/2000/svg" xmlns:xlink="http://www.w3.org/1999/xlink">
    <title>01 Icons/02 Categories/ic-outlet</title>
    <g id="01-Icons/02-Categories/ic-outlet" stroke="none" stroke-width="1" fill="none" fill-rule="evenodd">
        <g id="electrician" transform="translate(4.000000, 0.000000)" fill="#000000" fill-rule="nonzero">
            <path d="M4.88888889,11.2 L4.44444444,11.2 C4.19898456,11.2 4,11.3790861 4,11.6 L4,12.8 C4,12.9060779 4.04686694,13.0078029 4.13022222,13.0828 L4.88888889,13.7656 L4.88888889,14.8 C4.88882456,14.8620509 4.90480125,14.9232644 4.93555556,14.9788 L5.77777778,16.4944 L5.77777778,18 C5.77777778,18.2209139 5.97676233,18.4 6.22222222,18.4 L6.66666667,18.4 L6.66666667,23.6 C6.66666667,23.8209139 6.86565122,24 7.11111111,24 L8.88888889,24 C9.13434878,24 9.33333333,23.8209139 9.33333333,23.6 L9.33333333,18.4 L9.77777778,18.4 C10.0232377,18.4 10.2222222,18.2209139 10.2222222,18 L10.2222222,16.4944 L11.0666667,14.9788 C11.0966527,14.9230975 11.1118666,14.8618921 11.1111111,14.8 L11.1111111,13.7656 L11.8697778,13.0828 C11.9531331,13.0078029 12,12.9060779 12,12.8 L12,11.6 C12,11.3790861 11.8010154,11.2 11.5555556,11.2 L11.1111111,11.2 L11.1111111,7.6 C11.1111111,7.3790861 10.9121266,7.2 10.6666667,7.2 L8.88888889,7.2 C8.643429,7.2 8.44444444,7.3790861 8.44444444,7.6 L8.44444444,11.2 L7.55555556,11.2 L7.55555556,7.6 C7.55555556,7.3790861 7.356571,7.2 7.11111111,7.2 L5.33333333,7.2 C5.08787344,7.2 4.88888889,7.3790861 4.88888889,7.6 L4.88888889,11.2 Z M8.44444444,23.2 L7.55555556,23.2 L7.55555556,20 L8.44444444,20 L8.44444444,23.2 Z M8.44444444,19.2 L7.55555556,19.2 L7.55555556,18.4 L8.44444444,18.4 L8.44444444,19.2 Z M9.33333333,17.6 L6.66666667,17.6 L6.66666667,16.8 L9.33333333,16.8 L9.33333333,17.6 Z M9.33333333,8 L10.2222222,8 L10.2222222,11.2 L9.33333333,11.2 L9.33333333,8 Z M5.77777778,8 L6.66666667,8 L6.66666667,11.2 L5.77777778,11.2 L5.77777778,8 Z M11.1111111,12 L11.1111111,12.6344 L10.3524444,13.3172 C10.2690892,13.3921971 10.2222474,13.4939221 10.2222222,13.6 L10.2222222,14.7056 L9.50311111,16 L6.49688889,16 L5.77777778,14.7056 L5.77777778,13.6 C5.77775261,13.4939221 5.73091083,13.3921971 5.64755556,13.3172 L4.88888889,12.6344 L4.88888889,12 L11.1111111,12 Z" id="Shape"></path>
            <polygon id="Path" points="6.66666667 12.8 9.33333333 12.8 9.33333333 13.6 6.66666667 13.6"></polygon>
            <polygon id="Path" points="6.66666667 14.4 9.33333333 14.4 9.33333333 15.2 6.66666667 15.2"></polygon>
            <path d="M10.1644444,0.2028 C10.0855343,0.0774678456 9.93783899,0 9.77777778,0 L7.55555556,0 C7.3942064,0 7.2455268,0.0786887347 7.16711111,0.2056 L4.94488889,3.8056 C4.8683385,3.92949239 4.87036659,4.08059576 4.9502199,4.20278777 C5.03007321,4.32497978 5.17582224,4.40000584 5.33333333,4.4 L7.11111111,4.4 L7.11111111,6 C7.11112195,6.17095671 7.23185022,6.32301003 7.41155556,6.3784 C7.45792441,6.39262351 7.50656754,6.39991998 7.55555556,6.4 C7.69264735,6.4 7.82204786,6.34298665 7.90622222,6.2456 L11.0173333,2.6456 C11.1215474,2.52502813 11.1403611,2.36156448 11.0658191,2.22432791 C10.9912772,2.08709133 10.8363965,2.00004674 10.6666667,2 L9.22977778,2 L10.1586667,0.606 C10.2412277,0.48236841 10.2434354,0.328306747 10.1644444,0.2028 Z M9.75777778,2.8 L8,4.834 L8,4 C8,3.7790861 7.80101544,3.6 7.55555556,3.6 L6.08888889,3.6 L7.81777778,0.8 L8.99288889,0.8 L8.064,2.194 C7.98156222,2.31749176 7.97927918,2.47134101 8.05802311,2.59677016 C8.13676705,2.72219931 8.28437141,2.7998286 8.44444444,2.8 L9.75777778,2.8 Z" id="Shape"></path>
            <polygon id="Path" points="0 8.8 2.22222222 8.8 2.22222222 9.6 0 9.6"></polygon>
            <polygon id="Path" transform="translate(1.778089, 7.002160) rotate(-53.130102) translate(-1.778089, -7.002160) " points="1.30896356 5.90972622 2.14054756 5.95237156 2.24721422 8.09459378 1.41563022 8.05194844"></polygon>
            <polygon id="Path" transform="translate(1.777644, 11.399840) rotate(-36.869898) translate(-1.777644, -11.399840) " points="0.685210667 10.9307147 2.82743289 11.0373813 2.87007822 11.8689653 0.727856 11.7622987"></polygon>
            <polygon id="Path" points="13.7777778 8.8 16 8.8 16 9.6 13.7777778 9.6"></polygon>
            <polygon id="Path" transform="translate(14.221200, 6.996240) rotate(-36.869898) translate(-14.221200, -6.996240) " points="13.1287662 6.52711467 15.2709884 6.63378133 15.3136338 7.46536533 13.1714116 7.35869867"></polygon>
            <polygon id="Path" transform="translate(14.223867, 11.404160) rotate(-53.130102) translate(-14.223867, -11.404160) " points="13.7547413 10.3117262 14.5863253 10.3543716 14.692992 12.4965938 13.861408 12.4539484"></polygon>
        </g>
    </g>
</svg>