<?xml version="1.0" encoding="UTF-8"?>
<svg width="24px" height="24px" viewBox="0 0 24 24" version="1.1" xmlns="http://www.w3.org/2000/svg" xmlns:xlink="http://www.w3.org/1999/xlink">
    <title>01 Icons/02 Categories/ic-solar</title>
    <g id="01-Icons/02-Categories/ic-solar" stroke="none" stroke-width="1" fill="none" fill-rule="evenodd">
        <g id="01-Icons/ic-solar" transform="translate(0.000000, 0.000000)" fill="#000000" fill-rule="nonzero">
            <path d="M11.946284,19.9999998 C7.55486961,19.9999998 3.98209466,16.4111592 3.98209466,11.9999998 C3.98209466,7.58883935 7.55486961,3.99999976 11.946284,3.99999976 C16.3376983,3.99999976 19.9104733,7.58883935 19.9104733,11.9999998 C19.9104733,16.4111592 16.3376983,19.9999998 11.946284,19.9999998 L11.946284,19.9999998 Z M11.946284,4.79998144 C7.99417513,4.79998144 4.7784954,8.03012016 4.7784954,11.9999993 C4.7784954,15.9698784 7.99417513,19.2000171 11.946284,19.2000171 C15.8983928,19.2000171 19.1140726,15.9698784 19.1140726,11.9999993 C19.1140726,8.03012016 15.8983928,4.79998144 11.946284,4.79998144 Z" id="Shape"></path>
            <path d="M11.946284,23.9999986 C11.7264942,23.9999986 11.5480745,23.8207356 11.5480745,23.5999071 L11.5480745,21.1999072 C11.5480745,20.9790787 11.7264942,20.7999988 11.946284,20.7999988 C12.1660738,20.7999988 12.3444934,20.9790787 12.3444934,21.1999072 L12.3444934,23.5999071 C12.3444934,23.8207356 12.1660738,23.9999986 11.946284,23.9999986 Z" id="Path"></path>
            <path d="M11.946284,3.19999981 C11.7264942,3.19999981 11.5480745,3.02091992 11.5480745,2.80009139 L11.5480745,0.400091519 C11.5480745,0.17926299 11.7264942,0 11.946284,0 C12.1660738,0 12.3444934,0.17926299 12.3444934,0.400091519 L12.3444934,2.80009139 C12.3444934,3.02091992 12.1660738,3.19999981 11.946284,3.19999981 Z" id="Path"></path>
            <path d="M2.78755741,12.3999993 L0.398300599,12.3999993 C0.17846056,12.3999993 0,12.2207773 0,11.9999993 C0,11.7792212 0.17846056,11.5999993 0.398300599,11.5999993 L2.78755741,11.5999993 C3.00739744,11.5999993 3.18567573,11.7792212 3.18567573,11.9999993 C3.18567573,12.2207773 3.00739744,12.3999993 2.78755741,12.3999993 Z" id="Path"></path>
            <path d="M23.4942674,12.3999993 L21.1050106,12.3999993 C20.8851705,12.3999993 20.7068922,12.2207773 20.7068922,11.9999993 C20.7068922,11.7792212 20.8851705,11.5999993 21.1050106,11.5999993 L23.4942674,11.5999993 C23.7141074,11.5999993 23.892568,11.7792212 23.892568,11.9999993 C23.892568,12.2207773 23.7141074,12.3999993 23.4942674,12.3999993 L23.4942674,12.3999993 Z" id="Path"></path>
            <path d="M9.95530298,17.9999996 C9.89405885,17.9999996 9.83226789,17.9860827 9.77503382,17.9567854 C9.61208067,17.8736543 9.52659409,17.6892643 9.56760581,17.5100013 L10.6494031,12.7999085 L8.76086022,12.7999085 C8.60465125,12.7999085 8.46338874,12.7083544 8.39849913,12.5662624 C8.33360952,12.4239873 8.35748745,12.2566264 8.45974326,12.1383385 L13.636148,6.13824824 C13.7560844,5.99908599 13.9547633,5.96026705 14.1175341,6.0433982 C14.2808518,6.12652931 14.3665207,6.3111024 14.3249621,6.49018227 L13.2431649,11.1999089 L15.1317077,11.1999089 C15.2879167,11.1999089 15.4291792,11.291463 15.4940688,11.433555 C15.5589584,11.57583 15.5350805,11.743191 15.4328247,11.8614789 L10.2564199,17.8615691 C10.1787712,17.9520245 10.0681307,17.9999996 9.95530298,17.9999996 Z M9.63285995,11.9999087 L11.1499281,11.9999087 C11.2713226,11.9999087 11.3859731,12.0555736 11.4612524,12.1507899 C11.5368961,12.245823 11.5647841,12.3707028 11.5378075,12.4899063 L10.7035386,16.122041 L14.259708,11.9999087 L12.7426399,11.9999087 C12.6212453,11.9999087 12.5065948,11.9442438 12.4309511,11.8490275 C12.3556718,11.7539943 12.3274193,11.6291145 12.3543959,11.5099111 L13.1890294,7.87777636 L9.63285995,11.9999087 Z" id="Shape"></path>
            <path d="M19.9257744,20.3999988 C19.8278354,20.3999988 19.7298964,20.3621592 19.6552595,20.2873599 L18.0316441,18.6563843 C17.8820199,18.5060818 17.8820199,18.2630283 18.0316441,18.1127258 C18.1812683,17.9624233 18.423225,17.9624233 18.5728492,18.1127258 L20.1964646,19.7437014 C20.3460888,19.8940039 20.3460888,20.1368815 20.1964646,20.2873599 C20.1218277,20.3621592 20.0237135,20.3999988 19.9257744,20.3999988 L19.9257744,20.3999988 Z" id="Path"></path>
            <path d="M5.59035466,5.99999964 C5.49243536,5.99999964 5.39434091,5.962336 5.31971908,5.88736078 L3.69608074,4.25638518 C3.54648668,4.10608272 3.54648668,3.86320512 3.69608074,3.71272667 C3.84532444,3.56242416 4.08758272,3.56242416 4.23717673,3.71272667 L5.86081507,5.34370226 C6.01058429,5.49400472 6.01058429,5.73705827 5.86081507,5.88736078 C5.78619325,5.96268802 5.68792364,5.99999964 5.59035466,5.99999964 Z" id="Path"></path>
            <path d="M3.96671632,20.3999988 C3.86879702,20.3999988 3.77070257,20.3621592 3.69608074,20.2873599 C3.54648668,20.1368815 3.54648668,19.8940039 3.69608074,19.7437014 L5.31971908,18.1127258 C5.4694883,17.9624233 5.71157137,17.9624233 5.86081507,18.1127258 C6.01058429,18.2630283 6.01058429,18.5060818 5.86081507,18.6563843 L4.23717673,20.2873599 C4.16255486,20.3621592 4.06463561,20.3999988 3.96671632,20.3999988 L3.96671632,20.3999988 Z" id="Path"></path>
            <path d="M18.3021591,5.99999964 C18.20422,5.99999964 18.106281,5.962336 18.0316441,5.88736078 C17.8820199,5.73705827 17.8820199,5.49400472 18.0316441,5.34370226 L19.6552595,3.71272667 C19.8048837,3.56242416 20.0466652,3.56242416 20.1964646,3.71272667 C20.3460888,3.86320512 20.3460888,4.10608272 20.1964646,4.25638518 L18.5728492,5.88736078 C18.497862,5.96268802 18.4000981,5.99999964 18.3021591,5.99999964 L18.3021591,5.99999964 Z" id="Path"></path>
        </g>
    </g>
</svg>