<?xml version="1.0" encoding="UTF-8"?>
<svg width="24px" height="24px" viewBox="0 0 24 24" version="1.1" xmlns="http://www.w3.org/2000/svg" xmlns:xlink="http://www.w3.org/1999/xlink">
    <title>01 Icons/02 Categories/ic-settings</title>
    <g id="01-Icons/02-Categories/ic-settings" stroke="none" stroke-width="1" fill="none" fill-rule="evenodd">
        <g id="01-Icons/ic-settings" transform="translate(0.000000, 0.000000)" fill="#000000" fill-rule="nonzero">
            <path d="M23.8897695,21.9425497 C23.8887428,21.8958129 23.8794565,21.8496374 23.8623303,21.8061754 C23.8595304,21.7994386 23.8548173,21.794152 23.8516907,21.7876491 C23.8401644,21.7611228 23.8257915,21.7359532 23.8087587,21.7126082 L21.1053052,18.227883 L21.1053052,6.38802339 C21.1046052,5.72687719 20.5701489,5.19106433 19.9106767,5.19036257 L17.8642688,5.19036257 C17.8606756,5.16402339 17.8594156,5.13754386 17.8554491,5.11120468 C17.8330031,4.96276023 17.7295464,4.83939181 17.5874976,4.7917193 L16.4589937,4.41450292 C16.398609,4.23976608 16.3282379,4.06863158 16.2482071,3.90203509 L16.7798168,2.83635088 C16.846688,2.70180117 16.8326885,2.54105263 16.7436046,2.42016374 C16.5689369,2.18446784 16.3771897,1.9620117 16.1699963,1.75447953 C15.9632696,1.54638596 15.7412367,1.35419883 15.5057642,1.1794152 C15.3853214,1.08996491 15.2249332,1.07592982 15.0908175,1.14315789 L14.0276448,1.67611696 C13.8616568,1.59588304 13.6911889,1.52538012 13.5170345,1.46498246 L13.1402132,0.333192982 C13.092848,0.190596491 12.9696053,0.0867368421 12.82135,0.0645614035 C12.2412086,-0.0216140351 11.6515474,-0.0216140351 11.071406,0.0645614035 C10.9231507,0.0867368421 10.799908,0.190596491 10.7525429,0.333192982 L10.3757216,1.46498246 C10.2015671,1.52538012 10.0310993,1.59583626 9.86511124,1.67611696 L8.80193856,1.14315789 C8.66777619,1.07630409 8.50762131,1.0902924 8.38699183,1.1794152 C8.15156603,1.35415205 7.92953312,1.54638596 7.72275974,1.75447953 C7.51556636,1.9620117 7.32386582,2.18446784 7.14915141,2.42016374 C7.06006759,2.54105263 7.0461147,2.70180117 7.1129859,2.83635088 L7.64459557,3.90203509 C7.56456479,4.06863158 7.49419371,4.23976608 7.43380897,4.41450292 L6.30530506,4.79167251 C6.16330293,4.83934503 6.05984624,4.96271345 6.03735363,5.11115789 C6.03343375,5.13749708 6.03212713,5.16397661 6.02853391,5.19031579 L3.98235933,5.19031579 C3.32288709,5.19101754 2.78843084,5.72683041 2.78773086,6.38797661 L2.78773086,18.2278363 L0.0842306401,21.7125614 C0.0671511862,21.736 0.0527316473,21.7612164 0.0412053491,21.7878363 C0.0381254476,21.7942924 0.0334589302,21.7994386 0.03075235,21.8060819 C0.013626231,21.8495906 0.00433986124,21.8957661 0.00326656222,21.9425497 C0.00307990152,21.9478363 0.000233325873,21.9522807 0.000233325873,21.957614 L0.000233325873,22.7560702 C0.000933303491,23.4172164 0.535389548,23.9530292 1.19486179,23.953731 L22.6981742,23.953731 C23.3576465,23.9530292 23.8921027,23.4172164 23.8928027,22.7560702 L23.8928027,21.957614 C23.8928027,21.9522807 23.8900028,21.9478363 23.8897695,21.9425497 Z M6.79510273,5.4697076 L7.87736146,5.10811696 C8.00041752,5.06690058 8.09575448,4.96823392 8.13285329,4.84360234 C8.20980416,4.5837193 8.31316752,4.33244444 8.44121676,4.0937076 C8.50295479,3.97918129 8.50510139,3.84168421 8.44704991,3.72528655 L7.9376062,2.70423392 C8.04610273,2.57169591 8.16122572,2.44439766 8.28605506,2.31906433 C8.40817782,2.19625731 8.53641372,2.0797193 8.67024944,1.96996491 L9.68871688,2.48046784 C9.80477316,2.53838596 9.94164212,2.53618713 10.0558318,2.47461988 C10.2941509,2.34638596 10.5448362,2.24280702 10.8040145,2.16547368 C10.9283306,2.12837427 11.0267941,2.03274854 11.0676728,1.90933333 L11.4285346,0.824561404 C11.7730169,0.790269006 12.1200191,0.790269006 12.4645015,0.824561404 L12.8253632,1.90933333 C12.8662419,2.03274854 12.9647055,2.12837427 13.0890215,2.16547368 C13.3482465,2.2428538 13.5989318,2.34643275 13.8372042,2.47461988 C13.9513472,2.53618713 14.0882629,2.53838596 14.2043192,2.48046784 L15.2227866,1.96996491 C15.356669,2.07976608 15.4849049,2.19625731 15.606981,2.31906433 C15.7318103,2.44444444 15.8469333,2.57169591 15.9554298,2.70423392 L15.4460328,3.72528655 C15.3879813,3.84168421 15.3901279,3.97918129 15.4518659,4.0937076 C15.5799618,4.33244444 15.6832785,4.5837193 15.7602294,4.84360234 C15.7973282,4.96823392 15.8926652,5.06694737 16.0157212,5.10811696 L17.09798,5.4697076 C17.1146861,5.63967251 17.1232725,5.81122807 17.1232725,5.98881871 C17.1232725,6.16640936 17.1147328,6.33791813 17.09798,6.50792982 L16.0157212,6.86952047 C15.8926652,6.91073684 15.7973282,7.00940351 15.7602294,7.13403509 C15.6832785,7.39391813 15.5799152,7.64519298 15.4518659,7.88392982 C15.3901279,7.99845614 15.3879813,8.13590643 15.4460328,8.25235088 L15.9554765,9.27340351 C15.84698,9.40594152 15.731857,9.53323977 15.6070276,9.6585731 C15.4849049,9.78138012 15.356669,9.89791813 15.2228333,10.0077193 L14.2043658,9.49698246 C14.0881695,9.43897076 13.9511606,9.44116959 13.8368776,9.50283041 C13.5987919,9.63129825 13.3482465,9.73497076 13.0890682,9.81216374 C12.9647521,9.84926316 12.8662886,9.94488889 12.8254099,10.0683041 L12.4645481,11.153076 C12.1200658,11.1873684 11.7730636,11.1873684 11.4285812,11.153076 L11.0677194,10.0683041 C11.0268408,9.94488889 10.9283772,9.84926316 10.8040612,9.81216374 C10.5448828,9.73492398 10.2943375,9.63129825 10.0562518,9.50283041 C9.94196878,9.44116959 9.80495983,9.43897076 9.68876354,9.49698246 L8.67029611,10.0077193 C8.53641372,9.89791813 8.40817782,9.7814269 8.28610172,9.6585731 C8.16127238,9.53323977 8.0461494,9.40594152 7.93765286,9.27340351 L8.44709658,8.25235088 C8.50514805,8.13595322 8.50300145,7.99845614 8.44126343,7.88392982 C8.31316752,7.64519298 8.20985083,7.39391813 8.13289996,7.13403509 C8.09580114,7.00940351 8.00046419,6.91069006 7.87740812,6.86952047 L6.7951494,6.50792982 C6.7783966,6.33796491 6.76985668,6.16640936 6.76985668,5.98881871 C6.76985668,5.81122807 6.77834993,5.63967251 6.79510273,5.4697076 Z M3.58411873,6.38802339 C3.58435206,6.16762573 3.76247303,5.98900585 3.98231267,5.98877193 L5.97337567,5.98877193 C5.97281569,6.28252632 5.994235,6.57590643 6.03754029,6.86638596 C6.05998624,7.01483041 6.16344293,7.13819883 6.30549172,7.18587135 L7.43399564,7.56304094 C7.49438037,7.73777778 7.56475145,7.90891228 7.64478223,8.07550877 L7.11317256,9.14119298 C7.04630137,9.27569591 7.06025425,9.43649123 7.14933807,9.55738012 C7.32400582,9.79307602 7.51575302,10.0155322 7.7229464,10.2230643 C7.92967312,10.4311579 8.15170602,10.623345 8.38717849,10.7981287 C8.50766797,10.8875322 8.66800951,10.9015205 8.80212522,10.834386 L9.86492457,10.3014269 C10.0310993,10.3815205 10.2017071,10.4519766 10.3759082,10.5125614 L10.7527295,11.6443509 C10.8000947,11.7869474 10.9233374,11.890807 11.0715927,11.9129825 C11.6517808,11.9985029 12.2413486,11.9985029 12.8215367,11.9129825 C12.969792,11.890807 13.0930814,11.7869474 13.1403998,11.6443509 L13.5172211,10.5125614 C13.6914222,10.4520234 13.8620301,10.3815205 14.0282048,10.3014269 L15.0910041,10.834386 C15.2250265,10.9019883 15.3856014,10.8879532 15.5059509,10.7981287 C15.7413767,10.6233918 15.9634096,10.4311579 16.170183,10.2230643 C16.3773763,10.0155322 16.5690769,9.79307602 16.7437446,9.55738012 C16.8328284,9.43649123 16.8467813,9.27574269 16.7799101,9.14119298 L16.2483005,8.07550877 C16.3283312,7.90891228 16.3987023,7.73777778 16.4590871,7.56304094 L17.587591,7.18587135 C17.7295931,7.13819883 17.8330498,7.01483041 17.8555424,6.86638596 C17.8988477,6.57585965 17.920267,6.28252632 17.919707,5.98877193 L19.91077,5.98877193 C20.1306097,5.98900585 20.3087773,6.16757895 20.308964,6.38797661 L20.308964,17.9653801 L3.58411873,17.9653801 L3.58411873,6.38802339 L3.58411873,6.38802339 Z M3.3807519,18.7638363 L20.5123308,18.7638363 L22.6803015,21.5583626 L1.21278122,21.5583626 L3.3807519,18.7638363 Z M23.0964615,22.7560234 C23.0961815,22.9764211 22.9180605,23.1550409 22.6982209,23.1552281 L1.19490846,23.1552281 C0.975068823,23.1549942 0.796714526,22.9764211 0.796714526,22.7560234 L0.796714526,22.3568187 L23.0964615,22.3568187 L23.0964615,22.7560234 L23.0964615,22.7560234 Z" id="Shape"></path>
            <path d="M18.317901,19.9614971 L5.57518174,19.9614971 C5.35524877,19.9614971 5.1769878,20.1402105 5.1769878,20.3607018 C5.1769878,20.581193 5.35524877,20.7599064 5.57518174,20.7599064 L18.317901,20.7599064 C18.5378339,20.7599064 18.7160949,20.581193 18.7160949,20.3607018 C18.7160949,20.1402105 18.5377873,19.9614971 18.317901,19.9614971 Z" id="Path"></path>
            <path d="M3.98235933,19.9614971 L3.5841654,19.9614971 C3.36423243,19.9614971 3.18597146,20.1402105 3.18597146,20.3607018 C3.18597146,20.581193 3.36423243,20.7599064 3.5841654,20.7599064 L3.98235933,20.7599064 C4.2022923,20.7599064 4.38055327,20.581193 4.38055327,20.3607018 C4.38055327,20.1402105 4.20224564,19.9614971 3.98235933,19.9614971 Z" id="Path"></path>
            <path d="M20.3089173,19.9614971 L19.9107234,19.9614971 C19.6907904,19.9614971 19.5125294,20.1402105 19.5125294,20.3607018 C19.5125294,20.581193 19.6907904,20.7599064 19.9107234,20.7599064 L20.3089173,20.7599064 C20.5288503,20.7599064 20.7071112,20.581193 20.7071112,20.3607018 C20.7071112,20.1402105 20.5288503,19.9614971 20.3089173,19.9614971 Z" id="Path"></path>
            <path d="M17.9196604,15.1708538 L16.88836,15.1708538 C16.668427,15.1708538 16.4901661,14.9921404 16.4901661,14.7716491 C16.4901661,14.5511579 16.6684737,14.3724444 16.88836,14.3724444 L17.9196604,14.3724444 C18.0543827,14.3723977 18.179912,14.3040936 18.253363,14.1908772 C18.326814,14.0776608 18.3382003,13.934924 18.2836487,13.8114152 C17.9221803,12.9838596 17.1271924,12.4304094 16.2274411,12.3800702 C15.3276899,12.3296842 14.4761905,12.790924 14.0250782,13.5730526 L6.765937,13.5420819 C6.44978044,13.5410058 6.14631681,13.6664327 5.92274396,13.8905263 C5.69921777,14.1146199 5.57410844,14.4189006 5.57517489,14.7358596 C5.57466842,15.3975673 6.10823803,15.934924 6.76827026,15.9374035 L14.0239116,15.9683743 C14.4477714,16.707462 15.2322596,17.1642105 16.0826391,17.1670175 L16.1051784,17.1670175 C17.0499148,17.1616374 17.9030942,16.5997661 18.2832754,15.7327251 C18.338247,15.6092632 18.3271407,15.4662456 18.2537363,15.3527953 C18.1802854,15.2392982 18.0545694,15.1708538 17.9196604,15.1708538 Z M16.0938854,16.3685146 L16.0865123,16.3685146 C15.4550392,16.3658012 14.8846974,15.9894737 14.6325188,15.409076 C14.5674675,15.2644211 14.4240655,15.1712749 14.2658239,15.1708538 L6.76985687,15.1389006 C6.66336694,15.1395088 6.56112355,15.0971228 6.48622594,15.0212865 C6.41128167,14.9454503 6.36998299,14.8425263 6.37161362,14.7357661 C6.37068297,14.6308772 6.41170166,14.5300117 6.48552596,14.4557193 C6.55935027,14.3814269 6.65982039,14.339883 6.76439705,14.3404444 L14.2109923,14.3722105 C14.2549042,14.3786667 14.2996094,14.3776374 14.3431947,14.369076 C14.4729706,14.3441404 14.5819338,14.2562807 14.6340588,14.1345497 C14.8364923,13.666386 15.2502724,13.3237427 15.7470698,13.2128187 C16.2438673,13.1018947 16.7635773,13.2361637 17.1450651,13.5739415 L16.8884067,13.5739415 C16.2286544,13.5739415 15.6937782,14.1101287 15.6937782,14.7716023 C15.6937782,15.433076 16.2286544,15.9692632 16.8884067,15.9692632 L17.1454385,15.9692632 C16.8528011,16.2225029 16.4803664,16.3639298 16.0938854,16.3685146 Z" id="Shape"></path>
            <path d="M11.946518,8.78334503 C13.4860021,8.78334503 14.7339689,7.53216374 14.7339689,5.98881871 C14.7339689,4.44547368 13.4859555,3.1942924 11.946518,3.1942924 C10.4070806,3.1942924 9.15906714,4.44547368 9.15906714,5.98881871 C9.16084042,7.5314152 10.4077806,8.78152047 11.946518,8.78334503 Z M11.946518,3.99270175 C13.0461362,3.99270175 13.937581,4.88640936 13.937581,5.98881871 C13.937581,7.09122807 13.0461362,7.98493567 11.946518,7.98493567 C10.8468998,7.98493567 9.95545501,7.09122807 9.95545501,5.98881871 C9.95676164,4.88692398 10.8474598,3.99396491 11.946518,3.99270175 Z" id="Shape"></path>
        </g>
    </g>
</svg>