<?xml version="1.0" encoding="UTF-8"?>
<svg width="24px" height="24px" viewBox="0 0 24 24" version="1.1" xmlns="http://www.w3.org/2000/svg" xmlns:xlink="http://www.w3.org/1999/xlink">
    <title>01 Icons/02 Categories/ic-trend</title>
    <g id="01-Icons/02-Categories/ic-trend" stroke="none" stroke-width="1" fill="none" fill-rule="evenodd">
        <path d="M6.58064516,0 C9.27290323,0 11.5892903,1.62658065 12.6073548,3.94722581 L12.6073548,3.94722581 L13.9428387,2.52270968 L17.2060645,6.19354839 L17.8064516,6.19354839 L17.8064516,4.64516129 L18.5806452,4.64516129 L18.5806452,6.19354839 L19.3548387,6.19354839 L19.3548387,3.87096774 L20.1290323,3.87096774 L20.1290323,6.19354839 L20.9032258,6.19354839 L20.9032258,5.41935484 L21.6774194,5.41935484 L21.6774194,6.19354839 L22.4516129,6.19354839 L22.4516129,3.87096774 L23.2258065,3.87096774 L23.2258065,6.19354839 L24,6.19354839 L24,6.96774194 L16.8584516,6.96774194 L13.928129,3.67083871 L12.9011613,4.76593548 C13.0672258,5.34309677 13.1612903,5.95083871 13.1612903,6.58064516 C13.1612903,9.67509677 11.0117419,12.2705806 8.12903226,12.9696774 L8.12903226,12.9696774 L8.12903226,15.0116129 C8.36477419,15.2245161 8.51612903,15.5291613 8.51612903,15.8709677 L8.51612903,15.8709677 L8.51612903,22.0645161 C8.51612903,23.1317419 7.64787097,24 6.58064516,24 C5.51341935,24 4.64516129,23.1317419 4.64516129,22.0645161 L4.64516129,22.0645161 L4.64516129,15.8709677 C4.64516129,15.5291613 4.79651613,15.224129 5.03225806,15.0116129 L5.03225806,15.0116129 L5.03225806,12.9696774 C2.14954839,12.2705806 0,9.67509677 0,6.58064516 C0,2.952 2.952,0 6.58064516,0 Z M24,10.0645161 L24,24 L9.29032258,24 L9.29032258,15.483871 L12.3870968,15.483871 L12.3870968,23.2258065 L13.1612903,23.2258065 L13.1612903,13.9354839 L16.2580645,13.9354839 L16.2580645,23.2258065 L17.0322581,23.2258065 L17.0322581,12.3870968 L20.1290323,12.3870968 L20.1290323,23.2258065 L20.9032258,23.2258065 L20.9032258,10.0645161 L24,10.0645161 Z M11.6129032,16.2580645 L10.0645161,16.2580645 L10.0645161,23.2258065 L11.6129032,23.2258065 L11.6129032,16.2580645 Z M19.3548387,13.1612903 L17.8064516,13.1612903 L17.8064516,23.2258065 L19.3548387,23.2258065 L19.3548387,13.1612903 Z M15.483871,14.7096774 L13.9354839,14.7096774 L13.9354839,23.2258065 L15.483871,23.2258065 L15.483871,14.7096774 Z M23.2258065,10.8387097 L21.6774194,10.8387097 L21.6774194,23.2258065 L23.2258065,23.2258065 L23.2258065,10.8387097 Z M7.35483871,15.483871 L5.80645161,15.483871 C5.59277419,15.483871 5.41935484,15.6572903 5.41935484,15.8709677 L5.41935484,15.8709677 L5.41935484,22.0645161 C5.41935484,22.7047742 5.9403871,23.2258065 6.58064516,23.2258065 C7.22090323,23.2258065 7.74193548,22.7047742 7.74193548,22.0645161 L7.74193548,22.0645161 L7.74193548,15.8709677 C7.74193548,15.6572903 7.56851613,15.483871 7.35483871,15.483871 L7.35483871,15.483871 Z M6.96774194,21.6774194 L6.96774194,22.4516129 L6.19354839,22.4516129 L6.19354839,21.6774194 L6.96774194,21.6774194 Z M6.96774194,20.1290323 L6.96774194,20.9032258 L6.19354839,20.9032258 L6.19354839,20.1290323 L6.96774194,20.1290323 Z M6.96774194,18.5806452 L6.96774194,19.3548387 L6.19354839,19.3548387 L6.19354839,18.5806452 L6.96774194,18.5806452 Z M7.35483871,13.1117419 C7.10051613,13.1415484 6.84309677,13.1612903 6.58064516,13.1612903 C6.31819355,13.1612903 6.06077419,13.1415484 5.80645161,13.1117419 L5.80645161,13.1117419 L5.80645161,14.7096774 L7.35483871,14.7096774 Z M6.58064516,0.774193548 C3.37896774,0.774193548 0.774193548,3.37896774 0.774193548,6.58064516 C0.774193548,9.78232258 3.37896774,12.3870968 6.58064516,12.3870968 C9.78232258,12.3870968 12.3870968,9.78232258 12.3870968,6.58064516 C12.3870968,3.37896774 9.78232258,0.774193548 6.58064516,0.774193548 Z M6.58064516,1.5483871 C9.35535484,1.5483871 11.6129032,3.80593548 11.6129032,6.58064516 C11.6129032,9.35535484 9.35535484,11.6129032 6.58064516,11.6129032 C3.80593548,11.6129032 1.5483871,9.35535484 1.5483871,6.58064516 C1.5483871,3.80593548 3.80593548,1.5483871 6.58064516,1.5483871 Z M6.58064516,2.32258065 C4.23290323,2.32258065 2.32258065,4.23290323 2.32258065,6.58064516 C2.32258065,8.9283871 4.23290323,10.8387097 6.58064516,10.8387097 C8.79096774,10.8387097 10.6122581,9.14554839 10.8181935,6.98825806 L10.8181935,6.98825806 L8.13832258,9.84696774 L6.03329032,7.74193548 L3.87096774,7.74193548 L3.87096774,6.96774194 L6.35380645,6.96774194 L8.11974194,8.73406452 L10.7787097,5.89819355 C10.4504516,3.87406452 8.69574194,2.32258065 6.58064516,2.32258065 Z M6.96774194,5.41935484 L6.96774194,6.19354839 L6.19354839,6.19354839 L6.19354839,5.41935484 L6.96774194,5.41935484 Z M5.41935484,5.41935484 L5.41935484,6.19354839 L4.64516129,6.19354839 L4.64516129,5.41935484 L5.41935484,5.41935484 Z M10.0645161,5.41935484 L10.0645161,6.19354839 L9.29032258,6.19354839 L9.29032258,5.41935484 L10.0645161,5.41935484 Z M8.51612903,5.41935484 L8.51612903,6.19354839 L7.74193548,6.19354839 L7.74193548,5.41935484 L8.51612903,5.41935484 Z M3.87096774,5.41935484 L3.87096774,6.19354839 L3.09677419,6.19354839 L3.09677419,5.41935484 L3.87096774,5.41935484 Z" id="Combined-Shape" fill="#191919"></path>
    </g>
</svg>