<?xml version="1.0" encoding="UTF-8"?>
<svg width="24px" height="24px" viewBox="0 0 24 24" version="1.1" xmlns="http://www.w3.org/2000/svg" xmlns:xlink="http://www.w3.org/1999/xlink">
    <title>01 Icons/02 Categories/ic-wind</title>
    <g id="01-Icons/02-Categories/ic-wind" stroke="none" stroke-width="1" fill="none" fill-rule="evenodd">
        <g id="01-Icons/ic-wind" transform="translate(0.000000, 0.000000)" fill="#000000" fill-rule="nonzero">
            <path d="M11.946284,11.9999993 C12.606059,11.9999993 13.1409124,11.462741 13.1409124,10.7999994 C13.1409124,10.1372577 12.606059,9.59999943 11.946284,9.59999943 C11.2865089,9.59999943 10.7516556,10.1372577 10.7516556,10.7999994 C10.7524236,11.4624212 11.2868273,11.9992278 11.946284,11.9999993 Z M11.946284,10.3999994 C12.166209,10.3999994 12.3444934,10.5790855 12.3444934,10.7999994 C12.3444934,11.0209132 12.166209,11.1999993 11.946284,11.1999993 C11.726359,11.1999993 11.5480745,11.0209132 11.5480745,10.7999994 C11.5483214,10.5791883 11.7264613,10.4002474 11.946284,10.3999994 Z" id="Shape"></path>
            <path d="M18.3769576,8.92182948 C18.4141919,9.05393755 18.5174377,9.15567321 18.6478031,9.18871365 C18.7781686,9.22175408 18.9158482,9.18107965 19.0089794,9.08201202 C19.1021105,8.98294439 19.1365444,8.84053429 19.0993101,8.70842623 C18.8359531,7.77195438 18.3910535,6.89938565 17.7911534,6.14277645 C17.6605551,5.97754486 17.4238526,5.95198968 17.2624635,6.08569735 C17.1010745,6.21940502 17.0761136,6.46174317 17.2067118,6.62697478 C17.7433662,7.30370299 18.1413649,8.08417932 18.3769576,8.92182948 Z" id="Path"></path>
            <path d="M15.3182747,5.23173067 C15.6008805,5.42925811 15.8703431,5.65299683 16.1242291,5.9009263 C16.2825175,6.05552227 16.5146558,6.02594984 16.6427244,5.83487443 C16.770793,5.64379903 16.7462949,5.363577 16.5880065,5.20898102 C16.3043083,4.93202289 16.0032185,4.68208197 15.6874535,4.46141313 C15.5733916,4.38043924 15.4321263,4.37947716 15.3173148,4.4588923 C15.2025032,4.53830745 15.1317617,4.68591457 15.1319597,4.84564784 C15.1321585,5.00538112 15.2032664,5.15273149 15.3182747,5.23173067 L15.3182747,5.23173067 Z" id="Path"></path>
            <path d="M7.53668265,5.99999964 C7.62103203,6.00006888 7.70283407,5.96510891 7.76835924,5.90098725 C8.02224006,5.65304772 8.29169714,5.4292999 8.57429704,5.23176444 C8.68930302,5.15276206 8.76040943,5.00540571 8.76060825,4.84566594 C8.76080624,4.68592618 8.69006619,4.53831306 8.57525698,4.45889469 C8.46044777,4.37947632 8.31918543,4.38043845 8.20512583,4.46141562 C7.8893673,4.68209342 7.58828372,4.9320445 7.30459136,5.20901387 C7.18311897,5.32762589 7.13677977,5.52579829 7.18894512,5.70358197 C7.24111047,5.88136565 7.38044817,6.00013954 7.53668265,5.99999964 Z" id="Path"></path>
            <path d="M4.82176704,11.9999996 C4.83656835,11.9999996 4.85135753,11.9991649 4.86606764,11.9975507 C5.08463814,11.973738 5.24221217,11.7801198 5.21803339,11.5650747 C5.19050541,11.3191992 5.17671332,11.0720225 5.17671935,10.8246598 C5.17783728,9.30119533 5.7086137,7.82394549 6.68089883,6.63824758 C6.77039296,6.52943883 6.79408778,6.38192153 6.74305769,6.25126402 C6.69202759,6.12060652 6.57402527,6.02665878 6.43350105,6.00481003 C6.29297682,5.98296127 6.15127968,6.03653084 6.06178555,6.14533959 C4.97497323,7.47062693 4.38163452,9.12180298 4.38030413,10.8246598 C4.38030413,11.1008359 4.39572465,11.3768035 4.42649621,11.6513152 C4.44880115,11.8496053 4.61899342,11.9997386 4.82176704,11.9999996 Z" id="Path"></path>
            <path d="M6.37135146,10.8158318 C6.37135146,11.0280017 6.54963069,11.1999993 6.76953974,11.1999993 C6.98944879,11.1999993 7.1677203,11.0280017 7.1677203,10.8158318 C7.16484466,9.09517625 8.15763763,7.51686619 9.74096217,6.72497532 C9.93599401,6.62692631 10.0117148,6.39490143 9.91008936,6.20673326 C9.80846389,6.01856509 9.56797563,5.94550907 9.37294379,6.04355808 C7.52595906,6.96739394 6.36790058,8.80861208 6.37135146,10.8158318 L6.37135146,10.8158318 Z" id="Path"></path>
            <path d="M14.1214209,6.73832337 C15.5012405,7.61470018 16.3373915,9.15007493 16.333376,10.800006 C16.333376,11.0209162 16.510137,11.1999993 16.7281829,11.1999993 C16.9462287,11.1999993 17.123007,11.0209162 17.123007,10.800006 C17.1277372,8.87535852 16.1524887,7.08428941 14.5430253,6.0618346 C14.3586403,5.94388234 14.1147873,5.99970031 13.9983645,6.18650753 C13.8819416,6.37331474 13.9370359,6.62037111 14.1214209,6.73832337 Z" id="Path"></path>
            <path d="M11.5480745,21.9999987 L10.3534461,21.9999987 C10.1335211,21.9999987 9.95523665,22.1790848 9.95523665,22.3999987 C9.95523665,22.6209126 10.1335211,22.7999986 10.3534461,22.7999986 L11.5480745,22.7999986 C11.7679995,22.7999986 11.946284,22.6209126 11.946284,22.3999987 C11.946284,22.1790848 11.7679995,21.9999987 11.5480745,21.9999987 Z" id="Path"></path>
            <path d="M12.3444934,22.3999987 C12.3444934,22.6209126 12.5227779,22.7999986 12.7427029,22.7999986 L13.1409124,22.7999986 C13.3608374,22.7999986 13.5391218,22.6209126 13.5391218,22.3999987 C13.5391218,22.1790848 13.3608374,21.9999987 13.1409124,21.9999987 L12.7427029,21.9999987 C12.5227779,21.9999987 12.3444934,22.1790848 12.3444934,22.3999987 Z" id="Path"></path>
            <path d="M21.9144216,23.2258053 L14.601266,23.2258053 L13.5450391,13.6737125 L19.7234611,16.8953241 C20.2697298,17.1842766 20.9456065,16.9902729 21.2574706,16.4550017 L21.2671033,16.4385501 C21.5815186,15.9023114 21.4182176,15.2123244 20.8972071,14.8756475 L14.6407602,10.792262 C14.6255694,9.91663113 14.1899252,9.10240683 13.4713488,8.60661778 L13.0860403,1.10710472 C13.0580506,0.487185293 12.5492496,-0.000732601796 11.9315597,4.18775005e-06 L11.9132575,4.18775005e-06 C11.2936543,-0.00165347294 10.7835577,0.489012444 10.7582953,1.11097568 L10.4158523,8.60806939 C9.71278944,9.09419696 9.28030577,9.88600736 9.24981245,10.7429072 L3.15904816,15.0953248 C2.65338276,15.451897 2.51687639,16.1452744 2.84935644,16.6683887 L2.85898915,16.6833887 C3.18997914,17.2099522 3.87631854,17.3790728 4.41226409,17.0661304 L10.2732882,13.6887125 L8.86691212,23.2258053 L0.385308511,23.2258053 C0.172508497,23.2258053 0,23.3991144 0,23.612902 C0,23.8266895 0.172508497,24.0000042 0.385308511,24.0000042 L21.9144216,24.0000042 C22.1272216,24.0000042 22.2997301,23.8266895 22.2997301,23.612902 C22.2997301,23.3991144 22.1272216,23.2258053 21.9144216,23.2258053 Z M20.4786657,15.5259698 C20.6523768,15.6379807 20.7070215,15.8678273 20.6024461,16.0466147 L20.5928134,16.0630663 C20.4883933,16.2419429 20.2622116,16.3063784 20.0798714,16.2091953 L13.7078319,12.8864547 C14.0898994,12.5548803 14.371874,12.1224125 14.5217962,11.6380681 L20.4786657,15.5259698 Z M11.527949,1.14533051 C11.5362817,0.937714779 11.7064333,0.773824932 11.9132575,0.77420098 L11.9315597,0.77420098 C12.1379985,0.774124302 12.3077613,0.937630903 12.3163866,1.14484664 L12.6805031,8.23258567 C12.1980269,8.09419332 11.6865859,8.0945286 11.2042899,8.23355341 L11.527949,1.14533051 Z M4.02743721,16.3954856 C3.84857001,16.4995972 3.61978741,16.4432042 3.50919727,16.2677437 L3.49908292,16.2522598 C3.38851785,16.0772444 3.43480739,15.8457892 3.60407949,15.72726 L9.36058865,11.6138746 C9.50474337,12.0965801 9.77993531,12.5293798 10.1552875,12.8637128 L4.02743721,16.3954856 Z M10.0180213,10.8387136 C10.0180213,9.76977585 10.8805638,8.90323056 11.9445639,8.90323056 C13.0085639,8.90323056 13.8711064,9.76977585 13.8711064,10.8387136 C13.8711064,11.9076514 13.0085639,12.7741967 11.9445639,12.7741967 C10.881004,12.7731298 10.0190833,11.9072092 10.0180213,10.8387136 Z M9.64571695,23.2258053 L11.0728033,13.5483899 L12.7556383,13.5483899 L13.8258327,23.2258053 L9.64571695,23.2258053 Z" id="Shape"></path>
            <path d="M23.4943585,23.1999986 L23.096149,23.1999986 C22.876224,23.1999986 22.6979396,23.3790847 22.6979396,23.5999986 C22.6979396,23.8209125 22.876224,23.9999986 23.096149,23.9999986 L23.4943585,23.9999986 C23.7142835,23.9999986 23.892568,23.8209125 23.892568,23.5999986 C23.892568,23.3790847 23.7142835,23.1999986 23.4943585,23.1999986 Z" id="Path"></path>
        </g>
    </g>
</svg>