<svg xmlns="http://www.w3.org/2000/svg" width="22" height="24" viewBox="0 0 22 24">
    <defs>
        <filter id="enc32rm5ea">
            <feColorMatrix in="SourceGraphic" values="0 0 0 0 1.000000 0 0 0 0 1.000000 0 0 0 0 1.000000 0 0 0 1.000000 0"/>
        </filter>
    </defs>
    <g fill="none" fill-rule="evenodd">
        <g>
            <g filter="url(#enc32rm5ea)" transform="translate(-1155 -16) translate(1155.556 16)">
                <g>
                    <path fill="#FFF" fill-rule="nonzero" d="M16.983 9.6c-.439 0-.795-.389-.795-.868 0-2.437-.868-4.726-2.444-6.45-.31-.339-.31-.888 0-1.227.31-.34.813-.34 1.124 0 1.877 2.05 2.91 4.777 2.91 7.677 0 .479-.356.868-.795.868zM.795 9.6C.356 9.6 0 9.211 0 8.732c0-2.9 1.033-5.627 2.91-7.677.31-.34.813-.34 1.124 0 .31.34.31.888 0 1.228C2.457 4.005 1.59 6.295 1.59 8.732c0 .479-.356.868-.795.868zM16.559 14.883c-1.237-1.124-1.946-2.768-1.946-4.51V7.92c0-3.097-2.137-5.66-4.906-6.09V.88c0-.487-.367-.88-.818-.88-.452 0-.818.393-.818.88v.95c-2.77.43-4.907 2.993-4.907 6.09v2.453c0 1.742-.709 3.386-1.952 4.517-.319.293-.5.72-.5 1.17 0 .85.641 1.54 1.43 1.54h13.494c.789 0 1.43-.69 1.43-1.54 0-.45-.182-.877-.507-1.177zM9.244 21.6c1.402 0 2.575-1.033 2.845-2.4H6.4c.27 1.367 1.442 2.4 2.844 2.4z" transform="translate(1.778 1)"/>
                </g>
            </g>
        </g>
    </g>
</svg>
