<svg xmlns="http://www.w3.org/2000/svg" width="32" height="32" viewBox="0 0 32 32">
    <g fill="none" fill-rule="evenodd">
        <g fill="#FFF">
            <g>
                <g>
                    <path d="M21.263 9.681c-.048-.101-.116-.194-.203-.271l-2.8-2.5c-.364-.325-.954-.325-1.32 0-.364.326-.364.854 0 1.179l1.208 1.077h-5.215c-.516 0-.933.374-.933.834 0 .46.417.833.933.833h5.215l-1.207 1.078c-.365.326-.365.853 0 1.178.182.163.42.244.66.244.239 0 .478-.08.66-.244l2.8-2.5c.086-.076.154-.168.202-.27.094-.204.094-.434 0-.638z" transform="translate(-1208 -12) translate(1208 12) translate(5.333 5.333)"/>
                    <path d="M15.111 12.444c-.491 0-.889.399-.889.89v4.444h-3.555V3.556c0-.392-.258-.74-.634-.852l-3.087-.926h7.276v4.444c0 .49.398.89.89.89.49 0 .888-.4.888-.89V.89c0-.49-.397-.889-.889-.889H.89C.857 0 .829.013.797.017.756.02.717.028.677.038.584.062.5.098.42.148.4.161.377.162.358.176.351.181.348.191.341.196.244.273.164.366.105.477.092.501.09.527.08.552.052.62.02.685.01.76.005.787.013.812.012.837.012.855 0 .871 0 .89v17.778c0 .424.3.788.715.87l8.889 1.779c.057.012.116.017.174.017.203 0 .403-.07.563-.201.206-.17.326-.42.326-.688v-.888h4.444c.492 0 .889-.399.889-.89v-5.333c0-.49-.397-.889-.889-.889z" transform="translate(-1208 -12) translate(1208 12) translate(5.333 5.333)"/>
                </g>
            </g>
        </g>
    </g>
</svg>
