<svg xmlns="http://www.w3.org/2000/svg" width="16" height="16" viewBox="0 0 16 16">
    <g fill="none" fill-rule="evenodd">
        <g fill="#FFF">
            <g>
                <g>
                    <g>
                        <g>
                            <path d="M10.566 9.222L6.076.872C5.757.28 4.909.28 4.59.872L.1 9.222c-.14.262-.134.578.018.833s.426.411.723.412h8.981c.297 0 .572-.156.724-.411.153-.256.16-.572.019-.834zm-5.233-.048c-.29 0-.527-.236-.527-.528 0-.291.236-.527.527-.527.291 0 .527.236.527.527 0 .14-.055.274-.154.373-.099.1-.233.155-.373.155zm.573-5.307l-.152 3.219c0 .233-.188.422-.421.422-.233 0-.422-.19-.422-.422L4.76 3.868c-.007-.155.05-.307.156-.42.107-.112.255-.177.41-.179h.006c.156 0 .306.064.414.177.108.114.165.266.159.422v-.001z" transform="translate(-252 -776) translate(98 222) translate(0 538) translate(154 16) translate(2.667 2.667)"/>
                        </g>
                    </g>
                </g>
            </g>
        </g>
    </g>
</svg>
