<svg xmlns="http://www.w3.org/2000/svg" width="16" height="16" viewBox="0 0 16 16">
    <g fill="none" fill-rule="evenodd">
        <g>
            <g>
                <g>
                    <g>
                        <g>
                            <path fill="#191919" d="M6.417 -1.583L8.25 -1.583 8.25 14.917 6.417 14.917z" transform="translate(-252 -727) translate(98 222) translate(0 489) translate(154 16) translate(.667 1.333) scale(-1 1) rotate(45 0 -11.038)"/>
                        </g>
                        <g fill="#191919" opacity=".5">
                            <path d="M14.55 2.926c-4.06-3.902-10.375-3.9-14.433 0-.153.146-.156.395-.008.547l.784.809c.141.145.367.148.514.009 3.344-3.183 8.509-3.184 11.853 0 .146.139.373.136.514-.01l.784-.808c.148-.152.145-.4-.008-.547zM7.333 7.619c-.81 0-1.466.682-1.466 1.524s.656 1.524 1.466 1.524c.81 0 1.467-.682 1.467-1.524s-.657-1.524-1.467-1.524zm4.645-1.99c-2.642-2.427-6.65-2.424-9.29 0-.157.145-.162.397-.012.551l.789.81c.137.14.359.15.505.018 1.924-1.728 4.807-1.724 6.726 0 .147.132.368.122.505-.019l.79-.809c.15-.154.145-.406-.013-.551z" transform="translate(-252 -727) translate(98 222) translate(0 489) translate(154 16) translate(.667 2.667)"/>
                        </g>
                    </g>
                </g>
            </g>
        </g>
    </g>
</svg>
