<svg xmlns="http://www.w3.org/2000/svg" width="60" height="47" viewBox="0 0 60 47">
    <g fill="none" fill-rule="evenodd">
        <g fill="#FFF">
            <g>
                <g>
                    <g>
                        <g>
                            <path fill-rule="nonzero" d="M.897 44.184v-2.869h.488c1.291 0 2.384-.554 2.384-1.997 0-1.253-.65-1.98-2.746-1.98H.048v6.846h.849zm.271-3.631H.897V38.1h.226c.84 0 1.851.127 1.851 1.199 0 1.09-.94 1.253-1.806 1.253zm5.506 3.776c1.264 0 2.257-.98 2.257-2.26 0-1.28-.993-2.26-2.257-2.26-1.265 0-2.258.98-2.258 2.26 0 1.28.993 2.26 2.258 2.26zm0-.78c-.804 0-1.445-.681-1.445-1.48 0-.808.64-1.48 1.445-1.48.803 0 1.445.672 1.445 1.48 0 .799-.642 1.48-1.445 1.48zm7.293.78l2.15-4.394h-.921l-1.229 2.706-1.237-2.942-1.246 2.942-1.228-2.706h-.921l2.149 4.394 1.246-2.841 1.237 2.841zm4.675 0c.822 0 1.562-.426 1.96-1.162l-.686-.39c-.308.508-.642.826-1.265.826-.776 0-1.264-.68-1.273-1.407h3.224v-.127c0-1.262-.632-2.26-1.978-2.26-1.363 0-2.059.98-2.059 2.287 0 1.253.786 2.233 2.077 2.233zm1.147-2.75h-2.366c.1-.609.569-1.063 1.201-1.063.65 0 1.066.427 1.165 1.063zm2.742 2.605v-2.088c0-.69.109-1.507.985-1.507.19 0 .352.045.496.172l.37-.744c-.198-.127-.433-.209-.668-.209-.541 0-.957.318-1.156.817h-.027v-.69h-.812v4.25h.812zm8.908.145c.596 0 1.264-.172 1.788-.48V42.84c-.506.453-1.147.708-1.816.708-1.517 0-2.673-1.28-2.673-2.778 0-1.517 1.165-2.797 2.692-2.797.64 0 1.309.236 1.797.672v-.99c-.515-.317-1.12-.463-1.716-.463-2.005 0-3.621 1.58-3.621 3.605 0 1.979 1.607 3.531 3.549 3.531zm4.954 0c1.265 0 2.258-.98 2.258-2.26 0-1.28-.993-2.26-2.258-2.26-1.264 0-2.257.98-2.257 2.26 0 1.28.993 2.26 2.257 2.26zm0-.78c-.803 0-1.445-.681-1.445-1.48 0-.808.642-1.48 1.445-1.48.804 0 1.445.672 1.445 1.48 0 .799-.64 1.48-1.445 1.48zm4.179.635v-1.952c0-.771 0-1.698 1.047-1.698.796 0 .92.45.93 1.128v2.522h.813v-2.533c0-1.035-.307-1.843-1.5-1.843-.514 0-1.02.245-1.272.7h-.018v-.573h-.813v4.25h.813zm5.207 0v-3.486h.795v-.763h-.795V38.31h-.813v1.625h-.442v.763h.442v3.486h.813zm2.472 0v-2.088c0-.69.108-1.507.984-1.507.19 0 .352.045.497.172l.37-.744c-.199-.127-.434-.209-.668-.209-.542 0-.958.318-1.156.817h-.027v-.69h-.813v4.25h.813zm4.548.145c1.264 0 2.258-.98 2.258-2.26 0-1.28-.994-2.26-2.258-2.26s-2.258.98-2.258 2.26c0 1.28.994 2.26 2.258 2.26zm0-.78c-.804 0-1.445-.681-1.445-1.48 0-.808.641-1.48 1.445-1.48s1.445.672 1.445 1.48c0 .799-.641 1.48-1.445 1.48zm4.214.635v-7.88h-.812v7.88h.812zM47.498 33.895v-8.05h-1.464v8.05h1.464zm8.259.218l.903-.977-.72-.69c.488-.72.732-1.58.732-2.576 0-.828-.17-1.559-.51-2.191-.338-.633-.807-1.123-1.406-1.472-.599-.349-1.276-.523-2.03-.523-.755 0-1.432.174-2.03.523-.6.349-1.068.84-1.408 1.472-.34.632-.509 1.363-.509 2.19 0 .829.17 1.559.51 2.191.339.633.808 1.124 1.406 1.472.599.35 1.276.524 2.03.524.847 0 1.606-.223 2.277-.667l.755.724zm-3.031-1.483c-.778 0-1.375-.253-1.79-.76-.416-.505-.624-1.172-.624-2 0-.828.208-1.495.623-2.001.416-.506 1.013-.76 1.79-.76.778 0 1.375.254 1.79.76.416.506.624 1.173.624 2 0 .583-.103 1.09-.309 1.519l-.96-.92-.904.977.95.909c-.329.184-.725.276-1.19.276zM5.413 33.895c3.296 0 5.899-1.726 5.899-5.304 0-3.494-2.659-5.193-5.858-5.193h-2.16v10.497h2.119zm-.36-1.197h-.457v-8.103h.457c2.659 0 4.957.989 4.957 4.052 0 3.048-2.298 4.05-4.957 4.05zm12.795 1.42c.913 0 1.938-.265 2.741-.738v-1.546c-.775.696-1.758 1.086-2.783 1.086-2.326 0-4.099-1.963-4.099-4.26 0-2.324 1.787-4.287 4.127-4.287.983 0 2.008.362 2.755 1.03v-1.517c-.789-.488-1.717-.71-2.63-.71-3.075 0-5.553 2.422-5.553 5.526 0 3.035 2.464 5.415 5.442 5.415zm7.214 0c1.26 0 2.395-.655 3.005-1.782l-1.053-.599c-.47.78-.983 1.267-1.938 1.267-1.191 0-1.939-1.044-1.953-2.158h4.944v-.195c0-1.935-.97-3.466-3.033-3.466-2.09 0-3.157 1.503-3.157 3.508 0 1.921 1.205 3.424 3.185 3.424zm1.758-4.219h-3.627c.152-.932.872-1.628 1.841-1.628.997 0 1.634.654 1.786 1.628zm3.933 3.996v-3.187c.005-1.139.087-2.41 1.606-2.41 1.274 0 1.426.752 1.426 1.866v3.73h1.247v-3.883c0-1.587-.471-2.826-2.299-2.826-.79 0-1.565.376-1.952 1.072h-.028v-.877h-1.246v6.515h1.246zm7.796 0v-5.346h1.218v-1.17H38.55v-2.491h-1.246v2.492h-.679v1.17h.679v5.345h1.246zm3.6 0v-3.202c0-1.058.166-2.311 1.51-2.311.29 0 .54.07.761.264l.568-1.141c-.305-.195-.665-.32-1.025-.32-.83 0-1.468.487-1.772 1.253h-.042V27.38h-1.246v6.515h1.246z" transform="translate(-118 -307) translate(95 221) translate(16 23) translate(8 64) translate(.602)"/>
                            <path d="M28.898 0c5.578 0 10.172 4.237 10.77 9.684h-4.224c-.082-.542-.232-1.07-.447-1.583-.35-.829-.828-1.555-1.436-2.179-.608-.623-1.319-1.122-2.131-1.498-.723-.333-1.49-.518-2.303-.555l-.307-.007h-5.238v13.69h5.238l.31-.006c.823-.037 1.595-.223 2.318-.556.812-.376 1.523-.878 2.13-1.507.609-.63 1.084-1.36 1.428-2.188.16-.39.284-.786.37-1.19h4.293c-.6 5.448-5.193 9.684-10.771 9.684-5.985 0-10.837-4.877-10.837-10.894S22.913 0 28.898 0zm-.963 6.876c.602 0 1.144.097 1.625.29.482.194.888.46 1.22.8.33.338.586.744.767 1.216.18.472.27.98.27 1.525 0 .557-.086 1.068-.261 1.534-.175.466-.427.869-.759 1.208-.33.339-.737.605-1.219.799-.481.194-1.03.29-1.643.29h-.813V6.876z" transform="translate(-118 -307) translate(95 221) translate(16 23) translate(8 64) translate(.602)"/>
                        </g>
                    </g>
                </g>
            </g>
        </g>
    </g>
</svg>
