<?xml version="1.0" encoding="UTF-8"?>
<svg width="19px" height="19px" viewBox="0 0 19 19" version="1.1" xmlns="http://www.w3.org/2000/svg" xmlns:xlink="http://www.w3.org/1999/xlink">
    <title>02 Buttons/06 Collapsible/Expand</title>
    <g id="02-Buttons/06-Collapsible/Expand" stroke="none" stroke-width="1" fill="none" fill-rule="evenodd">
        <path d="M15.7013196,0 L3.41331992,0 C1.52911997,0.00223999995 0.00223999995,1.52911997 0,3.41331992 L0,15.7013196 C0.00223999995,17.5855196 1.52911997,19.1123996 3.41331992,19.1146396 L15.7013196,19.1146396 C17.5855196,19.1123996 19.1123996,17.5855196 19.1146396,15.7013196 L19.1146396,3.41331992 C19.1123996,1.52911997 17.5855196,0.00223999995 15.7013196,0 Z M17.7493196,15.7013196 C17.7493196,16.8323996 16.8323996,17.7493196 15.7013196,17.7493196 L3.41331992,17.7493196 C2.28223995,17.7493196 1.36531997,16.8323996 1.36531997,15.7013196 L1.36531997,3.41331992 C1.36531997,2.28223995 2.28223995,1.36531997 3.41331992,1.36531997 L15.7013196,1.36531997 C16.8323996,1.36531997 17.7493196,2.28223995 17.7493196,3.41331992 L17.7493196,15.7013196 Z" id="Shape" fill="#20C161"></path>
        <path d="M12.9706797,8.8746798 L10.2399998,8.8746798 L10.2399998,6.14399986 C10.2399998,5.76695987 9.93435978,5.46131988 9.55731979,5.46131988 C9.18027979,5.46131988 8.8746398,5.76695987 8.8746398,6.14399986 L8.8746398,8.8746798 L6.14399986,8.8746798 C5.76695987,8.8746798 5.46131988,9.18031979 5.46131988,9.55735979 C5.46131988,9.93439978 5.76695987,10.2399998 6.14399986,10.2399998 L8.8746798,10.2399998 L8.8746798,12.9706797 C8.8746798,13.3477197 9.18031979,13.6533597 9.55735979,13.6533597 C9.93439978,13.6533597 10.2399998,13.3476797 10.2399998,12.9706797 L10.2399998,10.2399998 L12.9706797,10.2399998 C13.3477197,10.2399998 13.6533597,9.93435978 13.6533597,9.55731979 C13.6533597,9.18027979 13.3476797,8.8746798 12.9706797,8.8746798 Z" id="Path-2" fill="#20C161"></path>
    </g>
</svg>