<?xml version="1.0" encoding="UTF-8"?>
<svg width="230px" height="68px" viewBox="0 0 230 68" version="1.1" xmlns="http://www.w3.org/2000/svg" xmlns:xlink="http://www.w3.org/1999/xlink">
    <title>00 Images/logo-color-lg</title>
    <g id="00-Images/logo-color-lg" stroke="none" stroke-width="1" fill="none" fill-rule="evenodd">
        <g id="01-Images/Logo">
            <polygon id="Fill-1" fill="#20C161" points="222.897648 9.42355481 222.897648 21.9457955 207.494447 21.9457955 207.494447 9.42355481 200.797487 9.42355481 200.797487 41.1659565 207.494447 41.1659565 207.494447 27.6433958 222.897648 27.6433958 222.897648 41.1659565 229.595569 41.1659565 229.595569 9.42355481"></polygon>
            <polygon id="Fill-2" fill="#062C3F" points="68.1960399 9.86419483 68.1960399 30.626116 51.767559 9.45427481 51.751239 9.46675481 51.751239 9.42355481 51.354759 9.42355481 45.6168386 9.42355481 44.6568386 9.42355481 44.6568386 41.1659565 51.354759 41.1659565 51.354759 19.8481954 67.8897999 41.1563565 67.9137999 41.1381165 67.9137999 41.1659565 68.1960399 41.1659565 74.0472402 41.1659565 74.8939602 41.1659565 74.8939602 9.86419483"></polygon>
            <polygon id="Fill-3" fill="#20C161" points="114.785994 0.888578343 101.831754 0.888578343 95.1347934 0.888578343 82.6087127 0.888578343 82.6087127 6.60537866 95.1347934 6.60537866 95.1347934 41.1663405 101.831754 41.1663405 101.831754 6.60537866 114.785994 6.60537866"></polygon>
            <polygon id="Fill-4" fill="#20C161" points="129.228235 35.4494442 129.228235 28.1524838 144.681356 28.1524838 144.681356 22.4366435 129.228235 22.4366435 129.228235 15.1396831 146.964236 15.1396831 146.964236 9.42384281 129.228235 9.42384281 127.900555 9.42384281 122.530315 9.42384281 122.530315 41.1662445 127.900555 41.1662445 129.228235 41.1662445 147.404876 41.1662445 147.404876 35.4494442"></polygon>
            <polygon id="Fill-5" fill="#062C3F" points="7.47507656 35.4494442 7.47507656 23.8852836 27.2952376 23.8852836 27.2952376 18.1694433 7.47507656 18.1694433 7.47507656 6.60528266 29.5627578 6.60528266 29.5627578 0.888482343 7.47507656 0.888482343 0.32595617 0.888482343 0.32595617 6.60528266 0.32595617 18.1694433 0.32595617 23.8852836 0.32595617 35.4494442 0.32595617 41.1662445 7.47507656 41.1662445 30.2289978 41.1662445 30.2289978 35.4494442"></polygon>
            <g id="Group-24" transform="translate(24.000000, 7.539520)">
                <path d="M159.592942,24.42906 C157.602862,26.9999402 154.494382,28.6626602 150.991342,28.6626602 C144.981741,28.6626602 140.110701,23.79066 140.110701,17.7810596 C140.110701,11.7714593 144.981741,6.89945905 150.991342,6.89945905 C154.494382,6.89945905 157.602862,8.56217915 159.592942,11.1330593 L163.896622,6.82937905 C160.790062,3.17273885 156.165742,0.846658724 150.991342,0.846658724 C141.639021,0.846658724 134.056941,8.42873914 134.056941,17.7810596 C134.056941,27.1343402 141.639021,34.7154606 150.991342,34.7154606 C156.165742,34.7154606 160.790062,32.3893804 163.896622,28.7317802 L159.592942,24.42906 Z" id="Fill-6" fill="#20C161"></path>
                <path d="M4.55379771,49.4452214 C2.89587762,49.4452214 1.79955756,50.1815414 1.79955756,51.1837815 C1.79955756,52.3079415 3.28659764,52.7169016 4.21299769,52.9213816 L5.48019776,53.2074616 C6.77235783,53.4945016 8.98995795,54.1281016 8.98995795,56.0913017 C8.98995795,57.7876218 7.35699787,59.1172219 4.48083771,59.1172219 C1.79955756,59.1172219 0.141637471,57.9517818 -0.00428253648,56.2343417 L1.55571755,56.2343417 C1.67763756,57.4209018 2.99379763,57.9729018 4.48083771,57.9729018 C6.2117178,57.9729018 7.52787788,57.2164218 7.52787788,56.0701817 C7.52787788,55.0276217 6.35763781,54.6388217 5.04147774,54.3325816 L3.50547766,53.9649016 C1.55571755,53.4945016 0.336517482,52.6564216 0.336517482,51.2442615 C0.336517482,49.4865014 2.21331758,48.3201013 4.60275772,48.3201013 C7.01523785,48.3201013 8.75187794,49.5018614 8.81907795,51.0810615 L7.35699787,51.0810615 C7.21107786,50.0481014 6.0648378,49.4452214 4.55379771,49.4452214" id="Fill-8" fill="#062C3F"></path>
                <path d="M27.1466309,49.5061814 C24.8800708,49.5061814 23.1002307,50.9788215 23.1002307,53.6985016 C23.1002307,56.4181818 24.8800708,57.8908218 27.1466309,57.8908218 C29.4131911,57.8908218 31.1930312,56.4181818 31.1930312,53.6985016 C31.1930312,50.9788215 29.4131911,49.5061814 27.1466309,49.5061814 M27.1466309,59.0773819 C23.9536708,59.0773819 21.6381506,57.0114618 21.6381506,53.6985016 C21.6381506,50.3855414 23.9536708,48.3205813 27.1466309,48.3205813 C30.3395911,48.3205813 32.6551112,50.3855414 32.6551112,53.6985016 C32.6551112,57.0114618 30.3395911,59.0773819 27.1466309,59.0773819" id="Fill-10" fill="#062C3F"></path>
                <polygon id="Fill-12" fill="#062C3F" points="45.840424 48.4637173 47.3514641 48.4637173 47.3514641 57.8083578 53.1527444 57.8083578 53.1527444 58.9334779 45.840424 58.9334779"></polygon>
                <path d="M75.8432096,48.4637173 L75.8432096,55.3958777 C75.8432096,57.5433978 73.9299295,59.1177979 70.9923293,59.1177979 C68.0556892,59.1177979 66.1424091,57.5433978 66.1424091,55.3958777 L66.1424091,48.4637173 L67.6534492,48.4637173 L67.6534492,55.2931577 C67.6534492,56.8272378 68.9081692,57.9312378 70.9923293,57.9312378 C73.0764895,57.9312378 74.3321695,56.8272378 74.3321695,55.2931577 L74.3321695,48.4637173 L75.8432096,48.4637173 Z" id="Fill-14" fill="#062C3F"></path>
                <polygon id="Fill-16" fill="#062C3F" points="88.8341223 48.4637173 98.1941228 48.4637173 98.1941228 49.5888374 94.2696426 49.5888374 94.2696426 58.9334779 92.7586025 58.9334779 92.7586025 49.5888374 88.8341223 49.5888374"></polygon>
                <polygon id="Fill-18" fill="#062C3F" points="111.183692 58.9337659 112.694732 58.9337659 112.694732 48.4640053 111.183692 48.4640053"></polygon>
                <path d="M131.384493,49.5061814 C129.117933,49.5061814 127.338092,50.9788215 127.338092,53.6985016 C127.338092,56.4181818 129.117933,57.8908218 131.384493,57.8908218 C133.651053,57.8908218 135.430893,56.4181818 135.430893,53.6985016 C135.430893,50.9788215 133.651053,49.5061814 131.384493,49.5061814 M131.384493,59.0773819 C128.191532,59.0773819 125.876012,57.0114618 125.876012,53.6985016 C125.876012,50.3855414 128.191532,48.3205813 131.384493,48.3205813 C134.577453,48.3205813 136.892973,50.3855414 136.892973,53.6985016 C136.892973,57.0114618 134.577453,59.0773819 131.384493,59.0773819" id="Fill-20" fill="#062C3F"></path>
                <polygon id="Fill-21" fill="#062C3F" points="159.975406 58.9336699 158.513326 58.9336699 151.712686 50.7131894 151.590766 50.7131894 151.590766 58.9336699 150.078766 58.9336699 150.078766 48.4639093 151.541806 48.4639093 158.366446 56.7045498 158.488366 56.7045498 158.488366 48.4639093 159.975406 48.4639093"></polygon>
                <path d="M177.669743,49.4452214 C176.011823,49.4452214 174.915503,50.1815414 174.915503,51.1837815 C174.915503,52.3079415 176.402543,52.7169016 177.328943,52.9213816 L178.597103,53.2074616 C179.889263,53.4945016 182.106863,54.1281016 182.106863,56.0913017 C182.106863,57.7876218 180.473903,59.1172219 177.596783,59.1172219 C174.915503,59.1172219 173.257583,57.9517818 173.111663,56.2343417 L174.671663,56.2343417 C174.793583,57.4209018 176.109743,57.9729018 177.596783,57.9729018 C179.328623,57.9729018 180.644783,57.2164218 180.644783,56.0701817 C180.644783,55.0276217 179.474543,54.6388217 178.157423,54.3325816 L176.621423,53.9649016 C174.671663,53.4945016 173.452463,52.6564216 173.452463,51.2442615 C173.452463,49.4865014 175.329263,48.3201013 177.718703,48.3201013 C180.132143,48.3201013 181.868783,49.5018614 181.935983,51.0810615 L180.473903,51.0810615 C180.327983,50.0481014 179.181743,49.4452214 177.669743,49.4452214" id="Fill-22" fill="#062C3F"></path>
            </g>
        </g>
    </g>
</svg>