<?xml version="1.0" encoding="UTF-8"?>
<svg width="96px" height="28px" viewBox="0 0 96 28" version="1.1" xmlns="http://www.w3.org/2000/svg" xmlns:xlink="http://www.w3.org/1999/xlink">
    <title>00 Images/logo-white-sm</title>
    <defs>
        <polygon id="path-1" points="0.223594468 0.361792754 4.26838878 0.361792754 4.26838878 4.81160706 0.223594468 4.81160706"></polygon>
        <polygon id="path-3" points="0 27.6667406 95.5944405 27.6667406 95.5944405 0.196874922 0 0.196874922"></polygon>
    </defs>
    <g id="00-Images/logo-white-sm" stroke="none" stroke-width="1" fill="none" fill-rule="evenodd">
        <g id="00-Images/logo-white">
            <polygon id="Fill-1" fill="#FFFFFF" points="92.8876015 3.91891892 92.8876015 9.17546642 86.5992769 9.17546642 86.5992769 3.91891892 83.8648649 3.91891892 83.8648649 17.2432432 86.5992769 17.2432432 86.5992769 11.5667845 92.8876015 11.5667845 92.8876015 17.2432432 95.6216216 17.2432432 95.6216216 3.91891892"></polygon>
            <polygon id="Fill-2" fill="#FFFFFF" points="28.5734566 4.10388383 28.5734566 12.8189953 21.7599102 3.93181408 21.7531417 3.93705273 21.7531417 3.91891892 21.5887056 3.91891892 19.2089611 3.91891892 18.8108108 3.91891892 18.8108108 17.2432432 21.5887056 17.2432432 21.5887056 8.29480998 28.4464466 17.2392135 28.4564004 17.231557 28.4564004 17.2432432 28.5734566 17.2432432 31.0001828 17.2432432 31.3513514 17.2432432 31.3513514 4.10388383"></polygon>
            <polygon id="Fill-3" fill="#FFFFFF" points="34.4864865 0.783783784 34.4864865 3.11961078 39.6730268 3.11961078 39.6730268 17.2432432 42.4465757 17.2432432 42.4465757 3.11961078 47.8108108 3.11961078 47.8108108 0.783783784"></polygon>
            <polygon id="Fill-4" fill="#FFFFFF" points="53.6895673 14.8435351 53.6895673 11.7805322 60.019519 11.7805322 60.019519 9.38122699 53.6895673 9.38122699 53.6895673 6.31822414 60.9546389 6.31822414 60.9546389 3.91891892 53.6895673 3.91891892 53.1457192 3.91891892 50.9459459 3.91891892 50.9459459 17.2432432 53.1457192 17.2432432 53.6895673 17.2432432 61.1351351 17.2432432 61.1351351 14.8435351"></polygon>
            <polygon id="Fill-5" fill="#FFFFFF" points="0 0.783783784 0 3.11961078 0 7.84579617 0 10.1816232 0 14.9074162 0 17.2432432 2.998151 17.2432432 12.5405405 17.2432432 12.5405405 14.9074162 2.998151 14.9074162 2.998151 10.1816232 11.3101995 10.1816232 11.3101995 7.84579617 2.998151 7.84579617 2.998151 3.11961078 12.2607346 3.11961078 12.2607346 0.783783784"></polygon>
            <g id="Group-24">
                <path d="M76.4139098,13.17827 C75.5841366,14.2520603 74.2880412,14.9465356 72.8274322,14.9465356 C70.3217011,14.9465356 68.290698,12.9116268 68.290698,10.4015717 C68.290698,7.89151673 70.3217011,5.85660792 72.8274322,5.85660792 C74.2880412,5.85660792 75.5841366,6.5510832 76.4139098,7.62487351 L78.2083495,5.82733731 C76.9130547,4.30005303 74.9849226,3.32850938 72.8274322,3.32850938 C68.9279382,3.32850938 65.7665542,6.49534875 65.7665542,10.4015717 C65.7665542,14.3081957 68.9279382,17.4746341 72.8274322,17.4746341 C74.9849226,17.4746341 76.9130547,16.5030905 78.2083495,14.9754052 L76.4139098,13.17827 Z" id="Fill-6" fill="#FFFFFF"></path>
                <path d="M11.769651,23.6269153 C11.0783734,23.6269153 10.6212576,23.9344572 10.6212576,24.353067 C10.6212576,24.8225996 11.2412859,24.9934117 11.6275528,25.0788177 L12.1559178,25.198306 C12.69469,25.3181952 13.6193288,25.5828336 13.6193288,26.4028116 C13.6193288,27.1113207 12.9384584,27.6666604 11.7392299,27.6666604 C10.6212576,27.6666604 9.92998004,27.1798861 9.869138,26.4625557 L10.5195874,26.4625557 C10.5704225,26.9581512 11.1192016,27.1887074 11.7392299,27.1887074 C12.4609285,27.1887074 13.0097076,26.8727452 13.0097076,26.3939903 C13.0097076,25.9585399 12.5217705,25.7961481 11.9729914,25.6682396 L11.332549,25.5146691 C10.5195874,25.3181952 10.0112362,24.9681508 10.0112362,24.3783279 C10.0112362,23.6441569 10.7937768,23.1569817 11.7900651,23.1569817 C12.79596,23.1569817 13.5200602,23.6505724 13.5480796,24.3101635 L12.9384584,24.3101635 C12.8776164,23.8787227 12.3996862,23.6269153 11.769651,23.6269153" id="Fill-8" fill="#FFFFFF"></path>
                <path d="M21.1898388,23.6523767 C20.2447859,23.6523767 19.5026732,24.2674605 19.5026732,25.4034007 C19.5026732,26.5393409 20.2447859,27.1544247 21.1898388,27.1544247 C22.1348917,27.1544247 22.8770044,26.5393409 22.8770044,25.4034007 C22.8770044,24.2674605 22.1348917,23.6523767 21.1898388,23.6523767 M21.1898388,27.6500202 C19.8585191,27.6500202 18.8930521,26.7871387 18.8930521,25.4034007 C18.8930521,24.0196627 19.8585191,23.1571822 21.1898388,23.1571822 C22.5211585,23.1571822 23.4866255,24.0196627 23.4866255,25.4034007 C23.4866255,26.7871387 22.5211585,27.6500202 21.1898388,27.6500202" id="Fill-10" fill="#FFFFFF"></path>
                <polygon id="Fill-12" fill="#FFFFFF" points="28.9842635 23.2169263 29.6142988 23.2169263 29.6142988 27.1199415 32.0331698 27.1199415 32.0331698 27.5898752 28.9842635 27.5898752"></polygon>
                <g id="Group-16" transform="translate(37.225717, 22.855134)">
                    <mask id="mask-2" fill="white">
                        <use xlink:href="#path-1"></use>
                    </mask>
                    <g id="Clip-15"></g>
                    <path d="M4.26838878,0.361792754 L4.26838878,3.2571773 C4.26838878,4.15414105 3.47063766,4.81172735 2.24579148,4.81172735 C1.02134559,4.81172735 0.223594468,4.15414105 0.223594468,3.2571773 L0.223594468,0.361792754 L0.853629722,0.361792754 L0.853629722,3.2142738 C0.853629722,3.85501948 1.37679114,4.31613182 2.24579148,4.31613182 C3.11479183,4.31613182 3.63835352,3.85501948 3.63835352,3.2142738 L3.63835352,0.361792754 L4.26838878,0.361792754 Z" id="Fill-14" fill="#FFFFFF" mask="url(#mask-2)"></path>
                </g>
                <polygon id="Fill-17" fill="#FFFFFF" points="46.9107278 23.2169263 50.813424 23.2169263 50.813424 23.6868599 49.1770935 23.6868599 49.1770935 27.5898752 48.5470583 27.5898752 48.5470583 23.6868599 46.9107278 23.6868599"></polygon>
                <mask id="mask-4" fill="white">
                    <use xlink:href="#path-3"></use>
                </mask>
                <g id="Clip-20"></g>
                <polygon id="Fill-19" fill="#FFFFFF" mask="url(#mask-4)" points="56.2292455 27.5901558 56.8592807 27.5901558 56.8592807 23.217207 56.2292455 23.217207"></polygon>
                <path d="M64.6522644,23.6523767 C63.7072115,23.6523767 62.9650989,24.2674605 62.9650989,25.4034007 C62.9650989,26.5393409 63.7072115,27.1544247 64.6522644,27.1544247 C65.5973173,27.1544247 66.33943,26.5393409 66.33943,25.4034007 C66.33943,24.2674605 65.5973173,23.6523767 64.6522644,23.6523767 M64.6522644,27.6500202 C63.3209447,27.6500202 62.3554777,26.7871387 62.3554777,25.4034007 C62.3554777,24.0196627 63.3209447,23.1571822 64.6522644,23.1571822 C65.9835842,23.1571822 66.9490511,24.0196627 66.9490511,25.4034007 C66.9490511,26.7871387 65.9835842,27.6500202 64.6522644,27.6500202" id="Fill-21" fill="#FFFFFF" mask="url(#mask-4)"></path>
                <polygon id="Fill-22" fill="#FFFFFF" mask="url(#mask-4)" points="76.57342 27.5899954 75.9637989 27.5899954 73.12824 24.1565128 73.0774049 24.1565128 73.0774049 27.5899954 72.4469693 27.5899954 72.4469693 23.2170466 73.0569907 23.2170466 75.9025566 26.6589495 75.9533917 26.6589495 75.9533917 23.2170466 76.57342 23.2170466"></polygon>
                <path d="M83.9511569,23.6269153 C83.2598793,23.6269153 82.8027635,23.9344572 82.8027635,24.353067 C82.8027635,24.8225996 83.4227919,24.9934117 83.8090587,25.0788177 L84.337824,25.198306 C84.8765962,25.3181952 85.801235,25.5828336 85.801235,26.4028116 C85.801235,27.1113207 85.1203646,27.6666604 83.9207359,27.6666604 C82.8027635,27.6666604 82.111486,27.1798861 82.0506439,26.4625557 L82.7010933,26.4625557 C82.7519284,26.9581512 83.3007075,27.1887074 83.9207359,27.1887074 C84.6428347,27.1887074 85.1916138,26.8727452 85.1916138,26.3939903 C85.1916138,25.9585399 84.7036768,25.7961481 84.1544974,25.6682396 L83.5140549,25.5146691 C82.7010933,25.3181952 82.1927421,24.9681508 82.1927421,24.3783279 C82.1927421,23.6441569 82.9752827,23.1569817 83.971571,23.1569817 C84.9778662,23.1569817 85.7019664,23.6505724 85.7299858,24.3101635 L85.1203646,24.3101635 C85.0595226,23.8787227 84.5815924,23.6269153 83.9511569,23.6269153" id="Fill-23" fill="#FFFFFF" mask="url(#mask-4)"></path>
            </g>
        </g>
    </g>
</svg>