<?xml version="1.0" encoding="UTF-8"?>
<svg width="24px" height="24px" viewBox="0 0 24 24" version="1.1" xmlns="http://www.w3.org/2000/svg" xmlns:xlink="http://www.w3.org/1999/xlink">
    <title>01 Icons/01 Small/assign</title>
    <g id="01-Icons/01-Small/assign" stroke="none" stroke-width="1" fill="none" fill-rule="evenodd">
        <g id="Assignment-Return-595b40b75ba036ed117d5489" transform="translate(6.000000, 3.000000)" fill="#20C161">
            <path d="M6,0 C6.8286765,0 7.5,0.671323538 7.5,1.5 L7.5,1.5 L7.5,1.875 L10.875,1.875 C11.5125,1.875 12,2.3625 12,3 L12,3 L12,16.875 C12,17.5125 11.5125,18 10.875,18 L10.875,18 L1.125,18 C0.4875,18 0,17.5125 0,16.875 L0,16.875 L0,3 C0,2.3625 0.4875,1.875 1.125,1.875 L1.125,1.875 L4.5,1.875 L4.5,1.5 C4.5,0.671323538 5.1713235,0 6,0 Z M7.5,7.5 C7.40409375,7.5 7.30817587,7.53655087 7.23486337,7.60986337 C7.08823838,7.75648837 7.08823838,7.99351162 7.23486337,8.14013662 L9.21972675,10.125 L2.25,10.125 C2.043,10.125 1.875,10.292625 1.875,10.5 C1.875,10.707375 2.043,10.875 2.25,10.875 L9.21972675,10.875 L7.23486337,12.8598634 C7.08823838,13.0064884 7.08823838,13.2435116 7.23486337,13.3901366 C7.38148837,13.5367616 7.61851163,13.5367616 7.76513663,13.3901366 L10.3901366,10.7651366 C10.4632616,10.6920116 10.5,10.596 10.5,10.5 C10.5,10.404 10.4632616,10.3079884 10.3901366,10.2348634 L7.76513663,7.60986337 C7.69182413,7.53655087 7.59590625,7.5 7.5,7.5 Z M6,0.75 C5.5536765,0.75 5.25,1.05367646 5.25,1.5 L5.25,1.5 L5.25,3 L6.75,3 L6.75,1.5 C6.75,1.05367646 6.4463235,0.75 6,0.75 Z M6,1.125 C6.20710678,1.125 6.375,1.29289322 6.375,1.5 C6.375,1.70710678 6.20710678,1.875 6,1.875 C5.79289322,1.875 5.625,1.70710678 5.625,1.5 C5.625,1.29289322 5.79289322,1.125 6,1.125 Z" id="Combined-Shape"></path>
        </g>
    </g>
</svg>