<?xml version="1.0" encoding="UTF-8"?>
<svg width="24px" height="24px" viewBox="0 0 24 24" version="1.1" xmlns="http://www.w3.org/2000/svg" xmlns:xlink="http://www.w3.org/1999/xlink">
    <title>01 Icons/eye_visibilityoff@3x</title>
    <g id="01-Icons/eye_visibilityoff" stroke="none" stroke-width="1" fill="none" fill-rule="evenodd">
        <g id="-g-">
            <rect id="Rectangle" x="0" y="0" width="24" height="24"></rect>
            <path d="M6.59115336,6.04365514 L7.6815768,7.13398288 C6.16691078,8.02490168 4.73590123,9.41556804 3.48790871,11.2708014 L3.511,11.2355888 L3.67538,11.4934606 C5.54474303,14.3701993 8.2396312,16.2239664 11.1508148,16.4444501 L11.4426316,16.4610316 L11.735755,16.4665888 C13.1663589,16.4665888 14.571214,16.0578783 15.8648925,15.3190888 L16.9612338,16.4136387 C15.3588878,17.4072738 13.5768225,17.9665888 11.735755,17.9665888 C7.93155539,17.9665888 4.46203511,15.6384156 2.21607559,11.9923345 C1.91956019,11.5163796 1.92849292,10.9066737 2.24119233,10.4367247 C3.52105892,8.53409877 5.00020625,7.05413621 6.59115336,6.04365514 Z M11.735755,4.46658885 C15.4768241,4.46658885 19.0280186,6.84450494 21.2838414,10.4577783 C21.5717293,10.9216706 21.5717293,11.5127571 21.2852203,11.9744189 C20.4459491,13.3374044 19.4246903,14.520896 18.2765755,15.4678081 L17.2094322,14.4008837 C18.2733358,13.5471434 19.2263306,12.4572837 20.0093254,11.1856949 L20.0093254,11.1856949 L19.9887574,11.2170403 L19.8254395,10.9621481 C17.8835122,8.01575471 14.9966631,6.08978324 12.023701,5.97228736 L12.023701,5.97228736 L11.735755,5.96658885 C10.8931265,5.96658885 10.0498498,6.11642304 9.22085277,6.41080594 L8.06417165,5.25639921 C9.254594,4.73571305 10.4893936,4.46658885 11.735755,4.46658885 Z" id="Combined-Shape" fill="#373A37" fill-rule="nonzero"></path>
            <path d="M9.104632,8.55842926 L10.1656332,9.61876185 C9.75443023,10.0264603 9.49975735,10.5917835 9.49975735,11.2165888 C9.49975735,12.4592295 10.5071167,13.4665888 11.7497574,13.4665888 C12.3745627,13.4665888 12.9398859,13.211916 13.3475844,12.800713 L14.4079169,13.8617142 C13.7287925,14.5441642 12.7886062,14.9665888 11.7497574,14.9665888 C9.67868954,14.9665888 7.99975735,13.2876567 7.99975735,11.2165888 C7.99975735,10.17774 8.42218199,9.23755373 9.104632,8.55842926 Z M11.7497574,7.46658885 C13.8208252,7.46658885 15.4997574,9.14552104 15.4997574,11.2165888 C15.4997574,11.6573766 15.4237066,12.0804017 15.2840106,12.4732587 L13.9995984,11.1895688 C13.985122,9.95937827 12.9833789,8.96658885 11.7497574,8.96658885 L11.7767574,8.96758885 L10.4930875,7.68233557 C10.8264006,7.56381282 11.1814298,7.49110442 11.5505988,7.47178686 Z" id="Combined-Shape" fill="#373A37" fill-rule="nonzero"></path>
            <line x1="3.60550349" y1="4" x2="19.2183944" y2="19.6128909" id="Path-4" stroke="#373A37" stroke-width="1.6"></line>
        </g>
    </g>
</svg>