<?xml version="1.0" encoding="UTF-8"?>
<svg width="24px" height="24px" viewBox="0 0 24 24" version="1.1" xmlns="http://www.w3.org/2000/svg" xmlns:xlink="http://www.w3.org/1999/xlink">
    <title>01 Icons/01 Small/ic-alert</title>
    <defs>
        <filter id="filter-1">
            <feColorMatrix in="SourceGraphic" type="matrix" values="0 0 0 0 0.858824 0 0 0 0 0.329412 0 0 0 0 0.290196 0 0 0 1.000000 0"></feColorMatrix>
        </filter>
    </defs>
    <g id="01-Icons/01-Small/ic-alert" stroke="none" stroke-width="1" fill="none" fill-rule="evenodd">
        <g filter="url(#filter-1)" id="alert-circle">
            <g transform="translate(4.000000, 4.000000)">
                <path d="M8,0 C3.58884615,0 0,3.58884615 0,8 C0,12.4111538 3.58884615,16 8,16 C12.4111538,16 16,12.4111538 16,8 C16,3.58884615 12.4111538,0 8,0 Z M8,12.3042308 C7.57516558,12.3042308 7.23076923,11.9598344 7.23076923,11.535 C7.23076923,11.1101656 7.57516558,10.7657692 8,10.7657692 C8.42483442,10.7657692 8.76923077,11.1101656 8.76923077,11.535 C8.76923077,11.9598344 8.42483442,12.3042308 8,12.3042308 Z M8.83538462,4.56769231 L8.61461538,9.26 C8.61461538,9.59986754 8.33909831,9.87538462 7.99923077,9.87538462 C7.65936323,9.87538462 7.38384615,9.59986754 7.38384615,9.26 L7.16307692,4.57 L7.16307692,4.56807692 C7.149899,4.26107089 7.30617749,3.97157424 7.57007321,3.81414041 C7.83396893,3.65670658 8.16295415,3.65670658 8.42684987,3.81414041 C8.69074558,3.97157424 8.84702408,4.26107089 8.83384615,4.56807692 L8.83538462,4.56769231 Z" id="Shape" fill="#000000" fill-rule="nonzero"></path>
            </g>
        </g>
    </g>
</svg>