<?xml version="1.0" encoding="UTF-8"?>
<svg width="24px" height="24px" viewBox="0 0 24 24" version="1.1" xmlns="http://www.w3.org/2000/svg" xmlns:xlink="http://www.w3.org/1999/xlink">
    <title>01 Icons/01 Small/ic-cal</title>
    <g id="01-Icons/01-Small/ic-cal" stroke="none" stroke-width="1" fill="none" fill-rule="evenodd">
        <g id="1535952" transform="translate(3.000000, 3.000000)" fill="#20C161">
            <path d="M0,17.9624696 L17.6652146,17.9624696 L17.6652146,5.46587854 L0,5.46587854 L0,17.9624696 Z M13.0970769,7.28795951 L14.9246081,7.28795951 L14.9246081,9.21698381 L13.0970769,9.21698381 L13.0970769,7.28795951 Z M13.0970769,10.5674939 L14.9246081,10.5674939 L14.9246081,12.4965547 L13.0970769,12.4965547 L13.0970769,10.5674939 Z M13.0970769,13.8470648 L14.9246081,13.8470648 L14.9246081,15.7760891 L13.0970769,15.7760891 L13.0970769,13.8470648 Z M9.64492009,7.28795951 L11.4724168,7.28795951 L11.4724168,9.21698381 L9.64492009,9.21698381 L9.64492009,7.28795951 Z M9.64492009,10.5674939 L11.4724168,10.5674939 L11.4724168,12.4965547 L9.64492009,12.4965547 L9.64492009,10.5674939 Z M9.64492009,13.8470648 L11.4724168,13.8470648 L11.4724168,15.7760891 L9.64492009,15.7760891 L9.64492009,13.8470648 Z M6.19272874,7.28795951 L8.02025996,7.28795951 L8.02025996,9.21698381 L6.19272874,9.21698381 L6.19272874,7.28795951 Z M6.19272874,10.5674939 L8.02025996,10.5674939 L8.02025996,12.4965547 L6.19272874,12.4965547 L6.19272874,10.5674939 Z M6.19272874,13.8470648 L8.02025996,13.8470648 L8.02025996,15.7760891 L6.19272874,15.7760891 L6.19272874,13.8470648 Z M2.74060644,7.28795951 L4.56810313,7.28795951 L4.56810313,9.21698381 L2.74060644,9.21698381 L2.74060644,7.28795951 Z M2.74060644,10.5674939 L4.56810313,10.5674939 L4.56810313,12.4965547 L2.74060644,12.4965547 L2.74060644,10.5674939 Z M4.56810313,13.8470648 L4.56810313,15.7760891 L2.74060644,15.7760891 L2.74060644,13.8470648 L4.56810313,13.8470648 Z" id="Shape"></path>
            <polygon id="Path" points="17.6652146 1.09322672 14.5582527 1.09322672 14.5582527 3.27957085 13.5226678 3.27957085 13.5226678 1.09322672 4.14254677 1.09322672 4.14254677 3.27957085 3.10696186 3.27957085 3.10696186 1.09322672 0 1.09322672 0 4.37276113 17.6652146 4.37276113"></polygon>
            <rect id="Rectangle" x="3.10696186" y="1.77635684e-15" width="1.03558491" height="1.09311741"></rect>
            <rect id="Rectangle" x="13.5226678" y="1.11022302e-15" width="1.03558491" height="1.09311741"></rect>
        </g>
    </g>
</svg>