<?xml version="1.0" encoding="UTF-8"?>
<svg width="24px" height="24px" viewBox="0 0 24 24" version="1.1" xmlns="http://www.w3.org/2000/svg" xmlns:xlink="http://www.w3.org/1999/xlink">
    <title>01 Icons/01 Small/ic-copy</title>
    <defs>
        <filter id="filter-1">
            <feColorMatrix in="SourceGraphic" type="matrix" values="0 0 0 0 0.096411 0 0 0 0 0.096411 0 0 0 0 0.096411 0 0 0 1.000000 0"></feColorMatrix>
        </filter>
    </defs>
    <g id="01-Icons/01-Small/ic-copy" stroke="none" stroke-width="1" fill="none" fill-rule="evenodd">
        <g filter="url(#filter-1)" id="copy-outline">
            <g transform="translate(3.000000, 3.000000)">
                <path d="M15,4.5 L7,4.5 C5.61928813,4.5 4.5,5.61928813 4.5,7 L4.5,15 C4.5,16.3807119 5.61928813,17.5 7,17.5 L15,17.5 C16.3807119,17.5 17.5,16.3807119 17.5,15 L17.5,7 C17.5,5.61928813 16.3807119,4.5 15,4.5 Z M7,5.5 L15,5.5 C15.8284271,5.5 16.5,6.17157288 16.5,7 L16.5,15 C16.5,15.8284271 15.8284271,16.5 15,16.5 L7,16.5 C6.17157288,16.5 5.5,15.8284271 5.5,15 L5.5,7 C5.5,6.17157288 6.17157288,5.5 7,5.5 Z" id="Rectangle" fill="#000000" fill-rule="nonzero"></path>
                <path d="M3.28571429,0.5 L11.0014225,0.5 C12.3245882,0.503766387 13.4063491,1.53275123 13.494148,2.84496607 L13.4998915,3.01041441 L13.4820344,3.86755726 C13.4762827,4.14363973 13.2478109,4.3627861 12.9717285,4.35703439 C12.7263218,4.35192175 12.5259017,4.17083279 12.4884332,3.93675237 L12.4822513,3.84672845 L12.5,3.00142248 C12.4977843,2.22190636 11.9034218,1.58182038 11.1441848,1.50725065 L11,1.5 L3.28719208,1.5 C2.35065291,1.50276586 1.58322498,2.22350523 1.50632725,3.13953183 L1.5,3.28571429 L1.5,10.9985775 C1.50221567,11.7780936 2.09657822,12.4181796 2.85581525,12.4927493 L3,12.5 L3.85714286,12.5 C4.13328523,12.5 4.35714286,12.7238576 4.35714286,13 C4.35714286,13.2454599 4.1802677,13.4496084 3.94701849,13.4919443 L3.85714286,13.5 L2.99857752,13.5 C1.67541177,13.4962336 0.593650871,12.4672488 0.505756037,11.1642479 L0.5,11 L0.5,3.28423649 C0.504373304,1.80531219 1.65799062,0.597081789 3.11616042,0.505556664 L3.28571429,0.5 Z" id="Path" fill="#000000" fill-rule="nonzero"></path>
            </g>
        </g>
    </g>
</svg>