<?xml version="1.0" encoding="UTF-8"?>
<svg width="24px" height="24px" viewBox="0 0 24 24" version="1.1" xmlns="http://www.w3.org/2000/svg" xmlns:xlink="http://www.w3.org/1999/xlink">
    <title>01 Icons/01 Small/ic-delete</title>
    <g id="01-Icons/01-Small/ic-delete" stroke="none" stroke-width="1" fill="none" fill-rule="evenodd">
        <path d="M13.4583333,4 C14.2637486,4 14.9166667,4.63959321 14.9166667,5.42857143 L14.9166667,5.42857143 L14.9166667,6.28571429 L18.4166667,6.28571429 C18.7388328,6.28571429 19,6.54155157 19,6.85714286 C19,7.17273414 18.7388328,7.42857143 18.4166667,7.42857143 L18.4166667,7.42857143 L17.796875,7.42857143 L17.1041667,18.3214286 C17.0421875,19.2935714 16.3068229,20 15.3541667,20 L15.3541667,20 L8.64583333,20 C7.69791667,20 6.94760417,19.2775 6.89583333,18.3185714 L6.89583333,18.3185714 L6.203125,7.42857143 L5.58333333,7.42857143 C5.26116723,7.42857143 5,7.17273414 5,6.85714286 C5,6.54155157 5.26116723,6.28571429 5.58333333,6.28571429 L5.58333333,6.28571429 L9.08333333,6.28571429 L9.08333333,5.42857143 C9.08333333,4.63959321 9.73625141,4 10.5416667,4 L10.5416667,4 Z M9.35421875,8.57142857 C9.03205265,8.58267151 8.7801895,8.847623 8.79166667,9.16321429 L8.79166667,9.16321429 L9.08333333,17.1632143 C9.09452743,17.4708282 9.35244469,17.7144811 9.66666667,17.7142858 L9.66666667,17.7142858 L9.68744792,17.7142858 C9.84219112,17.7089818 9.98843297,17.6436289 10.0939525,17.5326259 C10.199472,17.421623 10.2556108,17.2740783 10.25,17.1225 L10.25,17.1225 L9.95833333,9.1225 C9.94685617,8.80690871 9.67638485,8.56018563 9.35421875,8.57142857 Z M12,8.57142857 C11.6778339,8.57142857 11.4166667,8.82726586 11.4166667,9.14285714 L11.4166667,9.14285714 L11.4166667,17.1428571 C11.4166667,17.4584484 11.6778339,17.7142857 12,17.7142857 C12.3221661,17.7142857 12.5833333,17.4584484 12.5833333,17.1428571 L12.5833333,17.1428571 L12.5833333,9.14285714 C12.5833333,8.82726586 12.3221661,8.57142857 12,8.57142857 Z M14.9346638,8.65816404 C14.757892,8.54978963 14.5355266,8.54202953 14.3513304,8.6378069 C14.1671342,8.73358426 14.0490911,8.91834823 14.0416667,9.1225 L14.0416667,9.1225 L13.75,17.1225 C13.744388,17.2740186 13.8004772,17.4215106 13.9059185,17.5325033 C14.0113599,17.643496 14.1575086,17.7088892 14.3121875,17.7142858 L14.3121875,17.7142858 L14.3333333,17.7142858 C14.6475553,17.7144811 14.9054726,17.4708282 14.9166667,17.1632143 L14.9166667,17.1632143 L15.2083333,9.16321429 C15.2157578,8.95906252 15.1114355,8.76653845 14.9346638,8.65816404 Z M13.4583333,5.14285714 L10.5416667,5.14285714 C10.4640429,5.14198693 10.3893391,5.17180936 10.3344472,5.22558098 C10.2795554,5.2793526 10.2491117,5.35253185 10.2499811,5.42857143 L10.2499811,5.42857143 L10.2499811,6.28571429 L13.7500189,6.28571429 L13.7500189,5.42857143 C13.7508883,5.35253185 13.7204446,5.2793526 13.6655528,5.22558098 C13.6106609,5.17180936 13.5359571,5.14198693 13.4583333,5.14285714 L13.4583333,5.14285714 Z" id="Combined-Shape" fill="#373A37"></path>
    </g>
</svg>