<?xml version="1.0" encoding="UTF-8"?>
<svg width="24px" height="24px" viewBox="0 0 24 24" version="1.1" xmlns="http://www.w3.org/2000/svg" xmlns:xlink="http://www.w3.org/1999/xlink">
    <title>01 Icons/01 Small/ic-download</title>
    <g id="01-Icons/01-Small/ic-download" stroke="none" stroke-width="1" fill="none" fill-rule="evenodd">
        <path d="M8.2055336,7 C8.43255974,7 8.61660079,7.18727689 8.61660079,7.41829464 C8.61660079,7.62364376 8.47118564,7.79443219 8.27942344,7.82985 L8.2055336,7.83658929 L6.3083004,7.83658929 C5.52855291,7.83658929 4.88906083,8.44765218 4.82706098,9.22485353 L4.82213439,9.34888531 L4.82213439,19.3879568 C4.82213439,20.1814139 5.4226391,20.8321497 6.18641168,20.8952396 L6.3083004,20.9002528 L17.6916996,20.9002528 C18.4714471,20.9002528 19.1109392,20.2891899 19.172939,19.5119886 L19.1778656,19.3879568 L19.1778656,9.34888531 C19.1778656,8.55542818 18.5773609,7.90469244 17.8135883,7.84160251 L17.6916996,7.83658929 L15.7944664,7.83658929 C15.5674403,7.83658929 15.3833992,7.6493124 15.3833992,7.41829464 C15.3833992,7.21294553 15.5288144,7.0421571 15.7205766,7.00673929 L15.7944664,7 L17.6916996,7 C18.9193224,7 19.9231162,7.97517569 19.9957873,9.20579777 L20,9.34888531 L20,19.3879568 C20,20.6371639 19.0416738,21.6586065 17.8323148,21.7325554 L17.6916996,21.7368421 L6.3083004,21.7368421 C5.08067755,21.7368421 4.0768838,20.7616664 4.00421269,19.5310443 L4,19.3879568 L4,9.34888531 C4,8.0996782 4.95832624,7.07823558 6.16768517,7.00428675 L6.3083004,7 L8.2055336,7 Z" id="Path" fill="#000000" fill-rule="nonzero"></path>
        <path d="M8.12214895,13.1372607 C8.26691808,12.9745814 8.49164099,12.9565059 8.65417762,13.0830343 L8.71193626,13.1372607 L12.2660251,17.1314348 L15.8213971,13.1372607 C15.9661662,12.9745814 16.1908891,12.9565059 16.3534257,13.0830343 L16.4111844,13.1372607 C16.5559535,13.2999401 16.572039,13.5524647 16.4594408,13.7351097 L16.4111844,13.800014 L12.5615603,18.1258972 C12.4167912,18.2885765 12.1920683,18.306652 12.0295317,18.1801236 L11.971773,18.1258972 L8.12214895,13.800014 C7.95928368,13.6169997 7.95928368,13.320275 8.12214895,13.1372607 Z" id="Path" fill="#000000" fill-rule="nonzero"></path>
        <path d="M12.2,2 C12.4454599,2 12.6496084,2.15061422 12.6919443,2.34923254 L12.7,2.42576419 L12.7,16.5742358 C12.7,16.8093789 12.4761424,17 12.2,17 C11.9545401,17 11.7503916,16.8493858 11.7080557,16.6507675 L11.7,16.5742358 L11.7,2.42576419 C11.7,2.19062112 11.9238576,2 12.2,2 Z" id="Path" fill="#000000" fill-rule="nonzero"></path>
    </g>
</svg>