<?xml version="1.0" encoding="UTF-8"?>
<svg width="24px" height="24px" viewBox="0 0 24 24" version="1.1" xmlns="http://www.w3.org/2000/svg" xmlns:xlink="http://www.w3.org/1999/xlink">
    <title>01 Icons/01 Small/ic-eye</title>
    <defs>
        <filter id="filter-1">
            <feColorMatrix in="SourceGraphic" type="matrix" values="0 0 0 0 0.952941 0 0 0 0 0.964706 0 0 0 0 0.972549 0 0 0 1.000000 0"></feColorMatrix>
        </filter>
    </defs>
    <g id="01-Icons/01-Small/ic-eye" stroke="none" stroke-width="1" fill="none" fill-rule="evenodd" stroke-linecap="round" stroke-linejoin="round">
        <g filter="url(#filter-1)" id="Group-10">
            <g transform="translate(3.000000, 6.000000)">
                <path d="M8.98599761,0 C12.6878946,0 15.9458372,2.51166667 17.8968261,5.63666667 C18.0343913,5.85833441 18.0343913,6.14291559 17.8968261,6.36458333 C15.9502566,9.52583333 12.7160184,12 8.98599761,12 C5.2149964,12 2.04584473,9.53333333 0.102891192,6.37916667 C-0.0381463269,6.15277878 -0.0338654982,5.86058959 0.113738948,5.63875 C2.64247128,1.87958333 5.8546122,0 8.98599761,0 Z M9,1 C6.23857625,1 4,3.23857625 4,6 C4,8.76142375 6.23857625,11 9,11 C11.7614237,11 14,8.76142375 14,6 C14,3.23857625 11.7614237,1 9,1 Z M9,4 C10.1045695,4 11,4.8954305 11,6 C11,7.1045695 10.1045695,8 9,8 C7.8954305,8 7,7.1045695 7,6 C7,4.8954305 7.8954305,4 9,4 Z" id="Combined-Shape" stroke="#000000" stroke-width="1.5" fill="#D8D8D8"></path>
            </g>
        </g>
    </g>
</svg>