<?xml version="1.0" encoding="UTF-8"?>
<svg width="24px" height="24px" viewBox="0 0 24 24" version="1.1" xmlns="http://www.w3.org/2000/svg" xmlns:xlink="http://www.w3.org/1999/xlink">
    <title>01 Icons/01 Small/ic-expand</title>
    <g id="01-Icons/01-Small/ic-expand" stroke="none" stroke-width="1" fill="none" fill-rule="evenodd">
        <g id="815491" fill="#062C3F">
            <path d="M22.6314509,0.865005695 C22.6180566,0.84969141 22.6040681,0.834742838 22.5894852,0.820159982 C22.5758166,0.806491411 22.5618281,0.793371411 22.5475195,0.780754268 C22.0457138,0.297554279 21.3637938,0 20.6137138,0 L14.353874,0 C13.8490054,0 13.4397254,0.409234277 13.4397254,0.914148551 C13.4397254,1.41906283 13.8490054,1.8282971 14.353874,1.8282971 L20.2886395,1.8282971 L1.83044567,20.2865367 L1.83231996,14.0798625 C1.8324571,13.5750397 1.42335997,13.1656226 0.918445694,13.1654397 L0.918171408,13.1654397 C0.413485705,13.1654397 0.00415999991,13.5745368 0.00402285705,14.079314 L0.00201142853,20.6155881 C0.00201142853,22.1540566 1.25362283,23.405668 2.79209137,23.405668 L9.05193123,23.405668 C9.55679979,23.405668 9.96607978,22.9963881 9.96607978,22.4915195 C9.96607978,21.9866509 9.55679979,21.5773709 9.05193123,21.5773709 L3.1250285,21.5773709 L21.5754967,3.1269485 L21.5754967,9.23474265 C21.5754967,9.73961121 21.9847309,10.1488912 22.4896452,10.1488912 C22.9945595,10.1488912 23.4037938,9.73965693 23.4037938,9.23474265 L23.4037938,2.79012565 C23.4037938,2.04434281 23.1097595,1.36607997 22.6314509,0.865005695 Z" id="Path"></path>
            <circle id="Oval" cx="10.697234" cy="0.915977122" r="1"></circle>
            <circle id="Oval" cx="7.04068556" cy="0.915977122" r="1"></circle>
            <circle id="Oval" cx="3.38418278" cy="0.915977122" r="1"></circle>
            <circle id="Oval" cx="0.916022837" cy="10.4229026" r="1"></circle>
            <circle id="Oval" cx="0.916022837" cy="6.76639985" r="1"></circle>
            <circle id="Oval" cx="0.916022837" cy="3.10985136" r="1"></circle>
            <circle id="Oval" cx="22.4895081" cy="12.7082511" r="1"></circle>
            <circle id="Oval" cx="22.4895081" cy="16.3647539" r="1"></circle>
            <circle id="Oval" cx="22.4895081" cy="20.0213024" r="1"></circle>
            <circle id="Oval" cx="12.9825369" cy="22.4894166" r="1"></circle>
            <circle id="Oval" cx="16.6390853" cy="22.4894166" r="1"></circle>
            <circle id="Oval" cx="20.2955881" cy="22.4894166" r="1"></circle>
        </g>
    </g>
</svg>