<?xml version="1.0" encoding="UTF-8"?>
<svg width="24px" height="24px" viewBox="0 0 24 24" version="1.1" xmlns="http://www.w3.org/2000/svg" xmlns:xlink="http://www.w3.org/1999/xlink">
    <title>01 Icons/01 Small/ic-Edit</title>
    <g id="01-Icons/01-Small/ic-Edit" stroke="none" stroke-width="1" fill="none" fill-rule="evenodd">
        <path d="M17.0854544,6.9412207 C17.0192716,6.86849108 16.926221,6.82600521 16.8279217,6.8236342 C16.7296224,6.8212632 16.6346321,6.85921346 16.5650207,6.92866768 L16.2877699,7.20460991 C16.2178022,7.27463265 16.2178022,7.38811329 16.2877699,7.45813603 L16.5419352,7.71188632 C16.5755851,7.74569763 16.6213185,7.76470588 16.6690178,7.76470588 C16.7167171,7.76470588 16.7624505,7.74569763 16.7961004,7.71188632 L17.0664032,7.44289308 C17.2031235,7.30637902 17.215899,7.08401127 17.0854544,6.9412207 Z" id="Path" fill="#000000" fill-rule="nonzero"></path>
        <path d="M18.9023154,4.11412757 L11.058439,11.9424792 C11.0108811,11.9898339 10.9763145,12.0486297 10.9580659,12.1132085 L10.5952453,13.1936252 C10.577539,13.2533455 10.5939469,13.3179647 10.6380008,13.3620095 C10.6820547,13.4060543 10.7466873,13.4224588 10.8064199,13.4047561 L11.8861913,13.0420107 C11.9507834,13.0237658 12.0095914,12.9892064 12.0569559,12.9416583 L19.8869278,5.09853627 C20.0376907,4.94619146 20.0376907,4.70089811 19.8869278,4.5485533 L19.4545847,4.11412757 C19.3019542,3.96195748 19.0549459,3.96195748 18.9023154,4.11412757 L18.9023154,4.11412757 Z" id="Path" fill="#D7DDE3"></path>
        <path d="M16.6651337,9.88032086 L12.1024064,14.4520321 C11.9260592,14.6288109 11.7093161,14.7599873 11.4709091,14.8342246 L10.5013904,15.1587701 C10.0328768,15.2910771 9.52944088,15.159799 9.18519526,14.8155534 C8.84094964,14.4713078 8.70967153,13.9678718 8.84197861,13.4993583 L9.16652406,12.5298396 C9.24054525,12.2915067 9.37146066,12.0747704 9.54796791,11.8983422 L14.1196791,7.33486631 C14.2053768,7.24926393 14.2310677,7.1204661 14.1847713,7.0085353 C14.1384749,6.8966045 14.0293093,6.82352941 13.9081818,6.82352941 L6.09625668,6.82352941 C4.93852609,6.82352941 4,7.7620555 4,8.9197861 L4,17.9037433 C4,19.0614739 4.93852609,20 6.09625668,20 L15.0802139,20 C16.2379445,20 17.1764706,19.0614739 17.1764706,17.9037433 L17.1764706,10.0918182 C17.1764706,9.97069073 17.1033955,9.86152512 16.9914647,9.81522871 C16.8795339,9.76893229 16.7507361,9.79462316 16.6651337,9.88032086 Z" id="Path" fill="#D7DDE3"></path>
    </g>
</svg>