<?xml version="1.0" encoding="UTF-8"?>
<svg width="24px" height="24px" viewBox="0 0 24 24" version="1.1" xmlns="http://www.w3.org/2000/svg" xmlns:xlink="http://www.w3.org/1999/xlink">
    <title>01 Icons/01 Small/ic-loading</title>
    <g id="01-Icons/01-Small/ic-loading" stroke="none" stroke-width="1" fill="none" fill-rule="evenodd">
        <g id="Group" transform="translate(4.000000, 4.000000)">
            <path d="M8.00003125,6.03961325e-14 C7.74115625,6.03961325e-14 7.53128125,0.209875 7.53128125,0.46875 L7.53128125,3.48125 C7.53128125,3.740125 7.74115625,3.95 8.00003125,3.95 C8.25890625,3.95 8.46878125,3.740125 8.46878125,3.48125 L8.46878125,0.46875 C8.46878125,0.209875 8.25890625,6.03961325e-14 8.00003125,6.03961325e-14 Z" id="Path" fill="#191919"></path>
            <path d="M8.00003125,12.0500313 C7.74115625,12.0500313 7.53128125,12.2599063 7.53128125,12.5187813 L7.53128125,15.53125 C7.53128125,15.790125 7.74115625,16 8.00003125,16 C8.25890625,16 8.46878125,15.790125 8.46878125,15.53125 L8.46878125,12.5187813 C8.46878125,12.259875 8.25890625,12.0500313 8.00003125,12.0500313 Z" id="Path" fill="#959595"></path>
            <path d="M6.14659375,3.85225 L4.64034375,1.24334375 C4.51090625,1.019125 4.22421875,0.9423125 4.00003125,1.07178125 C3.77584375,1.20121875 3.69903125,1.48790625 3.82846875,1.71209375 L5.33471875,4.321 C5.42153125,4.47140625 5.57909375,4.5554375 5.74109375,4.5554375 C5.820625,4.5554375 5.90121875,4.5351875 5.97503125,4.4925625 C6.19921875,4.363125 6.27603125,4.0764375 6.14659375,3.85225 Z" id="Path" fill="#959595"></path>
            <path d="M12.1715937,14.287875 L10.665375,11.6790312 C10.5359375,11.4548125 10.24925,11.378 10.0250625,11.5074687 C9.800875,11.6369062 9.7240625,11.9235937 9.8535,12.1477812 L11.3597187,14.756625 C11.4465312,14.9070312 11.6040937,14.9910625 11.7660937,14.9910625 C11.845625,14.9910625 11.9262187,14.9708125 12.0000312,14.9281875 C12.2242187,14.79875 12.3010312,14.5120625 12.1715937,14.287875 Z" id="Path" fill="#959595"></path>
            <path d="M4.3210625,5.33471875 L1.712125,3.8284375 C1.487875,3.6989375 1.20125,3.77578125 1.0718125,4 C0.942375,4.2241875 1.0191875,4.510875 1.243375,4.6403125 L3.8523125,6.146625 C3.926125,6.18925 4.00671875,6.2095 4.08625,6.2095 C4.24825,6.2095 4.4058125,6.1254375 4.492625,5.97503125 C4.6220625,5.75084375 4.54525,5.46415625 4.3210625,5.33471875 Z" id="Path" fill="#959595"></path>
            <path d="M14.7566562,11.3596875 L12.1477812,9.85346875 C11.9235312,9.72403125 11.636875,9.80084375 11.5074687,10.0250625 C11.3780312,10.2492812 11.4548437,10.5359687 11.6790312,10.665375 L14.2879062,12.1715937 C14.36175,12.2142187 14.4423125,12.2344687 14.5218437,12.2344687 C14.6838437,12.2344687 14.8414375,12.1504062 14.9282187,12.0000312 C15.0576562,11.7757812 14.9808437,11.4890937 14.7566562,11.3596875 Z" id="Path" fill="#959595"></path>
            <path d="M3.48128125,7.5313125 L0.46875,7.5313125 C0.209875,7.5313125 7.10542736e-15,7.7411875 7.10542736e-15,8.0000625 C7.10542736e-15,8.2589375 0.209875,8.4688125 0.46875,8.4688125 L3.48128125,8.4688125 C3.74015625,8.4688125 3.95003125,8.2589375 3.95003125,8.0000625 C3.95003125,7.7411875 3.74015625,7.5313125 3.48128125,7.5313125 Z" id="Path" fill="#959595"></path>
            <path d="M15.53125,7.5313125 L12.5188125,7.5313125 C12.2599375,7.5313125 12.0500625,7.7411875 12.0500625,8.0000625 C12.0500625,8.2589375 12.2599375,8.4688125 12.5188125,8.4688125 L15.53125,8.4688125 C15.790125,8.4688125 16,8.2589375 16,8.0000625 C16,7.7411875 15.790125,7.5313125 15.53125,7.5313125 Z" id="Path" fill="#959595"></path>
            <path d="M4.49265625,10.0250625 C4.36321875,9.80084375 4.07659375,9.72403125 3.85234375,9.8535 L1.24340625,11.35975 C1.01921875,11.4891875 0.94240625,11.775875 1.07184375,12.0000625 C1.15865625,12.1504687 1.31621875,12.2345 1.47821875,12.2345 C1.55775,12.2345 1.63834375,12.21425 1.71215625,12.171625 L4.32109375,10.665375 C4.54528125,10.5359375 4.62209375,10.24925 4.49265625,10.0250625 Z" id="Path" fill="#959595"></path>
            <path d="M14.9281875,4.00009375 C14.79875,3.775875 14.5120937,3.69909375 14.287875,3.82853125 L11.679,5.33478125 C11.4548125,5.4641875 11.378,5.750875 11.5074375,5.9750625 C11.59425,6.12546875 11.7518125,6.20953125 11.9138125,6.20953125 C11.9933125,6.20953125 12.0739375,6.18928125 12.14775,6.14665625 L14.756625,4.64040625 C14.9808125,4.51096875 15.057625,4.22428125 14.9281875,4.00009375 Z" id="Path" fill="#959595"></path>
            <path d="M5.97503125,11.5074687 C5.75084375,11.3779687 5.464125,11.4548125 5.33471875,11.6790312 L3.82846875,14.2879375 C3.69903125,14.512125 3.77584375,14.7988125 4.00003125,14.92825 C4.07384375,14.970875 4.1544375,14.991125 4.23396875,14.991125 C4.39596875,14.991125 4.5535625,14.9070625 4.64034375,14.7566875 L6.14659375,12.1477812 C6.27603125,11.9235937 6.19921875,11.6369062 5.97503125,11.5074687 Z" id="Path" fill="#959595"></path>
            <path d="M12.0000312,1.071875 C11.7758125,0.942375 11.489125,1.01921875 11.3597187,1.2434375 L9.8535,3.85228125 C9.72403125,4.07646875 9.80084375,4.36315625 10.0250625,4.49259375 C10.098875,4.53521875 10.1794687,4.55546875 10.259,4.55546875 C10.421,4.55546875 10.5785625,4.47140625 10.665375,4.32103125 L12.1715937,1.7121875 C12.3010312,1.488 12.2242187,1.2013125 12.0000312,1.071875 Z" id="Path" fill="#959595"></path>
        </g>
    </g>
</svg>