<?xml version="1.0" encoding="UTF-8"?>
<svg width="24px" height="24px" viewBox="0 0 24 24" version="1.1" xmlns="http://www.w3.org/2000/svg" xmlns:xlink="http://www.w3.org/1999/xlink">
    <title>01 Icons/01 Small/ic-logout</title>
    <g id="01-Icons/01-Small/ic-logout" stroke="none" stroke-width="1" fill="none" fill-rule="evenodd">
        <g id="logout" transform="translate(4.000000, 4.000000)" fill="#20C161">
            <path d="M15.9469847,7.2611116 C15.9112802,7.18484662 15.8601848,7.11546688 15.7950766,7.0573379 L13.6955015,5.182825 C13.4217781,4.93905833 12.9793115,4.93905833 12.705588,5.182825 C12.4318645,5.42720694 12.4318645,5.82285898 12.705588,6.06662565 L13.6108018,6.87480589 L9.70007712,6.87480589 C9.31293936,6.87480589 9,7.15481527 9,7.49983886 C9,7.84486244 9.31293936,8.12487182 9.70007712,8.12487182 L13.610769,8.12487182 L12.7055552,8.93305206 C12.4318317,9.177434 12.4318317,9.57308605 12.7055552,9.81685271 C12.8420723,9.93935132 13.0212839,10 13.2005283,10 C13.3797728,10 13.5589844,9.93938062 13.6955015,9.81685271 L15.7950766,7.94233981 C15.8601848,7.88482611 15.9112802,7.81544637 15.9469847,7.73856611 C16.0176718,7.58612405 16.0176718,7.41361226 15.9469847,7.2611116 Z" id="Path"></path>
            <path d="M11.333342,9.33332552 C10.9646848,9.33332552 10.666684,9.63198119 10.666684,9.99998047 L10.666684,13.3333177 L8.00002083,13.3333177 L8.00002083,2.66665104 C8.00002083,2.37265162 7.80667658,2.11265212 7.52467585,2.02799604 L5.20932607,1.33334115 L10.666684,1.33334115 L10.666684,4.66667839 C10.666684,5.03467767 10.9646848,5.33333333 11.333342,5.33333333 C11.7019992,5.33333333 12,5.03467767 12,4.66667839 L12,0.666686198 C12,0.298655667 11.7019992,0 11.333342,0 L0.666657986,0 C0.642657924,0 0.621314118,0.00999998047 0.598001557,0.0126562253 C0.566657726,0.0159999688 0.538001401,0.0213124584 0.508001323,0.028656194 C0.438001141,0.0466561589 0.374657226,0.0739998555 0.315344571,0.111312283 C0.300688283,0.120656014 0.282688236,0.121312263 0.2686882,0.131968492 C0.263313186,0.135999734 0.261313181,0.14334347 0.255969417,0.147343462 C0.183312977,0.20465585 0.122656569,0.274655714 0.0786564548,0.357999301 C0.0693126805,0.375999266 0.0673126753,0.395342978 0.0600001563,0.413999191 C0.0386563507,0.464655342 0.01534379,0.513998996 0.00734376912,0.569998887 C0.00400001042,0.589998848 0.010000026,0.608655061 0.00934377433,0.627998773 C0.00868752262,0.641342497 0,0.653342474 0,0.666654948 L0,13.9999727 C0,14.317972 0.224656835,14.5913153 0.536001396,14.6533151 L7.20267501,15.9866563 C7.24601887,15.996 7.29001898,16 7.3333316,16 C7.48598824,16 7.63598864,15.9473439 7.75598895,15.8486565 C7.90998935,15.7220005 7.99998958,15.5333134 7.99998958,15.3333138 L7.99998958,14.6666589 L11.333342,14.6666589 C11.7019992,14.6666589 12,14.3680032 12,14 L12,9.99998047 C12,9.63198119 11.7019992,9.33332552 11.333342,9.33332552 Z" id="Path"></path>
        </g>
    </g>
</svg>