<svg xmlns="http://www.w3.org/2000/svg" width="41" height="40" viewBox="0 0 41 40">
    <g fill="none" fill-rule="evenodd">
        <g fill="#062C3F">
            <g transform="translate(8 8) translate(.771)">
                <path d="M22.631.865L22.59.82l-.041-.04C22.046.299 21.364 0 20.614 0h-6.26c-.505 0-.914.41-.914.914 0 .505.409.914.914.914h5.935L1.83 20.287l.002-6.207c0-.505-.409-.914-.914-.915-.505 0-.914.41-.914.914l-.002 6.537c0 1.538 1.252 2.79 2.79 2.79h6.26c.505 0 .914-.41.914-.914 0-.505-.41-.915-.914-.915H3.125l18.45-18.45v6.108c0 .505.41.914.915.914.505 0 .914-.41.914-.914V2.79c0-.746-.294-1.424-.773-1.925z"/>
                <circle cx="10.697" cy=".916" r="1"/>
                <circle cx="7.041" cy=".916" r="1"/>
                <circle cx="3.384" cy=".916" r="1"/>
                <circle cx=".916" cy="10.423" r="1"/>
                <circle cx=".916" cy="6.766" r="1"/>
                <circle cx=".916" cy="3.11" r="1"/>
                <circle cx="22.49" cy="12.708" r="1"/>
                <circle cx="22.49" cy="16.365" r="1"/>
                <circle cx="22.49" cy="20.021" r="1"/>
                <circle cx="12.983" cy="22.489" r="1"/>
                <circle cx="16.639" cy="22.489" r="1"/>
                <circle cx="20.296" cy="22.489" r="1"/>
            </g>
        </g>
    </g>
</svg>
