<svg xmlns="http://www.w3.org/2000/svg" width="41" height="40" viewBox="0 0 41 40">
    <g fill="none" fill-rule="evenodd">
        <g fill="#062C3F">
            <g>
                <path d="M7.096 20.702c1.438.407 3.337.631 5.348.631 2.011 0 3.91-.224 5.349-.631 1.76-.499 2.651-1.22 2.651-2.145 0-.924-.892-1.645-2.651-2.144-.804-.227-1.753-.398-2.784-.504 2.02-3.456 4.021-7.37 4.021-9.305C19.03 2.962 16.076 0 12.444 0 8.814 0 5.86 2.962 5.86 6.604c0 1.935 2.001 5.849 4.02 9.305-1.03.106-1.979.277-2.783.504-1.76.499-2.652 1.22-2.652 2.144 0 .925.892 1.646 2.652 2.145zM12.444 1.42c2.85 0 5.17 2.325 5.17 5.183 0 1.467-1.812 5.315-4.846 10.293-.1.164-.26.182-.324.182-.063 0-.223-.018-.323-.182C9.087 11.919 7.276 8.07 7.276 6.604c0-2.858 2.318-5.183 5.168-5.183zM7.738 17.71c.845-.215 1.857-.367 2.948-.446l.226.373c.329.54.902.862 1.532.862.631 0 1.204-.323 1.533-.862l.226-.373c1.09.08 2.103.23 2.947.446 1.295.331 1.768.703 1.866.846-.098.144-.57.516-1.866.846-1.285.329-2.956.51-4.706.51-1.75 0-3.42-.181-4.706-.51-1.295-.33-1.768-.702-1.865-.846.098-.143.57-.515 1.865-.846z" transform="translate(8 8) translate(.771)"/>
                <path d="M21.953 16.974c-.34-.183-.768-.061-.955.272-.187.334-.063.752.278.935.837.451 1.318.95 1.318 1.371 0 .514-.744 1.311-2.832 2.006-2.063.687-4.82 1.065-7.762 1.065-2.943 0-5.7-.378-7.762-1.065-2.088-.695-2.832-1.492-2.832-2.006 0-.42.48-.92 1.318-1.37.34-.184.465-.603.278-.936-.187-.333-.614-.455-.955-.272C1.113 17.477 0 18.332 0 19.552c0 .935.657 2.27 3.786 3.31C5.99 23.596 8.908 24 12 24c3.092 0 6.01-.404 8.214-1.138 3.13-1.04 3.786-2.375 3.786-3.31 0-1.22-1.113-2.075-2.047-2.578zM15.111 6.222c0-1.47-1.196-2.666-2.667-2.666-1.47 0-2.666 1.196-2.666 2.666s1.196 2.667 2.666 2.667 2.667-1.196 2.667-2.667zm-3.906 0c0-.683.556-1.239 1.24-1.239.683 0 1.239.556 1.239 1.24 0 .683-.556 1.238-1.24 1.238-.683 0-1.239-.555-1.239-1.239z" transform="translate(8 8) translate(.771)"/>
            </g>
        </g>
    </g>
</svg>
