<?xml version="1.0" encoding="UTF-8"?>
<svg width="24px" height="24px" viewBox="0 0 24 24" version="1.1" xmlns="http://www.w3.org/2000/svg" xmlns:xlink="http://www.w3.org/1999/xlink">
    <title>01 Icons/01 Small/ic-map</title>
    <g id="01-Icons/01-Small/ic-map" stroke="none" stroke-width="1" fill="none" fill-rule="evenodd">
        <g id="1483234" fill="#062C3F">
            <path d="M7.09589569,20.7015784 C8.53400135,21.1089514 10.4334815,21.3333333 12.4444208,21.3333333 C14.4553601,21.3333333 16.3548403,21.1089987 17.792946,20.7015784 C19.5523466,20.2032307 20.4444444,19.4817798 20.4444444,18.5574474 C20.4444444,17.6330677 19.5523466,16.9117115 17.792946,16.4133638 C16.9889764,16.1856195 16.0403934,16.015415 15.0091134,15.9092859 C17.0286483,12.4528189 19.029953,8.539111 19.029953,6.60354445 C19.029953,2.96233415 16.0757203,0 12.4444208,0 C8.81312137,0 5.85888867,2.96233415 5.85888867,6.60354445 C5.85888867,8.53906364 7.86014613,12.4526768 9.87968099,15.9091438 C8.84840101,16.0152729 7.89995969,16.1855721 7.09594291,16.4133638 C5.33654224,16.9117115 4.44444444,17.633115 4.44444444,18.5574474 C4.44444444,19.4817798 5.33649501,20.2031833 7.09589569,20.7015784 Z M12.4444208,1.42073834 C15.2944676,1.42073834 17.6131001,3.74572928 17.6131001,6.60354445 C17.6131001,8.0714513 15.8017954,11.919379 12.7679356,16.8967937 C12.6677168,17.0612205 12.5082737,17.0789324 12.4443736,17.0789324 C12.3805208,17.0789324 12.2210304,17.0612205 12.1208116,16.8967937 C9.0869518,11.919379 7.27564709,8.07149866 7.27564709,6.60354445 C7.27564709,3.74572928 9.59437404,1.42073834 12.4444208,1.42073834 Z M7.73834401,17.711303 C8.58302446,17.4955876 9.59508247,17.3441842 10.686012,17.265428 C10.7617191,17.3906424 10.8370485,17.5148149 10.9119055,17.637614 C11.2408988,18.1773999 11.8137796,18.499576 12.4443736,18.499576 C13.0750148,18.499576 13.6478484,18.1773525 13.9768417,17.637614 C14.0516987,17.5147675 14.1270753,17.390595 14.2027825,17.2653806 C15.293712,17.3441369 16.3057227,17.4955876 17.1504504,17.711303 C18.445265,18.0420035 18.918305,18.4142843 19.0155483,18.5574 C18.9182578,18.7005631 18.4453123,19.0728439 17.1504977,19.4034971 C15.8652704,19.7317824 14.1939035,19.9125476 12.4443736,19.9125476 C10.6948437,19.9125476 9.02347679,19.7317824 7.73829678,19.4034971 C6.44348217,19.0728439 5.97048945,18.7005158 5.87324611,18.5574 C5.97053668,18.4142843 6.44352939,18.0420509 7.73834401,17.711303 Z" id="Shape"></path>
            <path d="M21.9529219,16.9741505 C21.6124688,16.7910068 21.1850156,16.9128118 20.998125,17.2461343 C20.8111406,17.5795026 20.9354531,17.9982217 21.2758125,18.1813195 C22.113375,18.6319935 22.59375,19.1316099 22.59375,19.5520736 C22.59375,20.066336 21.8498437,20.8633715 19.7618906,21.5581606 C17.6991563,22.2446395 14.9425781,22.6226345 12,22.6226345 C9.05742188,22.6226345 6.30084375,22.2446395 4.23810938,21.5581606 C2.15015625,20.8634174 1.40625,20.066336 1.40625,19.5520736 C1.40625,19.1316099 1.886625,18.6319935 2.7241875,18.1812736 C3.06454687,17.9981758 3.18885937,17.5794567 3.001875,17.2460884 C2.81489063,16.9127659 2.38753125,16.7909609 2.04707813,16.9741046 C1.11323437,17.4766134 0,18.3317737 0,19.5520736 C0,20.4874885 0.6568125,21.8211455 3.78571875,22.862342 C5.99034375,23.5959728 8.9075625,24 12,24 C15.0924375,24 18.0096562,23.5959728 20.2142812,22.862342 C23.3431875,21.8211455 24,20.4874885 24,19.5520736 C24,18.3317737 22.8867656,17.4766134 21.9529219,16.9741505 Z" id="Path"></path>
            <path d="M15.1111111,6.22219843 C15.1111111,4.75182168 13.9148294,3.55555556 12.4444444,3.55555556 C10.9740595,3.55555556 9.77777778,4.75182168 9.77777778,6.22219843 C9.77777778,7.69262276 10.9740595,8.88888889 12.4444444,8.88888889 C13.9148294,8.88888889 15.1111111,7.69267034 15.1111111,6.22219843 Z M11.2051512,6.22219843 C11.2051512,5.53889647 11.7611132,4.98296721 12.4444444,4.98296721 C13.1277757,4.98296721 13.6837377,5.53889647 13.6837377,6.22219843 C13.6837377,6.90550039 13.1277757,7.46147723 12.4444444,7.46147723 C11.7611132,7.46147723 11.2051512,6.90554797 11.2051512,6.22219843 Z" id="Shape"></path>
        </g>
    </g>
</svg>