<?xml version="1.0" encoding="UTF-8"?>
<svg width="24px" height="24px" viewBox="0 0 24 24" version="1.1" xmlns="http://www.w3.org/2000/svg" xmlns:xlink="http://www.w3.org/1999/xlink">
    <title>01 Icons/01 Small/ic-print</title>
    <g id="01-Icons/01-Small/ic-print" stroke="none" stroke-width="1" fill="none" fill-rule="evenodd">
        <g id="print" transform="translate(4.000000, 4.000000)" fill="#000000" fill-rule="nonzero">
            <path d="M13.8461538,2.46153846 L2.23076923,2.46153846 C0.998749404,2.46153846 0,3.46028787 0,4.69230769 L0,10.7692308 C0,11.9587672 0.96430977,12.9230769 2.15384615,12.9230769 L2.46153846,12.9230769 L2.46153846,14.4492308 C2.46153846,15.305697 3.1558415,16 4.01230769,16 L11.9876923,16 C12.8441585,16 13.5384615,15.305697 13.5384615,14.4492308 L13.5384615,12.9230769 L13.8461538,12.9230769 C15.0356902,12.9230769 16,11.9587672 16,10.7692308 L16,4.61538462 C16,3.42584823 15.0356902,2.46153846 13.8461538,2.46153846 Z M12.3076923,14.4492308 C12.3070594,14.6256991 12.1641606,14.7685979 11.9876923,14.7692308 L4.01230769,14.7692308 C3.83583939,14.7685979 3.69294058,14.6256991 3.69230769,14.4492308 L3.69230769,8.32 C3.69294058,8.1435317 3.83583939,8.00063289 4.01230769,8 L11.9876923,8 C12.1641606,8.00063289 12.3070594,8.1435317 12.3076923,8.32 L12.3076923,14.4492308 Z M13.3076923,6.15076923 C12.92207,6.18176441 12.5580302,5.96900721 12.3957726,5.6178125 C12.233515,5.26661778 12.3074671,4.85150127 12.5810227,4.57794574 C12.8545782,4.30439021 13.2696947,4.23043808 13.6208894,4.39269566 C13.9720841,4.55495325 14.1848413,4.91899309 14.1538462,5.30461538 C14.1175611,5.75605065 13.7591276,6.11448419 13.3076923,6.15076923 L13.3076923,6.15076923 Z" id="Shape"></path>
            <path d="M11.3846154,0 L4.61538462,0 C3.54534539,0.00159337518 2.63817955,0.787301788 2.48384615,1.84615385 L13.5161538,1.84615385 C13.3618204,0.787301788 12.4546546,0.00159337518 11.3846154,0 Z" id="Path"></path>
        </g>
    </g>
</svg>