<svg xmlns="http://www.w3.org/2000/svg" width="34" height="34" viewBox="0 0 34 34">
    <g fill="none" fill-rule="evenodd">
        <g fill="#FFF">
            <g>
                <g>
                    <g>
                        <g>
                            <path d="M13.898 8.705c.066.087.102.194.102.303v13.944c0 .156-.073.304-.197.398l-4 3.04c-.22.167-.534.124-.701-.095C9.036 26.208 9 26.1 9 25.992V12.048c0-.156.073-.304.197-.398l4-3.04c.22-.167.534-.124.701.095zm12 0c.066.087.102.194.102.303v13.944c0 .156-.073.304-.197.398l-4 3.04c-.22.167-.534.124-.701-.095-.066-.087-.102-.194-.102-.303V12.048c0-.156.073-.304.197-.398l4-3.04c.22-.167.534-.124.701.095zm-10.796 0c.167-.22.48-.262.7-.095l4 3.04c.125.094.198.242.198.398v13.944c0 .11-.036.216-.102.303-.167.22-.48.262-.7.095l-4-3.04c-.125-.094-.198-.242-.198-.398V9.008c0-.11.036-.216.102-.303z" transform="translate(-1208 -390) translate(97 375) translate(0 12) translate(1061) translate(50 3)"/>
                        </g>
                    </g>
                </g>
            </g>
        </g>
    </g>
</svg>
