<svg width="24" height="24" viewBox="0 0 24 24" xmlns="http://www.w3.org/2000/svg">
    <g fill="#FFF" fill-rule="evenodd">
        <path d="M20 3.5H4A1.5 1.5 0 0 0 2.5 5v14A1.5 1.5 0 0 0 4 20.5h16a1.5 1.5 0 0 0 1.5-1.5V5A1.5 1.5 0 0 0 20 3.5zm-16 1h16a.5.5 0 0 1 .5.5v14a.5.5 0 0 1-.5.5H4a.5.5 0 0 1-.5-.5V5a.5.5 0 0 1 .5-.5z" fill-rule="nonzero"/>
        <path d="M6.431 9.511a.75.75 0 0 1 .968-.146l.09.066 3.891 3.341a.75.75 0 0 1 .053 1.089l-.08.072-3.891 3.04a.75.75 0 0 1-1.006-1.108l.082-.075 3.17-2.476-3.197-2.745a.75.75 0 0 1-.146-.968l.066-.09zM16.51 15.631a.75.75 0 0 1 .101 1.493l-.101.007h-3.414a.75.75 0 0 1-.101-1.493l.101-.007h3.414z" fill-rule="nonzero"/>
        <path d="M21 6.971V5a1 1 0 0 0-1-1H4a1 1 0 0 0-1 1v1.971h18z"/>
        <path d="m22.607-.02 1.414 1.414L1.393 24.02-.02 22.607z"/>
    </g>
</svg>
