<svg xmlns="http://www.w3.org/2000/svg" width="24" height="24" viewBox="0 0 24 24">
    <g fill="none" fill-rule="evenodd">
        <g fill="#000" fill-rule="nonzero">
            <g>
                <g>
                    <g>
                        <g>
                            <path d="M2.437 17h9.125c.242 0 .438-.216.438-.483C12 13.475 9.757 11 7 11s-5 2.475-5 5.517c0 .267.196.483.437.483zM17.547 17H.453c-.25 0-.453.224-.453.5s.203.5.453.5h17.094c.25 0 .453-.224.453-.5s-.203-.5-.453-.5zM11 5c1.508-.92 2.886-.817 3.83-.53.461.14.856.332 1.17.517-.517-1.974-1.514-2.631-2.11-2.85-.263-.096-.52-.137-.762-.137-.503 0-.936.18-1.203.418-.332.298-.69 1.493-.925 2.582z" transform="translate(-885 -573) translate(97 375) translate(592 82) translate(196 116) translate(3 3)"/>
                            <path d="M11.718 2.26c.13-.128.278-.234.438-.318L13 0c-.533-.01-1.494.129-2.346 1.076-.45.5-.664 1.06-.654 1.71.013.8.37 1.593.75 2.214.178-.929.508-2.29.968-2.74zM8.94 6.124c-.41.198-.7.537-.84.98-.17.544-.194 1.465.513 2.896.248-1.118.871-2.929 2.387-3.955C10.647 6.018 10.283 6 9.956 6c-.45 0-.83.034-1.015.124z" transform="translate(-885 -573) translate(97 375) translate(592 82) translate(196 116) translate(3 3)"/>
                            <path d="M7.725 6.165c.208-.432.538-.77.97-.989.472-.238 1.506-.21 2.305-.143C10.396 4.57 9.484 4.016 8.563 4c-.596-.01-1.113.204-1.573.654C6.118 5.506 5.991 6.467 6 7l1.725-.835zM13.122 16.842c.09.1.228.158.373.158h3.028c.127 0 .248-.044.338-.123.09-.079.14-.186.139-.297-.009-3.737-.893-6.64-2.629-8.629-1.336-1.53-2.694-1.916-2.752-1.932-.193-.053-.403.007-.524.15s-.127.337-.014.485c.009.01.857 1.129 1.516 2.898.604 1.621 1.169 4.14.433 6.934-.032.125.001.256.092.356z" transform="translate(-885 -573) translate(97 375) translate(592 82) translate(196 116) translate(3 3)"/>
                        </g>
                    </g>
                </g>
            </g>
        </g>
    </g>
</svg>
