<svg xmlns="http://www.w3.org/2000/svg" width="24" height="25" viewBox="0 0 24 25">
    <g fill="none" fill-rule="evenodd">
        <g fill="#000" fill-rule="nonzero">
            <g>
                <g>
                    <g>
                        <g>
                            <path d="M.55 18h16.946c.292 0 .527-.236.527-.527 0-.292-.235-.528-.527-.528h-2.842l-1.94-4.882V9.527l1.267.95c.233.175.564.127.738-.106.175-.233.127-.563-.106-.738l-1.898-1.424V4.781l1.266.95c.233.175.564.128.738-.106.175-.233.127-.563-.106-.738l-1.898-1.424v-.826c0-.176-.088-.341-.235-.439L9.316.088c-.177-.118-.408-.118-.585 0l-3.164 2.11c-.147.098-.235.263-.235.439v.826L3.434 4.887c-.234.175-.28.505-.106.738.174.233.505.28.738.106l1.266-.95V8.21L3.434 9.633c-.234.175-.28.505-.106.738.174.233.505.28.738.106l1.266-.95v2.536l-1.94 4.882H.552c-.292 0-.528.236-.528.528 0 .291.236.527.528.527zm4.873-1.055l3.6-2.555 3.6 2.555h-7.2zm3.6-11.504L7.441 4.254h3.165L9.023 5.441zm2.637-.66v2.637L9.902 6.1 11.66 4.78zm-.757 3.387l-1.88 1.253-1.879-1.253 1.88-1.41 1.879 1.41zm.757.763v2.248l-1.686-1.124L11.66 8.93zm1.49 7.095l-3.6-2.554V11.04l2.209 1.472 1.391 3.514zM6.387 2.92l2.636-1.757 2.637 1.757v.28H6.387v-.28zm0 1.862L8.145 6.1 6.387 7.418V4.781zm0 4.15l1.686 1.124-1.686 1.124V8.93zm-.099 3.581l2.208-1.472v2.432l-3.6 2.554 1.392-3.514z" transform="translate(-597 -573) translate(97 375) translate(304 82) translate(196 116.829) translate(3 3)"/>
                        </g>
                    </g>
                </g>
            </g>
        </g>
    </g>
</svg>
