<svg xmlns="http://www.w3.org/2000/svg" width="24" height="24" viewBox="0 0 24 24">
    <g fill="none" fill-rule="evenodd">
        <g fill="#000" fill-rule="nonzero">
            <g>
                <g>
                    <g>
                        <g>
                            <path d="M7.926 15.002V18H4.291v-2.998h3.635zM6.016 0c3.322 0 6.016 2.688 6.016 6.005 0 2.207-1.193 4.135-2.97 5.178-.533.298-.946.788-1.142 1.377h.007v1.063H4.29V12.56c.059-.48.176-.94.343-1.377l.105-.254c.513-1.17 1.388-2.147 2.487-2.786.744-.425 1.249-1.224 1.249-2.138 0-1.353-1.103-2.454-2.459-2.454-1.355 0-2.459 1.1-2.459 2.454H0C0 2.688 2.695 0 6.016 0z" transform="translate(-633 -573) translate(97 375) translate(304 82) translate(232 116) translate(6.1 2.991)"/>
                        </g>
                    </g>
                </g>
            </g>
        </g>
    </g>
</svg>
