<?xml version="1.0" encoding="UTF-8"?>
<svg width="24px" height="24px" viewBox="0 0 24 24" version="1.1" xmlns="http://www.w3.org/2000/svg" xmlns:xlink="http://www.w3.org/1999/xlink">
    <title>01 Icons/01 Small/ic-unknown_white</title>
    <g id="01-Icons/01-Small/ic-unknown_white" stroke="none" stroke-width="1" fill="none" fill-rule="evenodd">
        <g id="-g-" transform="translate(6.099992, 2.991000)" fill="#FFFFFF" fill-rule="nonzero">
            <path d="M7.92646616,15.0018399 L7.92646616,18 L4.29118211,18 L4.29118211,15.0018399 L7.92646616,15.0018399 Z M6.01604353,0 C9.33821502,0 12.0320168,2.68838748 12.0320168,6.00514471 C12.0320168,8.21229653 10.8389475,10.1404385 9.06145529,11.1829986 L9.06145529,11.1829986 C8.52867874,11.4807122 8.11557828,11.9707373 7.91999719,12.55959 L7.91999719,12.55959 L7.92660679,12.55959 L7.92660679,13.6230688 L4.29128758,13.6230688 L4.29128758,12.55959 C4.34950838,12.0806044 4.46703986,11.6202874 4.63403792,11.1829986 L4.63403792,11.1829986 L4.73855383,10.9292274 C5.252342,9.75857276 6.12749745,8.7818853 7.225672,8.14254407 L7.225672,8.14254407 C7.97048334,7.71843932 8.47481747,6.91920419 8.47481747,6.00514471 C8.47481747,4.65161666 7.37178651,3.55080061 6.01607869,3.55080061 C4.66146075,3.55080061 3.55733991,4.65161666 3.55733991,6.00514471 L3.55733991,6.00514471 L0,6.00514471 C0,2.68835232 2.69489162,0 6.01604353,0 Z" id="Combined-Shape"></path>
        </g>
    </g>
</svg>