<?xml version="1.0" encoding="UTF-8"?>
<svg width="80px" height="80px" viewBox="0 0 80 80" version="1.1" xmlns="http://www.w3.org/2000/svg" xmlns:xlink="http://www.w3.org/1999/xlink">
    <title>01 Icons/03 Large/ic-config</title>
    <g id="01-Icons/03-Large/ic-config" stroke="none" stroke-width="1" fill="none" fill-rule="evenodd">
        <path d="M78.814375,32.6195313 L72.6710937,31.0889063 L69.2145312,22.7482813 L78.5064062,13.4564063 C79.4695312,12.4932812 80,11.2128125 80,9.85078125 C80,8.48859375 79.4695313,7.208125 78.5064062,6.24515625 L73.755,1.49375 C71.7665625,-0.494375 68.531875,-0.4940625 66.5439062,1.49375 L57.2523437,10.7853125 L48.9107812,7.32828125 L47.3801562,1.18515625 C47.206875,0.48890625 46.5815625,0.0003125 45.8640625,0.0003125 L34.1354688,0.0003125 C33.4179687,0.0003125 32.7926563,0.48890625 32.619375,1.18515625 L31.08875,7.32828125 L23.1996875,10.5976562 L17.77625,7.3375 C17.1614062,6.96796875 16.3735937,7.06421875 15.86625,7.57171875 L7.57109375,15.866875 C7.06375,16.3742188 6.9671875,17.161875 7.336875,17.776875 L10.5970312,23.2003125 L7.328125,31.0890625 L1.18484375,32.6196875 C0.48859375,32.7928125 0,33.418125 0,34.135625 L0,45.8642188 C0,46.5817188 0.48859375,47.2070312 1.18484375,47.3803125 L7.32796875,48.9109375 L10.5973438,56.7996875 L7.3371875,62.223125 C6.9675,62.838125 7.0640625,63.6257812 7.57140625,64.133125 L15.8665625,72.4282812 C16.3740625,72.935625 17.1617188,73.031875 17.7765625,72.6625 L23.2,69.4023438 L31.0885938,72.6715625 L32.6192188,78.8148438 C32.7925,79.5110938 33.4178125,79.9996875 34.1353125,79.9996875 L45.8639062,79.9996875 C46.5814063,79.9996875 47.2067188,79.5110938 47.38,78.8148438 L48.910625,72.6715625 L56.7992187,69.4023438 L62.2226562,72.6625 C62.8375,73.031875 63.6253125,72.935625 64.1326562,72.4282812 L72.4278125,64.133125 C72.9351562,63.6257812 73.0317187,62.838125 72.6620312,62.223125 L69.401875,56.7996875 L72.67125,48.9109375 L78.814375,47.3803125 C79.510625,47.2070312 80,46.5817188 80,45.8642188 L80,34.135625 C80,33.418125 79.510625,32.7928125 78.814375,32.6195313 Z M68.75375,3.70359375 C69.5234375,2.93390625 70.7757813,2.93390625 71.5454688,3.70359375 L76.296875,8.455 C76.6696875,8.82796875 76.875,9.32359375 76.875,9.8509375 C76.875,10.378125 76.6696875,10.8739062 76.2967187,11.246875 L72.2607813,15.2828125 L64.7176563,7.7396875 L68.75375,3.70359375 Z M62.5079688,9.9490625 L65.18875,12.6298437 L58.5546875,19.2639062 C57.9445313,19.8740625 57.9445313,20.8634375 58.5546875,21.47375 C58.8598438,21.77875 59.2596875,21.9314063 59.6595313,21.9314063 C60.059375,21.9314063 60.4592188,21.77875 60.764375,21.47375 L67.3984375,14.8396875 L70.0509375,17.4921875 L59.8410938,27.7025 C59.8376563,27.7059375 59.8342188,27.709375 59.8307813,27.7128125 L42.4285938,45.1148437 L39.7759375,42.4621875 L52.36875,29.8695312 C52.9789063,29.259375 52.9789063,28.27 52.36875,27.6596875 C51.75875,27.0498438 50.7696875,27.0496875 50.1589063,27.6596875 L37.5660938,40.2523437 L34.8853125,37.5715625 L52.2879687,20.1689063 C52.2910937,20.1659375 52.2940625,20.1628125 52.2970312,20.1598438 L62.5079688,9.9490625 Z M32.223125,43.5323438 L33.3221875,40.4279688 L36.4584375,43.5642188 C36.4595312,43.5651563 36.4603125,43.5664063 36.46125,43.5673438 C36.4621875,43.5682813 36.4634375,43.5692188 36.464375,43.5701563 L39.5725,46.6782813 L36.4682812,47.7773438 L32.223125,43.5323438 Z M33.2042188,48.9326562 L29.8967188,50.1035938 L31.0676563,46.7960937 L33.2042188,48.9326562 Z M76.874375,44.6434375 L71.1515625,46.0692187 C70.6707813,46.1890625 70.2754688,46.5295312 70.0857812,46.9871875 L66.2132812,56.3314062 C66.0235937,56.7892188 66.0621875,57.3098437 66.3176562,57.7345312 L69.3548437,62.786875 L62.7864062,69.3553125 L57.7340625,66.318125 C57.3095312,66.0628125 56.78875,66.0240625 56.3309375,66.21375 L46.9867187,70.0860938 C46.5290625,70.2757813 46.1885937,70.6710938 46.06875,71.151875 L44.6429687,76.8746875 L35.35625,76.8746875 L33.9304687,71.151875 C33.810625,70.6710938 33.4701562,70.2757813 33.0125,70.0860938 L23.6682812,66.21375 C23.2104687,66.0239063 22.6895312,66.0626563 22.2651562,66.318125 L17.2128125,69.3553125 L10.644375,62.786875 L13.6815625,57.7345312 C13.9370312,57.3096875 13.975625,56.7890625 13.7859375,56.3314062 L9.913125,46.9871875 C9.7234375,46.5295312 9.328125,46.1890625 8.84734375,46.0692187 L3.125,44.6434375 L3.125,35.3567188 L8.8478125,33.9309375 C9.32859375,33.8110938 9.72390625,33.470625 9.91359375,33.0129687 L13.7859375,23.66875 C13.975625,23.2109375 13.9370312,22.6903125 13.6815625,22.265625 L10.644375,17.2132813 L17.2128125,10.6448438 L22.2651562,13.6820312 C22.69,13.9375 23.2107812,13.9760938 23.6682812,13.7864063 L33.0125,9.91390625 C33.4701562,9.72421875 33.810625,9.32890625 33.9304687,8.848125 L35.35625,3.12546875 L44.6429687,3.12546875 L46.06875,8.848125 C46.1885937,9.32890625 46.5290625,9.72421875 46.9867187,9.91390625 L54.8607812,13.1771875 L50.8889062,17.1490625 C47.506875,15.5376563 43.7673438,14.6878125 39.9996875,14.6878125 C35.4326562,14.6878125 30.9559375,15.9178125 27.0534375,18.245 C26.3121875,18.686875 26.0695312,19.6460938 26.5115625,20.3871875 C26.8039062,20.8776563 27.3226562,21.1498438 27.8551562,21.1498438 C28.1271875,21.1496875 28.403125,21.0785938 28.65375,20.9290625 C32.0726562,18.8904688 35.9960937,17.8129688 39.9996875,17.8129688 C42.9284375,17.8129688 45.8371875,18.3975 48.524375,19.51375 L31.5710937,36.466875 C31.4064062,36.6315625 31.2807813,36.8307813 31.203125,37.0503125 L25.8579688,52.148125 C25.6570312,52.7157812 25.8001562,53.3485938 26.2259375,53.774375 C26.5240625,54.0723438 26.9234375,54.2320313 27.3310937,54.2320313 C27.505625,54.2320313 27.681875,54.2026563 27.8521875,54.1425 L42.95,48.7973438 C43.1695312,48.7196875 43.3689062,48.5939062 43.5334375,48.429375 L60.4865625,31.47625 C61.6025,34.163125 62.186875,37.0715625 62.186875,40 C62.186875,52.2340625 52.23375,62.1873438 39.9995312,62.1873438 C27.7653125,62.1873438 17.8123437,52.2340625 17.8123437,40 C17.8123437,36.0442187 18.8657812,32.161875 20.8585938,28.7723437 C21.2960938,28.0284375 21.0475,27.0707812 20.3035938,26.6335938 C19.5595312,26.1957813 18.6020313,26.4446875 18.1648438,27.1885938 C15.8898437,31.0576563 14.6873438,35.4878125 14.6873438,40 C14.6873438,53.9571875 26.0423437,65.3121875 39.9995313,65.3121875 C53.9567188,65.3121875 65.311875,53.9571875 65.311875,40 C65.311875,36.2323437 64.4621875,32.4932813 62.8510937,29.1117187 L66.8229688,25.1398437 L70.085625,33.0129687 C70.2753125,33.470625 70.670625,33.8110937 71.1514063,33.9309375 L76.874375,35.356875 L76.874375,44.6434375 L76.874375,44.6434375 Z" id="Shape" fill="#C8E4C8"></path>
        <path d="M24.3042188,22.095 C23.6903125,21.4882812 22.7010938,21.49375 22.0945312,22.1079688 L22.061875,22.140625 C21.4517187,22.7507812 21.4517187,23.7401562 22.061875,24.3504688 C22.3670313,24.6554688 22.766875,24.808125 23.166875,24.808125 C23.566875,24.808125 23.9665625,24.6554688 24.2717187,24.3504688 L24.3171875,24.3046875 C24.92375,23.6909375 24.918125,22.7017188 24.3042188,22.095 Z" id="Path" fill="#C8E4C8"></path>
        <path d="M56.6128125,23.415625 C56.0025,22.805625 55.0134375,22.805625 54.403125,23.415625 L54.38625,23.4325 C53.7760938,24.0426563 53.7760938,25.0320312 54.38625,25.6423437 C54.6914063,25.9473437 55.09125,26.1 55.4910938,26.1 C55.8909375,26.1 56.2907813,25.9473437 56.5959375,25.6423437 L56.6128125,25.6254687 C57.2229687,25.0153125 57.2229687,24.0259375 56.6128125,23.415625 Z" id="Path" fill="#C8E4C8"></path>
        <path d="M57.343125,38.4375 C56.4803125,38.4375 55.780625,39.1371875 55.780625,40 C55.780625,48.7015625 48.7010937,55.7810937 39.9995312,55.7810937 C39.1367187,55.7810937 38.4370312,56.4807813 38.4370312,57.3435937 C38.4370312,58.2064063 39.1367187,58.9060937 39.9995312,58.9060937 C50.424375,58.9060937 58.905625,50.425 58.905625,40 C58.905625,39.1371875 58.2059375,38.4375 57.343125,38.4375 Z" id="Path" fill="#C8E4C8"></path>
    </g>
</svg>