<?xml version="1.0" encoding="UTF-8"?>
<svg width="80px" height="80px" viewBox="0 0 80 80" version="1.1" xmlns="http://www.w3.org/2000/svg" xmlns:xlink="http://www.w3.org/1999/xlink">
    <title>01 Icons/03 Large/ic-configuration</title>
    <g id="01-Icons/03-Large/ic-configuration" stroke="none" stroke-width="1" fill="none" fill-rule="evenodd">
        <g id="2329087" fill="#D0EEDD">
            <path d="M71.6800028,42.9184017 L71.6800028,17.8176007 C76.015363,17.1929607 79.3600032,13.4643205 79.3600032,8.96000036 C79.3600032,4.02048016 75.340803,0 70.4000028,0 C65.4592026,0 61.4400024,4.02048016 61.4400024,8.96000036 L0,8.96000036 L0,60.1600024 L38.4652815,60.1600024 C39.1308816,70.8556828 48.0204819,79.3600032 58.8800023,79.3600032 C70.1721628,79.3600032 79.3600032,70.1721628 79.3600032,58.8800023 C79.3600032,52.4300821 76.355843,46.6752019 71.6800028,42.9184017 Z M70.4000028,2.5600001 C73.9289629,2.5600001 76.8000031,5.43104022 76.8000031,8.96000036 C76.8000031,12.4889605 73.9289629,15.3600006 70.4000028,15.3600006 C66.8710427,15.3600006 64.0000025,12.4889605 64.0000025,8.96000036 C64.0000025,5.43104022 66.8710427,2.5600001 70.4000028,2.5600001 Z M2.5600001,11.5200005 L61.8176025,11.5200005 C62.1235225,12.5414405 62.6099225,13.4822405 63.2345625,14.3168006 L55.4060822,22.1452809 C54.9043222,21.9046409 54.3513622,21.7600009 53.7600021,21.7600009 C53.1686421,21.7600009 52.6156821,21.9046409 52.1152021,22.1452809 L49.536002,19.5660808 C49.775362,19.0643208 49.920002,18.5113607 49.920002,17.9200007 C49.920002,15.8028806 48.1971219,14.0800006 46.0800018,14.0800006 C43.9628817,14.0800006 42.2400017,15.8028806 42.2400017,17.9200007 C42.2400017,18.5113607 42.3846417,19.0643208 42.6252817,19.5648008 L36.2060814,25.984001 C35.7043214,25.744641 35.1513614,25.600001 34.5600001,25.600001 C32.4428813,25.600001 30.7200012,27.3228811 30.7200012,29.4400012 C30.7200012,31.5571213 32.4428813,33.2800013 34.5600001,33.2800013 C36.6771215,33.2800013 38.4000015,31.5571213 38.4000015,29.4400012 C38.4000015,28.8486411 38.2553615,28.2956811 38.0147215,27.7952011 L44.4339218,21.3760008 C44.9356818,21.6153609 45.4886418,21.7600009 46.0800018,21.7600009 C46.6713619,21.7600009 47.2243219,21.6153609 47.7248019,21.3747208 L50.304002,23.953921 C50.064642,24.455681 49.920002,25.008641 49.920002,25.600001 C49.920002,27.7171211 51.6428821,29.4400012 53.7600021,29.4400012 C55.8771222,29.4400012 57.6000023,27.7171211 57.6000023,25.600001 C57.6000023,25.008641 57.4553623,24.455681 57.2147223,23.955201 L65.0444826,16.1267206 C66.2156826,17.0048007 67.6057627,17.6000007 69.1200027,17.8188807 L69.1200027,41.1724816 C66.1030426,39.4201616 62.6124825,38.4000015 58.8800023,38.4000015 C52.7616021,38.4000015 47.2755219,41.1110416 43.5200017,45.3798418 L43.5200017,39.6800016 L35.8400014,39.6800016 L35.8400014,55.0400022 L38.7737615,55.0400022 C38.6150415,55.8758422 38.5190415,56.7321623 38.4652815,57.6000023 L2.5600001,57.6000023 L2.5600001,11.5200005 Z M53.7600021,24.320001 C54.4652822,24.320001 55.0400022,24.893441 55.0400022,25.600001 C55.0400022,26.306561 54.4652822,26.8800011 53.7600021,26.8800011 C53.0547221,26.8800011 52.4800021,26.306561 52.4800021,25.600001 C52.4800021,24.893441 53.0547221,24.320001 53.7600021,24.320001 Z M44.8000018,17.9200007 C44.8000018,17.2134407 45.3747218,16.6400007 46.0800018,16.6400007 C46.7852819,16.6400007 47.3600019,17.2134407 47.3600019,17.9200007 C47.3600019,18.6265607 46.7852819,19.2000008 46.0800018,19.2000008 C45.3747218,19.2000008 44.8000018,18.6265607 44.8000018,17.9200007 Z M35.8400014,29.4400012 C35.8400014,30.1465612 35.2652814,30.7200012 34.5600014,30.7200012 C33.8547213,30.7200012 33.2800013,30.1465612 33.2800013,29.4400012 C33.2800013,28.7334411 33.8547213,28.1600011 34.5600014,28.1600011 C35.2652814,28.1600011 35.8400014,28.7334411 35.8400014,29.4400012 Z M58.8800023,69.1200027 C53.2339221,69.1200027 48.6400019,64.5260826 48.6400019,58.8800023 C48.6400019,53.2339221 53.2339221,48.6400019 58.8800023,48.6400019 C64.5260826,48.6400019 69.1200027,53.2339221 69.1200027,58.8800023 C69.1200027,64.5260826 64.5260826,69.1200027 58.8800023,69.1200027 Z M40.9600016,48.9868819 C40.3468816,50.092802 39.8400016,51.261442 39.4380816,52.4800021 L38.4000015,52.4800021 L38.4000015,42.2400017 L40.9600016,42.2400017 L40.9600016,48.9868819 Z M57.6000023,41.0252816 L57.6000023,46.1452818 C51.141122,46.7904019 46.0800018,52.2547221 46.0800018,58.8800023 C46.0800018,60.7526424 46.4947218,62.5280025 47.2204819,64.1331225 L42.7801617,66.6969627 C41.6256017,64.3315226 40.9600016,61.6844825 40.9600016,58.8800023 C40.9600016,49.431042 48.3161619,41.6857617 57.6000023,41.0252816 Z M58.8800023,76.8000031 C52.7180821,76.8000031 47.2729619,73.6729629 44.0473618,68.9216027 L48.5056019,66.3475226 C50.832642,69.5705628 54.6099222,71.6800028 58.8800023,71.6800028 C63.1500825,71.6800028 66.9273627,69.5705628 69.2544028,66.3475226 L73.7126429,68.9216027 C70.4870428,73.6729629 65.0419226,76.8000031 58.8800023,76.8000031 L58.8800023,76.8000031 Z M74.979843,66.6969627 L70.5395228,64.1331225 C71.2652828,62.5280025 71.6800028,60.7526424 71.6800028,58.8800023 C71.6800028,52.2547221 66.6188826,46.7891219 60.1600024,46.1452818 L60.1600024,41.0252816 C69.4438428,41.6857617 76.8000031,49.431042 76.8000031,58.8800023 C76.8000031,61.6844825 76.134403,64.3315226 74.979843,66.6969627 Z" id="Shape"></path>
            <path d="M58.8800023,51.200002 C54.6444822,51.200002 51.200002,54.6444822 51.200002,58.8800023 C51.200002,63.1155225 54.6444822,66.5600026 58.8800023,66.5600026 C63.1155225,66.5600026 66.5600026,63.1155225 66.5600026,58.8800023 C66.5600026,54.6444822 63.1155225,51.200002 58.8800023,51.200002 Z M58.8800023,64.0000025 C56.0563222,64.0000025 53.7600021,61.7036825 53.7600021,58.8800023 C53.7600021,56.0563222 56.0563222,53.7600021 58.8800023,53.7600021 C61.7036825,53.7600021 64.0000025,56.0563222 64.0000025,58.8800023 C64.0000025,61.7036825 61.7036825,64.0000025 58.8800023,64.0000025 Z" id="Shape"></path>
            <polygon id="Path" points="5.1200002 14.0800006 7.68000031 14.0800006 7.68000031 16.6400007 5.1200002 16.6400007"></polygon>
            <polygon id="Path" points="10.2400004 14.0800006 28.1600011 14.0800006 28.1600011 16.6400007 10.2400004 16.6400007"></polygon>
            <polygon id="Path" points="5.1200002 19.2000008 7.68000031 19.2000008 7.68000031 21.7600009 5.1200002 21.7600009"></polygon>
            <polygon id="Path" points="10.2400004 19.2000008 28.1600011 19.2000008 28.1600011 21.7600009 10.2400004 21.7600009"></polygon>
            <polygon id="Path" points="5.1200002 24.320001 7.68000031 24.320001 7.68000031 26.8800011 5.1200002 26.8800011"></polygon>
            <polygon id="Path" points="10.2400004 24.320001 28.1600011 24.320001 28.1600011 26.8800011 10.2400004 26.8800011"></polygon>
            <polygon id="Path" points="5.1200002 29.4400012 7.68000031 29.4400012 7.68000031 32.0000013 5.1200002 32.0000013"></polygon>
            <polygon id="Path" points="10.2400004 29.4400012 28.1600011 29.4400012 28.1600011 32.0000013 10.2400004 32.0000013"></polygon>
            <path d="M5.1200002,55.0400022 L12.8000005,55.0400022 L12.8000005,42.2400017 L5.1200002,42.2400017 L5.1200002,55.0400022 Z M7.68000031,44.8000018 L10.2400004,44.8000018 L10.2400004,52.4800021 L7.68000031,52.4800021 L7.68000031,44.8000018 Z" id="Shape"></path>
            <path d="M15.3600006,55.0400022 L23.0400009,55.0400022 L23.0400009,44.8000018 L15.3600006,44.8000018 L15.3600006,55.0400022 Z M17.9200007,47.3600019 L20.4800008,47.3600019 L20.4800008,52.4800021 L17.9200007,52.4800021 L17.9200007,47.3600019 Z" id="Shape"></path>
            <path d="M25.600001,55.0400022 L33.2800013,55.0400022 L33.2800013,34.5600014 L25.600001,34.5600014 L25.600001,55.0400022 Z M28.1600011,37.1200015 L30.7200012,37.1200015 L30.7200012,52.4800021 L28.1600011,52.4800021 L28.1600011,37.1200015 Z" id="Shape"></path>
        </g>
    </g>
</svg>