<?xml version="1.0" encoding="UTF-8"?>
<svg width="80px" height="80px" viewBox="0 0 80 80" version="1.1" xmlns="http://www.w3.org/2000/svg" xmlns:xlink="http://www.w3.org/1999/xlink">
    <title>01 Icons/03 Large/ic-map</title>
    <g id="01-Icons/03-Large/ic-map" stroke="none" stroke-width="1" fill="none" fill-rule="evenodd">
        <g id="01-Icons/Large/map" transform="translate(0.000000, 4.000000)" fill="#D0EEDD">
            <path d="M73.5483871,19.3846154 C70.4335484,19.3846154 67.8270968,21.7675385 67.2270968,24.9230769 L54.8387097,24.9230769 L56.7741935,22.1538462 C58.4387097,19.7709231 59.3548387,16.8203077 59.3548387,13.8461538 C59.3548387,6.21138462 53.5664516,0 46.4516129,0 C39.3367742,0 33.5483871,6.21138462 33.5483871,13.8461538 C33.5483871,16.8203077 34.4645161,19.7709231 36.1290323,22.1538462 L38.0645161,24.9230769 L12.7729032,24.9230769 C12.1729032,21.7675385 9.56645161,19.3846154 6.4516129,19.3846154 C2.89419355,19.3846154 0,22.4903077 0,26.3076923 L0,65.0769231 C0,68.8943077 2.89419355,72 6.4516129,72 L73.5483871,72 C77.1058065,72 80,68.8943077 80,65.0769231 L80,26.3076923 C80,22.4903077 77.1058065,19.3846154 73.5483871,19.3846154 Z M67.0967742,58.1538462 L61.9354839,58.1538462 L61.9354839,52.6153846 L67.0967742,52.6153846 L67.0967742,58.1538462 Z M67.0967742,49.8461538 L61.9354839,49.8461538 C60.5122581,49.8461538 59.3548387,51.0881538 59.3548387,52.6153846 L59.3548387,58.1538462 C59.3548387,59.6810769 60.5122581,60.9230769 61.9354839,60.9230769 L67.0967742,60.9230769 L67.0967742,63.6923077 L61.9354839,63.6923077 C60.5122581,63.6923077 59.3548387,64.9343077 59.3548387,66.4615385 L59.3548387,69.2307692 L56.7741935,69.2307692 L56.7741935,54 C56.7741935,51.7098462 55.0374194,49.8461538 52.9032258,49.8461538 L41.2903226,49.8461538 C39.156129,49.8461538 37.4193548,51.7098462 37.4193548,54 L37.4193548,69.2307692 L34.8387097,69.2307692 L34.8387097,51.2307692 C34.8387097,50.4650769 34.2619355,49.8461538 33.5483871,49.8461538 L24.516129,49.8461538 C23.8025806,49.8461538 23.2258065,50.4650769 23.2258065,51.2307692 L23.2258065,52.3232308 C23.2258065,58.3393846 21.6296774,64.1630769 18.6348387,69.2307692 L15.3909677,69.2307692 C18.8219355,63.9152308 20.6451613,57.7066154 20.6451613,51.2307692 C20.6451613,50.4650769 20.0683871,49.8461538 19.3548387,49.8461538 L12.9032258,49.8461538 L12.9032258,47.0769231 L16.7741935,47.0769231 C18.9083871,47.0769231 20.6451613,45.2132308 20.6451613,42.9230769 L20.6451613,38.9935385 C20.6451613,37.8 21.3548387,36.7449231 22.4103226,36.3669231 L28.7277419,34.1072308 C30.8387097,33.3512308 32.2580645,31.2396923 32.2580645,28.8526154 L32.2580645,27.6923077 L34.8387097,27.6923077 L34.8387097,30.0129231 C34.8387097,32.9967692 33.0658065,35.6372308 30.4270968,36.5801538 L24.9909677,38.5241538 C23.9354839,38.9021538 23.2258065,39.9572308 23.2258065,41.1521538 L23.2258065,42.9230769 C23.2258065,45.2132308 24.9625806,47.0769231 27.0967742,47.0769231 L52.9032258,47.0769231 C55.0374194,47.0769231 56.7741935,45.2132308 56.7741935,42.9230769 L56.7741935,27.6923077 L59.3548387,27.6923077 L59.3548387,42.9230769 C59.3548387,45.2132308 61.0916129,47.0769231 63.2258065,47.0769231 L67.0967742,47.0769231 L67.0967742,49.8461538 Z M54.1935484,69.2307692 L40,69.2307692 L40,54 C40,53.2356923 40.5780645,52.6153846 41.2903226,52.6153846 L52.9032258,52.6153846 C53.6154839,52.6153846 54.1935484,53.2356923 54.1935484,54 L54.1935484,69.2307692 Z M32.2580645,69.2307692 L21.6619355,69.2307692 C24.3354839,64.1630769 25.76,58.4750769 25.8051613,52.6153846 L32.2580645,52.6153846 L32.2580645,69.2307692 Z M12.9032258,44.3076923 L12.9032258,27.6923077 L29.6774194,27.6923077 L29.6774194,28.8526154 C29.6774194,30.0461538 28.9677419,31.1012308 27.9122581,31.4792308 L21.5948387,33.7389231 C19.483871,34.4949231 18.0645161,36.6064615 18.0645161,38.9935385 L18.0645161,42.9230769 C18.0645161,43.6873846 17.4864516,44.3076923 16.7741935,44.3076923 L12.9032258,44.3076923 Z M67.0967742,44.3076923 L63.2258065,44.3076923 C62.5135484,44.3076923 61.9354839,43.6873846 61.9354839,42.9230769 L61.9354839,27.6923077 L67.0967742,27.6923077 L67.0967742,44.3076923 Z M46.4516129,2.76923077 C52.1432258,2.76923077 56.7741935,7.73861538 56.7741935,13.8461538 C56.7741935,16.2263077 56.0412903,18.5870769 54.7096774,20.4936923 L46.4516129,32.3072308 L38.1935484,20.4936923 C36.8619355,18.5870769 36.1290323,16.2263077 36.1290323,13.8461538 C36.1290323,7.73861538 40.76,2.76923077 46.4516129,2.76923077 Z M50.3225806,34.6153846 C50.3225806,36.1163077 48.5496774,37.3846154 46.4516129,37.3846154 C44.3535484,37.3846154 42.5806452,36.1163077 42.5806452,34.6153846 C42.5806452,33.9507692 42.9535484,33.3083077 43.5729032,32.8043077 L45.4193548,35.4461538 C45.6619355,35.7950769 46.0451613,36 46.4516129,36 C46.8580645,36 47.24,35.7950769 47.483871,35.4461538 L49.3303226,32.8043077 C49.9496774,33.3083077 50.3225806,33.9507692 50.3225806,34.6153846 L50.3225806,34.6153846 Z M42.0193548,30.5806154 C40.7470968,31.6093846 40,33.0590769 40,34.6153846 C40,37.6698462 42.8941935,40.1538462 46.4516129,40.1538462 C50.0090323,40.1538462 52.9032258,37.6698462 52.9032258,34.6153846 C52.9032258,33.0590769 52.156129,31.6093846 50.883871,30.5806154 L52.9032258,27.6923077 L54.1935484,27.6923077 L54.1935484,42.9230769 C54.1935484,43.6873846 53.6154839,44.3076923 52.9032258,44.3076923 L27.0967742,44.3076923 C26.3845161,44.3076923 25.8064516,43.6873846 25.8064516,42.9230769 L25.8064516,41.1521538 L31.243871,39.2067692 C34.9367742,37.8858462 37.4193548,34.1903077 37.4193548,30.0129231 L37.4193548,27.6923077 L40,27.6923077 L42.0193548,30.5806154 Z M2.58064516,26.3076923 C2.58064516,24.0175385 4.31741935,22.1538462 6.4516129,22.1538462 C8.58580645,22.1538462 10.3225806,24.0175385 10.3225806,26.3076923 L10.3225806,59.5412308 C9.24387097,58.6703077 7.90322581,58.1538462 6.4516129,58.1538462 C5,58.1538462 3.65935484,58.6703077 2.58064516,59.5412308 L2.58064516,26.3076923 Z M2.58064516,65.0769231 C2.58064516,62.7867692 4.31741935,60.9230769 6.4516129,60.9230769 C8.58580645,60.9230769 10.3225806,62.7867692 10.3225806,65.0769231 C10.3225806,65.8426154 10.8993548,66.4615385 11.6129032,66.4615385 C12.3264516,66.4615385 12.9032258,65.8426154 12.9032258,65.0769231 L12.9032258,52.6153846 L18.0348387,52.6153846 C17.7909677,58.1635385 16.0812903,63.4569231 13.0567742,68.0053846 L12.24,69.2307692 L6.4516129,69.2307692 C4.31741935,69.2307692 2.58064516,67.3670769 2.58064516,65.0769231 Z M73.5483871,69.2307692 L61.9354839,69.2307692 L61.9354839,66.4615385 L68.3870968,66.4615385 C69.1006452,66.4615385 69.6774194,65.8426154 69.6774194,65.0769231 C69.6774194,62.7867692 71.4141935,60.9230769 73.5483871,60.9230769 C75.6825806,60.9230769 77.4193548,62.7867692 77.4193548,65.0769231 C77.4193548,67.3670769 75.6825806,69.2307692 73.5483871,69.2307692 Z M77.4193548,59.5412308 C76.3406452,58.6703077 75,58.1538462 73.5483871,58.1538462 C72.0967742,58.1538462 70.756129,58.6703077 69.6774194,59.5412308 L69.6774194,26.3076923 C69.6774194,24.0175385 71.4141935,22.1538462 73.5483871,22.1538462 C75.6825806,22.1538462 77.4193548,24.0175385 77.4193548,26.3076923 L77.4193548,59.5412308 Z" id="Shape"></path>
            <path d="M46.5,19.3432836 C50.0841,19.3432836 53,16.2097791 53,12.358209 C53,8.50663881 50.0841,5.37313433 46.5,5.37313433 C42.9159,5.37313433 40,8.50663881 40,12.358209 C40,16.2097791 42.9159,19.3432836 46.5,19.3432836 Z M46.5,8.16716418 C48.6502,8.16716418 50.4,10.0475463 50.4,12.358209 C50.4,14.6688716 48.6502,16.5492537 46.5,16.5492537 C44.3498,16.5492537 42.6,14.6688716 42.6,12.358209 C42.6,10.0475463 44.3498,8.16716418 46.5,8.16716418 Z" id="Shape"></path>
        </g>
    </g>
</svg>