<?xml version="1.0" encoding="UTF-8"?>
<svg width="32px" height="32px" viewBox="0 0 32 32" version="1.1" xmlns="http://www.w3.org/2000/svg" xmlns:xlink="http://www.w3.org/1999/xlink">
    <title>01 Icons/04 Menu/EnergyMP</title>
    <g id="01-Icons/04-Menu/EnergyMP" stroke="none" stroke-width="1" fill="none" fill-rule="evenodd">
        <g id="978022" transform="translate(2.000000, -3.000000)">
            <g id="Group" transform="translate(14.545213, 18.312404) rotate(23.000000) translate(-14.545213, -18.312404) translate(5.545213, 2.312404)">
                <polygon id="Path-3" fill="#E1F3E1" points="11.0620601 14.8422852 14.1493131 2.19885706 1.78187772 16.491428 6.55186918 17.1659553 3.65298536 29.7398639 15.7586001 14.8422852"></polygon>
                <path d="M17.022833,14.6105675 C16.8659416,14.2821682 16.5312101,14.0729469 16.163273,14.0729469 L11.6961017,14.0729469 L15.1810302,1.18049828 C15.2961359,0.753590179 15.0944502,0.306122767 14.6969845,0.104377632 C14.2995188,-0.0982470466 13.8126874,0.00114129266 13.5284331,0.341744252 L0.216507875,16.2909341 C-0.0173806874,16.5705187 -0.0658521142,16.9589468 0.0910393086,17.2872362 C0.247930731,17.6156355 0.582662148,17.8248568 0.950599277,17.8248568 L5.41777054,17.8248568 L1.9328421,30.7173054 C1.81773639,31.1442135 2.01942209,31.5916809 2.41688779,31.7934261 C2.55472493,31.8637895 2.70403921,31.897542 2.85145921,31.897542 C3.1291392,31.897542 3.40013347,31.7783639 3.58555061,31.5560594 L16.8975873,15.6069796 C17.131253,15.3273949 17.1797244,14.9389668 17.022833,14.6105675 Z M4.89751056,27.0330105 L7.57413618,17.1286986 C7.65024189,16.8472449 7.58940189,16.546991 7.40966761,16.3153414 C7.22993333,16.0845713 6.95136191,15.948572 6.6556305,15.948572 L2.9653392,15.948572 L12.2171417,4.86402363 L9.5405161,14.7683355 C9.46441039,15.0497892 9.52525039,15.3500431 9.70498467,15.5816927 C9.88471895,15.8124628 10.1632904,15.948572 10.4590218,15.948572 L14.1493131,15.948572 L4.89751056,27.0330105 Z" id="Shape" fill="#373A37" fill-rule="nonzero"></path>
            </g>
        </g>
    </g>
</svg>