<svg xmlns="http://www.w3.org/2000/svg" width="32" height="32" viewBox="0 0 32 32">
    <g fill="none" fill-rule="evenodd">
        <g fill="#E1F3E1" stroke="#373A37" stroke-width="1.94">
            <g>
                <g>
                    <g>
                        <g>
                            <path d="M15.489 1.31c1.708.628 3.188 1.64 4.29 2.918 1.293 1.497 2.066 3.358 2.066 5.38 0 1.705-.55 3.296-1.496 4.65-1.11 1.586-2.763 2.847-4.726 3.598h0v9.174h-8.43l-.001-9.174c-1.963-.75-3.616-2.012-4.726-3.598C1.52 12.904.97 11.313.97 9.608c0-2.022.773-3.883 2.065-5.38 1.103-1.277 2.582-2.29 4.291-2.918h0v9.794h8.163z" transform="translate(-24 -282) translate(0 56) translate(0 218) translate(24 8) translate(5 2)"/>
                        </g>
                    </g>
                </g>
            </g>
        </g>
    </g>
</svg>
